{"glyphs":{"0":{"ha":667,"x_min":25,"x_max":642,"o":"m 25 458 q 32 655 25 560 q 69 823 39 750 q 162 940 100 896 q 333 983 224 983 q 482 958 422 983 q 577 875 542 932 q 627 727 613 818 q 642 506 642 636 q 635 308 642 403 q 597 141 628 214 q 505 24 567 68 q 333 -19 443 -19 q 184 6 243 -19 q 90 89 125 32 q 40 237 54 146 q 25 458 25 328 m 225 415 q 230 263 225 322 q 247 170 235 204 q 281 124 260 136 q 333 111 301 111 q 388 127 367 111 q 420 181 408 143 q 437 283 432 219 q 442 442 442 347 l 442 549 q 437 701 442 642 q 419 794 432 760 q 386 840 407 828 q 333 853 365 853 q 279 837 300 853 q 247 783 258 821 q 230 681 235 744 q 225 522 225 617 l 225 415 z "},"1":{"ha":667,"x_min":57,"x_max":453,"o":"m 253 0 l 253 694 l 57 694 l 57 825 l 75 825 q 233 863 175 825 q 306 983 290 900 l 453 983 l 453 0 l 253 0 z "},"2":{"ha":667,"x_min":25,"x_max":631,"o":"m 631 0 l 25 0 q 38 122 25 65 q 78 231 51 179 q 147 331 106 282 q 242 431 188 381 l 322 506 q 376 560 356 535 q 407 610 396 585 q 422 664 418 635 q 425 731 425 693 q 328 853 425 853 q 269 838 290 853 q 235 796 247 822 q 220 735 224 769 q 217 661 217 700 l 25 661 l 25 699 q 99 910 25 836 q 331 983 172 983 q 553 914 481 983 q 625 715 625 844 q 617 626 625 667 q 590 549 608 586 q 543 476 572 511 q 472 403 514 440 l 361 300 q 292 222 317 260 q 260 156 267 183 l 631 156 l 631 0 z "},"3":{"ha":667,"x_min":28,"x_max":639,"o":"m 219 288 q 242 156 221 201 q 329 111 264 111 q 387 124 365 111 q 420 158 408 136 q 435 208 432 179 q 439 269 439 238 q 434 333 439 303 q 415 386 429 363 q 376 424 401 410 q 310 438 351 438 l 243 438 l 243 568 l 308 568 q 361 581 339 568 q 397 616 383 594 q 416 665 410 638 q 422 724 422 693 q 399 824 422 794 q 326 853 375 853 q 274 841 294 853 q 243 808 254 829 q 228 757 232 786 q 225 693 225 728 l 42 693 q 115 912 42 840 q 331 983 189 983 q 540 922 465 983 q 614 731 614 861 q 574 585 614 642 q 464 514 535 529 l 464 511 q 599 434 560 496 q 639 279 639 372 q 626 176 639 229 q 578 80 614 124 q 478 8 542 36 q 313 -19 414 -19 q 99 60 169 -19 q 28 283 28 140 l 28 288 l 219 288 z "},"4":{"ha":667,"x_min":19,"x_max":647,"o":"m 19 368 l 346 983 l 553 983 l 553 360 l 647 360 l 647 204 l 553 204 l 553 0 l 369 0 l 369 204 l 19 204 l 19 368 m 369 733 l 367 733 l 175 360 l 369 360 l 369 733 z "},"5":{"ha":667,"x_min":25,"x_max":631,"o":"m 590 808 l 228 808 l 207 585 l 210 585 q 282 641 238 624 q 390 658 326 658 q 508 631 461 658 q 581 560 554 604 q 619 459 608 515 q 631 344 631 403 q 617 196 631 263 q 567 81 603 129 q 471 7 532 33 q 315 -19 410 -19 q 164 8 221 -19 q 76 76 107 35 q 35 165 46 117 q 25 254 25 213 l 25 281 l 217 281 q 219 228 217 256 q 233 176 222 200 q 263 135 243 151 q 314 119 282 119 q 403 167 376 119 q 431 311 431 215 q 425 413 431 372 q 406 476 419 453 q 371 510 393 500 q 315 519 349 519 q 249 495 272 519 q 221 429 226 471 l 42 429 l 78 964 l 590 964 l 590 808 z "},"6":{"ha":667,"x_min":19,"x_max":647,"o":"m 229 306 q 233 228 229 264 q 249 166 238 192 q 283 126 261 140 q 339 111 304 111 q 397 126 375 111 q 429 167 418 140 q 444 228 440 193 q 447 306 447 264 q 422 449 447 406 q 339 492 397 492 q 254 449 279 492 q 229 306 229 406 m 432 733 q 412 822 432 792 q 342 853 392 853 q 278 834 301 853 q 241 782 254 815 q 224 703 228 749 q 219 603 219 657 l 219 554 l 222 554 q 294 616 247 593 q 407 639 340 639 q 518 616 472 639 q 592 552 564 593 q 634 455 621 511 q 647 332 647 399 q 572 71 647 161 q 329 -19 496 -19 q 165 19 226 -19 q 71 120 103 57 q 29 267 39 183 q 19 440 19 350 q 26 642 19 544 q 63 816 32 740 q 161 938 94 892 q 350 983 228 983 q 452 971 403 983 q 539 929 501 958 q 599 852 576 900 q 624 733 622 804 l 432 733 z "},"7":{"ha":667,"x_min":31,"x_max":636,"o":"m 636 964 l 636 811 q 527 626 575 725 q 443 424 479 528 q 383 212 407 319 q 347 0 360 104 l 138 0 q 171 187 149 89 q 230 386 193 285 q 319 590 267 488 q 444 792 372 693 l 31 792 l 31 964 l 636 964 z "},"8":{"ha":667,"x_min":19,"x_max":647,"o":"m 219 281 q 224 214 219 244 q 242 160 229 183 q 278 124 256 138 q 333 111 300 111 q 389 124 367 111 q 424 160 411 138 q 442 214 438 183 q 447 281 447 244 q 442 347 447 315 q 424 401 438 378 q 389 437 411 424 q 333 450 367 450 q 278 437 300 450 q 242 401 256 424 q 224 347 229 378 q 219 281 219 315 m 236 718 q 263 614 236 647 q 333 581 289 581 q 404 614 378 581 q 431 718 431 647 q 333 853 431 853 q 236 718 236 853 m 19 278 q 61 438 19 371 q 186 521 103 504 l 186 524 q 119 554 146 533 q 75 601 92 575 q 51 657 58 628 q 44 713 44 686 q 122 920 44 857 q 333 983 199 983 q 545 920 468 983 q 622 713 622 857 q 615 657 622 686 q 590 601 607 628 q 547 554 574 575 q 481 524 519 533 l 481 521 q 606 438 564 504 q 647 278 647 371 q 637 184 647 236 q 593 87 626 132 q 498 11 560 42 q 333 -19 436 -19 q 169 11 231 -19 q 74 87 107 42 q 30 184 40 132 q 19 278 19 236 z "},"9":{"ha":667,"x_min":19,"x_max":647,"o":"m 219 658 q 244 515 219 558 q 328 472 269 472 q 413 515 388 472 q 438 658 438 558 q 433 736 438 700 q 417 798 429 772 q 384 838 406 824 q 328 853 363 853 q 270 838 292 853 q 238 797 249 824 q 223 735 226 771 q 219 658 219 700 m 235 229 q 255 142 235 174 q 325 111 275 111 q 388 130 364 111 q 426 182 413 149 q 443 261 439 215 q 447 361 447 307 l 447 408 l 444 408 q 373 348 419 371 q 260 325 326 325 q 149 348 194 325 q 74 412 103 371 q 33 509 46 453 q 19 632 19 565 q 95 893 19 803 q 338 983 171 983 q 501 945 440 983 q 595 844 563 907 q 638 697 628 781 q 647 524 647 614 q 641 322 647 419 q 603 148 635 224 q 505 26 572 72 q 317 -19 438 -19 q 215 -7 264 -19 q 128 34 165 6 q 67 110 90 63 q 43 229 44 158 l 235 229 z "}," ":{"ha":333,"x_min":0,"x_max":0,"o":""},"!":{"ha":411,"x_min":110,"x_max":301,"o":"m 301 183 l 301 0 l 110 0 l 110 183 l 301 183 m 136 276 l 110 669 l 110 992 l 301 992 l 301 669 l 275 276 l 136 276 z "},"\"":{"ha":643,"x_min":100,"x_max":543,"o":"m 100 992 l 272 992 l 272 546 l 100 546 l 100 992 m 371 992 l 543 992 l 543 546 l 371 546 l 371 992 z "},"#":{"ha":667,"x_min":0,"x_max":667,"o":"m 256 397 l 390 397 l 413 567 l 276 567 l 256 397 m 0 397 l 121 397 l 143 567 l 42 567 l 42 722 l 161 722 l 192 964 l 325 964 l 296 722 l 431 722 l 461 964 l 596 964 l 565 722 l 667 722 l 667 567 l 547 567 l 525 397 l 626 397 l 626 242 l 507 242 l 476 0 l 342 0 l 372 242 l 236 242 l 207 0 l 72 0 l 103 242 l 0 242 l 0 397 z "},"$":{"ha":667,"x_min":13,"x_max":654,"o":"m 285 -19 q 145 13 199 -12 q 63 76 92 38 q 23 163 33 114 q 13 265 13 211 l 13 294 l 204 294 q 206 238 204 265 q 217 189 208 211 q 241 151 225 167 q 285 128 257 135 l 285 408 l 215 433 q 69 537 114 469 q 25 700 25 604 q 92 899 25 829 q 285 983 160 969 l 285 1079 l 374 1079 l 374 983 q 500 952 450 976 q 579 892 550 928 q 619 811 608 856 q 631 721 631 767 l 631 701 l 439 701 q 424 790 438 754 q 374 836 410 825 l 374 574 l 483 529 q 553 493 522 513 q 607 445 585 474 q 642 376 629 417 q 654 278 654 336 q 583 59 654 128 q 374 -19 511 -10 l 374 -140 l 285 -140 l 285 -19 m 285 836 q 217 731 217 817 q 285 614 217 653 l 285 836 m 374 128 q 435 169 417 138 q 454 239 454 200 q 434 322 454 292 q 374 374 414 353 l 374 128 z "},"%":{"ha":1081,"x_min":38,"x_max":1043,"o":"m 758 1007 l 882 1007 l 318 -43 l 194 -43 l 758 1007 m 185 724 q 194 599 185 640 q 246 558 204 558 q 297 599 288 558 q 307 724 307 640 q 297 838 307 799 q 246 878 288 878 q 194 838 204 878 q 185 724 185 799 m 38 718 q 46 835 38 785 q 77 918 54 885 q 140 967 100 951 q 246 983 181 983 q 351 967 310 983 q 415 918 392 951 q 446 835 438 885 q 454 718 454 785 q 446 601 454 651 q 415 518 438 551 q 351 469 392 485 q 246 453 310 453 q 140 469 181 453 q 77 518 100 485 q 46 601 54 551 q 38 718 38 651 m 626 246 q 635 363 626 313 q 666 446 643 413 q 729 495 689 479 q 835 511 769 511 q 940 495 899 511 q 1003 446 981 479 q 1035 363 1026 413 q 1043 246 1043 313 q 1035 129 1043 179 q 1003 46 1026 79 q 940 -3 981 13 q 835 -19 899 -19 q 729 -3 769 -19 q 666 46 689 13 q 635 129 643 79 q 626 246 626 179 m 774 251 q 783 127 774 168 q 835 86 793 86 q 886 127 876 86 q 896 251 896 168 q 886 366 896 326 q 835 406 876 406 q 783 366 793 406 q 774 251 774 326 z "},"&":{"ha":824,"x_min":17,"x_max":828,"o":"m 592 326 q 617 401 607 358 q 626 476 626 444 l 799 476 q 770 322 799 396 q 697 183 742 247 l 828 0 l 615 0 l 560 76 q 459 6 522 32 q 321 -19 396 -19 q 167 10 226 -19 q 75 82 108 39 q 29 175 42 125 q 17 267 17 225 q 70 424 17 354 q 217 553 124 494 l 182 604 q 148 658 161 635 q 128 703 135 682 q 118 743 121 724 q 115 783 115 763 q 134 869 115 831 q 186 935 153 908 q 266 977 219 963 q 368 992 313 992 q 478 976 432 992 q 556 931 525 960 q 601 865 586 903 q 615 785 615 828 q 573 650 615 710 q 443 528 531 590 l 592 326 m 310 435 q 230 351 251 390 q 208 267 208 313 q 217 220 208 243 q 244 178 226 197 q 288 148 261 160 q 347 136 314 136 q 476 199 426 136 l 310 435 m 279 789 q 329 681 279 747 l 353 647 l 389 678 q 437 733 422 706 q 451 786 451 760 q 427 848 451 826 q 364 869 403 869 q 303 849 328 869 q 279 789 279 828 z "},"'":{"ha":361,"x_min":94,"x_max":267,"o":"m 94 992 l 267 992 l 267 546 l 94 546 l 94 992 z "},"(":{"ha":411,"x_min":69,"x_max":411,"o":"m 411 992 q 338 838 368 913 q 288 689 307 764 q 261 535 269 614 q 253 368 253 457 q 261 201 253 279 q 288 47 269 122 q 338 -102 307 -28 q 411 -256 368 -176 l 264 -256 q 115 65 160 -92 q 69 368 69 221 q 115 672 69 515 q 264 992 160 828 l 411 992 z "},")":{"ha":411,"x_min":0,"x_max":342,"o":"m 147 992 q 297 672 251 828 q 342 368 342 515 q 297 65 342 221 q 147 -256 251 -92 l 0 -256 q 74 -102 43 -176 q 123 47 104 -28 q 150 201 142 122 q 158 368 158 279 q 150 535 158 457 q 123 689 142 614 q 74 838 104 764 q 0 992 43 913 l 147 992 z "},"*":{"ha":542,"x_min":10,"x_max":532,"o":"m 328 992 l 328 814 l 497 869 l 532 761 l 363 706 l 468 561 l 375 494 l 271 639 l 167 494 l 74 561 l 179 706 l 10 761 l 44 869 l 214 814 l 214 992 l 328 992 z "},"+":{"ha":833,"x_min":65,"x_max":768,"o":"m 331 265 l 65 265 l 65 438 l 331 438 l 331 703 l 503 703 l 503 438 l 768 438 l 768 265 l 503 265 l 503 0 l 331 0 l 331 265 z "},",":{"ha":333,"x_min":75,"x_max":258,"o":"m 258 217 l 258 36 q 251 -66 258 -19 q 222 -147 243 -112 q 166 -202 201 -181 q 75 -229 131 -224 l 75 -132 q 129 -93 111 -125 q 147 -22 147 -61 l 147 0 l 75 0 l 75 217 l 258 217 z "},"-":{"ha":514,"x_min":61,"x_max":453,"o":"m 453 483 l 453 319 l 61 319 l 61 483 l 453 483 z "},".":{"ha":333,"x_min":75,"x_max":258,"o":"m 258 217 l 258 0 l 75 0 l 75 217 l 258 217 z "},"/":{"ha":461,"x_min":-4,"x_max":465,"o":"m 310 1011 l 465 1011 l 151 -19 l -4 -19 l 310 1011 z "},":":{"ha":333,"x_min":75,"x_max":258,"o":"m 75 724 l 258 724 l 258 507 l 75 507 l 75 724 m 75 217 l 258 217 l 258 0 l 75 0 l 75 217 z "},";":{"ha":333,"x_min":75,"x_max":258,"o":"m 258 724 l 258 507 l 75 507 l 75 724 l 258 724 m 258 217 l 258 36 q 251 -66 258 -19 q 222 -147 243 -112 q 166 -202 201 -181 q 75 -229 131 -224 l 75 -132 q 129 -93 111 -125 q 147 -22 147 -61 l 147 0 l 75 0 l 75 217 l 258 217 z "},"<":{"ha":833,"x_min":65,"x_max":768,"o":"m 65 425 l 768 714 l 768 542 l 299 351 l 768 161 l 768 -11 l 65 278 l 65 425 z "},"=":{"ha":833,"x_min":65,"x_max":768,"o":"m 65 286 l 768 286 l 768 114 l 65 114 l 65 286 m 65 589 l 768 589 l 768 417 l 65 417 l 65 589 z "},">":{"ha":833,"x_min":65,"x_max":768,"o":"m 65 161 l 535 351 l 65 542 l 65 714 l 768 425 l 768 278 l 65 -11 l 65 161 z "},"?":{"ha":668,"x_min":50,"x_max":618,"o":"m 417 183 l 417 0 l 225 0 l 225 183 l 417 183 m 50 685 l 50 717 q 67 832 50 779 q 119 922 85 885 q 204 981 153 960 q 325 1003 256 1003 q 545 930 472 1003 q 618 735 618 857 q 599 626 618 676 q 531 518 581 576 l 475 456 q 423 382 439 415 q 407 296 407 349 l 407 275 l 235 275 l 235 329 q 254 447 235 399 q 321 547 274 494 l 374 607 q 415 676 403 639 q 426 754 426 713 q 403 840 426 807 q 332 872 379 872 q 256 830 279 872 q 233 719 233 788 l 233 685 l 50 685 z "},"@":{"ha":1111,"x_min":40,"x_max":1071,"o":"m 743 751 l 865 751 l 785 404 q 776 347 776 364 q 804 319 776 319 q 850 337 825 319 q 897 385 875 354 q 933 462 918 417 q 949 561 949 507 q 918 689 949 631 q 836 790 888 747 q 718 857 785 833 q 579 881 651 881 q 427 849 497 881 q 306 763 357 817 q 225 639 254 708 q 196 494 196 569 q 228 345 196 415 q 313 223 260 275 q 438 141 367 171 q 589 111 510 111 q 758 138 685 111 q 890 200 832 165 l 1014 200 q 826 38 939 96 q 556 -19 714 -19 q 355 21 449 -19 q 191 131 261 61 q 81 295 121 201 q 40 496 40 389 q 81 697 40 603 q 191 860 121 790 q 355 971 261 931 q 556 1011 449 1011 q 753 981 660 1011 q 917 896 847 951 q 1029 763 988 840 q 1071 590 1071 686 q 1051 459 1071 517 q 1001 357 1032 401 q 931 281 969 313 q 853 231 892 250 q 779 202 814 211 q 722 193 744 193 q 632 267 639 193 l 629 267 q 560 215 601 238 q 463 193 518 193 q 389 209 425 193 q 324 256 353 225 q 278 330 296 286 q 260 429 260 374 q 281 554 260 493 q 340 663 301 615 q 434 741 379 711 q 557 771 489 771 q 652 749 610 771 q 725 678 694 726 l 743 751 m 415 453 q 442 374 415 407 q 514 340 469 340 q 578 356 549 340 q 630 398 608 372 q 663 455 651 424 q 675 518 675 486 q 644 593 675 563 q 571 624 614 624 q 509 608 538 624 q 460 567 481 592 q 427 512 439 542 q 415 453 415 482 z "},"A":{"ha":772,"x_min":0,"x_max":772,"o":"m 289 374 l 483 374 l 388 819 l 385 819 l 289 374 m 263 992 l 510 992 l 772 0 l 564 0 l 518 210 l 254 210 l 208 0 l 0 0 l 263 992 z "},"B":{"ha":772,"x_min":69,"x_max":717,"o":"m 269 147 l 347 147 q 464 179 419 147 q 508 297 508 211 q 497 369 508 340 q 465 415 485 397 q 417 439 444 432 q 356 446 389 446 l 269 446 l 269 147 m 269 585 l 326 585 q 448 615 410 585 q 486 715 486 644 q 451 815 486 786 q 342 844 417 844 l 269 844 l 269 585 m 69 992 l 404 992 q 517 979 465 992 q 607 938 569 967 q 665 860 644 908 q 686 740 686 811 q 649 602 686 660 q 536 524 611 544 l 536 521 q 668 450 619 510 q 717 290 717 390 q 701 179 717 232 q 649 87 686 126 q 553 24 613 47 q 407 0 494 0 l 69 0 l 69 992 z "},"C":{"ha":746,"x_min":49,"x_max":701,"o":"m 493 657 q 467 815 493 765 q 374 864 442 864 q 312 844 336 864 q 274 778 288 824 q 254 660 260 733 q 249 482 249 588 q 256 300 249 369 q 280 192 264 231 q 320 141 296 154 q 376 128 344 128 q 426 137 403 128 q 465 173 449 146 q 492 249 482 200 q 501 379 501 299 l 701 379 q 689 226 701 299 q 642 99 676 154 q 547 13 608 44 q 386 -19 485 -19 q 207 19 274 -19 q 105 125 140 57 q 59 288 69 193 q 49 496 49 383 q 59 703 49 608 q 105 867 69 799 q 207 973 140 935 q 386 1011 274 1011 q 555 976 493 1011 q 647 888 617 942 q 685 773 678 835 q 693 657 693 711 l 493 657 z "},"D":{"ha":797,"x_min":79,"x_max":735,"o":"m 279 147 l 368 147 q 452 165 419 147 q 503 225 485 183 q 528 335 522 267 q 535 504 535 403 q 529 652 535 589 q 506 758 524 715 q 455 823 489 801 q 364 844 421 844 l 279 844 l 279 147 m 79 992 l 407 992 q 575 958 511 992 q 674 860 639 924 q 722 708 710 797 q 735 510 735 619 q 719 282 735 378 q 664 124 703 186 q 560 31 625 61 q 394 0 494 0 l 79 0 l 79 992 z "},"E":{"ha":668,"x_min":69,"x_max":638,"o":"m 624 992 l 624 828 l 269 828 l 269 594 l 603 594 l 603 431 l 269 431 l 269 164 l 638 164 l 638 0 l 69 0 l 69 992 l 624 992 z "},"F":{"ha":643,"x_min":69,"x_max":624,"o":"m 69 992 l 624 992 l 624 828 l 269 828 l 269 594 l 603 594 l 603 431 l 269 431 l 269 0 l 69 0 l 69 992 z "},"G":{"ha":772,"x_min":60,"x_max":713,"o":"m 510 697 q 503 753 510 724 q 483 808 497 783 q 448 848 469 832 q 396 864 426 864 q 292 783 324 864 q 260 517 260 703 q 265 355 260 426 q 285 233 271 283 q 327 155 300 182 q 397 128 354 128 q 437 138 415 128 q 477 167 458 147 q 508 216 496 186 q 521 286 521 246 l 521 388 l 389 388 l 389 535 l 713 535 l 713 0 l 565 0 l 565 92 l 563 92 q 476 7 526 33 q 354 -19 425 -19 q 205 15 263 -19 q 115 115 147 49 q 71 280 82 182 q 60 507 60 378 q 76 726 60 632 q 131 884 92 821 q 233 979 169 947 q 393 1011 297 1011 q 629 930 557 1011 q 701 697 701 849 l 510 697 z "},"H":{"ha":772,"x_min":69,"x_max":703,"o":"m 69 992 l 269 992 l 269 613 l 503 613 l 503 992 l 703 992 l 703 0 l 503 0 l 503 440 l 269 440 l 269 0 l 69 0 l 69 992 z "},"I":{"ha":358,"x_min":79,"x_max":279,"o":"m 79 0 l 79 992 l 279 992 l 279 0 l 79 0 z "},"J":{"ha":643,"x_min":21,"x_max":582,"o":"m 582 992 l 582 278 q 508 50 582 119 q 283 -19 435 -19 q 153 4 204 -19 q 73 67 103 28 q 32 160 43 107 q 21 271 21 213 l 21 314 l 204 314 l 204 283 q 222 166 204 204 q 293 128 239 128 q 365 166 347 128 q 382 283 382 204 l 382 992 l 582 992 z "},"K":{"ha":746,"x_min":69,"x_max":772,"o":"m 269 992 l 269 594 l 272 594 l 525 992 l 742 992 l 472 567 l 772 0 l 547 0 l 343 407 l 269 294 l 269 0 l 69 0 l 69 992 l 269 992 z "},"L":{"ha":643,"x_min":69,"x_max":624,"o":"m 69 0 l 69 992 l 269 992 l 269 164 l 624 164 l 624 0 l 69 0 z "},"M":{"ha":1028,"x_min":74,"x_max":954,"o":"m 74 992 l 371 992 l 513 292 l 515 292 l 658 992 l 954 992 l 954 0 l 771 0 l 771 792 l 768 792 l 592 0 l 436 0 l 260 792 l 257 792 l 257 0 l 74 0 l 74 992 z "},"N":{"ha":797,"x_min":69,"x_max":728,"o":"m 300 992 l 542 313 l 544 313 l 544 992 l 728 992 l 728 0 l 500 0 l 256 694 l 253 694 l 253 0 l 69 0 l 69 992 l 300 992 z "},"O":{"ha":772,"x_min":49,"x_max":724,"o":"m 49 496 q 59 703 49 608 q 105 867 69 799 q 207 973 140 935 q 386 1011 274 1011 q 565 973 499 1011 q 667 867 632 935 q 713 703 703 799 q 724 496 724 608 q 713 288 724 383 q 667 125 703 193 q 565 19 632 57 q 386 -19 499 -19 q 207 19 274 -19 q 105 125 140 57 q 59 288 69 193 q 49 496 49 383 m 249 496 q 253 326 249 396 q 273 212 258 256 q 315 148 288 168 q 386 128 342 128 q 458 148 431 128 q 499 212 485 168 q 519 326 514 256 q 524 496 524 396 q 519 665 524 596 q 499 779 514 735 q 458 844 485 824 q 386 864 431 864 q 315 844 342 864 q 273 779 288 824 q 253 665 258 735 q 249 496 249 596 z "},"P":{"ha":721,"x_min":69,"x_max":692,"o":"m 269 543 l 358 543 q 455 579 418 543 q 492 692 492 615 q 460 806 492 767 q 353 844 428 844 l 269 844 l 269 543 m 69 992 l 419 992 q 548 966 496 992 q 632 899 600 940 q 678 803 664 857 q 692 694 692 750 q 669 560 692 617 q 605 468 646 504 q 506 414 564 432 q 376 396 447 396 l 269 396 l 269 0 l 69 0 l 69 992 z "},"Q":{"ha":772,"x_min":49,"x_max":754,"o":"m 249 496 q 253 326 249 396 q 273 212 258 256 q 315 148 288 168 q 386 128 342 128 q 458 148 431 128 q 499 212 485 168 q 519 326 514 256 q 524 496 524 396 q 519 665 524 596 q 499 779 514 735 q 458 844 485 824 q 386 864 431 864 q 315 844 342 864 q 273 779 288 824 q 253 665 258 735 q 249 496 249 596 m 636 -122 l 518 0 q 457 -15 486 -11 q 386 -19 425 -19 q 207 19 274 -19 q 105 125 140 57 q 59 288 69 193 q 49 496 49 383 q 59 703 49 608 q 105 867 69 799 q 207 973 140 935 q 386 1011 274 1011 q 565 973 499 1011 q 667 867 632 935 q 713 703 703 799 q 724 496 724 608 q 710 267 724 369 q 647 93 696 164 l 754 -15 l 636 -122 z "},"R":{"ha":772,"x_min":69,"x_max":742,"o":"m 69 992 l 439 992 q 633 928 564 992 q 703 736 703 865 q 663 573 703 636 q 538 492 622 510 l 538 489 q 619 463 589 482 q 667 409 650 444 q 690 319 683 374 q 697 186 696 265 q 706 65 699 107 q 742 8 714 24 l 742 0 l 525 0 q 506 48 510 21 q 500 104 501 75 l 494 294 q 465 386 492 353 q 376 419 439 419 l 269 419 l 269 0 l 69 0 l 69 992 m 269 558 l 353 558 q 464 592 425 558 q 503 707 503 626 q 364 844 503 844 l 269 844 l 269 558 z "},"S":{"ha":721,"x_min":31,"x_max":690,"o":"m 231 310 l 231 281 q 236 217 231 246 q 257 169 242 189 q 297 139 272 150 q 363 128 322 128 q 445 158 408 128 q 482 250 482 188 q 473 308 482 283 q 443 351 464 332 q 388 387 422 371 q 304 419 354 403 q 189 468 238 442 q 108 530 140 494 q 60 612 75 565 q 44 719 44 658 q 126 939 44 867 q 351 1011 208 1011 q 474 997 418 1011 q 572 949 531 982 q 635 866 613 917 q 658 744 658 815 l 658 717 l 467 717 q 442 826 467 788 q 358 864 417 864 q 303 854 325 864 q 267 828 281 844 q 249 792 254 813 q 244 749 244 771 q 264 672 244 703 q 347 614 283 640 l 501 547 q 594 495 557 522 q 652 437 631 468 q 682 368 674 406 q 690 285 690 331 q 599 54 690 128 q 346 -19 508 -19 q 103 56 176 -19 q 31 269 31 132 l 31 310 l 231 310 z "},"T":{"ha":667,"x_min":17,"x_max":650,"o":"m 650 992 l 650 828 l 433 828 l 433 0 l 233 0 l 233 828 l 17 828 l 17 992 l 650 992 z "},"U":{"ha":747,"x_min":57,"x_max":690,"o":"m 257 992 l 257 300 q 262 231 257 263 q 280 177 267 200 q 315 141 293 154 q 374 128 338 128 q 431 141 408 128 q 467 177 454 154 q 485 231 481 200 q 490 300 490 263 l 490 992 l 690 992 l 690 300 q 664 144 690 206 q 593 46 638 82 q 492 -5 549 10 q 374 -19 435 -19 q 256 -7 313 -19 q 154 41 199 6 q 83 138 110 76 q 57 300 57 200 l 57 992 l 257 992 z "},"V":{"ha":721,"x_min":4,"x_max":717,"o":"m 218 992 l 358 258 l 363 258 l 510 992 l 717 992 l 489 0 l 232 0 l 4 992 l 218 992 z "},"W":{"ha":1056,"x_min":11,"x_max":1044,"o":"m 11 992 l 203 992 l 313 258 l 315 258 l 432 992 l 624 992 l 740 258 l 743 258 l 853 992 l 1044 992 l 864 0 l 640 0 l 529 719 l 526 719 l 415 0 l 192 0 l 11 992 z "},"X":{"ha":746,"x_min":8,"x_max":738,"o":"m 28 992 l 249 992 l 376 671 l 503 992 l 721 992 l 490 501 l 738 0 l 513 0 l 369 336 l 228 0 l 8 0 l 256 501 l 28 992 z "},"Y":{"ha":722,"x_min":4,"x_max":718,"o":"m 229 992 l 360 608 l 363 608 l 501 992 l 718 992 l 461 390 l 461 0 l 261 0 l 261 390 l 4 992 l 229 992 z "},"Z":{"ha":668,"x_min":33,"x_max":635,"o":"m 33 146 l 399 828 l 58 828 l 58 992 l 629 992 l 629 840 l 258 164 l 635 164 l 635 0 l 33 0 l 33 146 z "},"[":{"ha":438,"x_min":111,"x_max":429,"o":"m 111 992 l 429 992 l 429 853 l 283 853 l 283 -117 l 429 -117 l 429 -256 l 111 -256 l 111 992 z "},"\\":{"ha":461,"x_min":-4,"x_max":465,"o":"m -4 1011 l 151 1011 l 465 -19 l 310 -19 l -4 1011 z "},"]":{"ha":438,"x_min":8,"x_max":326,"o":"m 8 -117 l 154 -117 l 154 853 l 8 853 l 8 992 l 326 992 l 326 -256 l 8 -256 l 8 -117 z "},"^":{"ha":833,"x_min":78,"x_max":756,"o":"m 78 429 l 339 964 l 494 964 l 756 429 l 583 429 l 417 772 l 250 429 l 78 429 z "},"_":{"ha":694,"x_min":0,"x_max":694,"o":"m 0 -174 l 0 -104 l 694 -104 l 694 -174 l 0 -174 z "},"`":{"ha":308,"x_min":-22,"x_max":244,"o":"m 114 836 l -22 1036 l 169 1036 l 244 836 l 114 836 z "},"a":{"ha":668,"x_min":39,"x_max":619,"o":"m 63 518 l 63 536 q 83 644 63 600 q 140 716 104 689 q 223 755 175 743 q 325 767 271 767 q 463 750 410 767 q 546 703 517 733 q 585 630 575 672 q 596 538 596 588 l 596 144 q 601 63 596 92 q 619 0 606 33 l 436 0 q 422 38 426 18 q 413 78 417 58 l 410 78 q 333 0 376 19 q 219 -19 289 -19 q 135 0 169 -19 q 79 50 100 19 q 49 119 58 81 q 39 194 39 157 q 50 285 39 247 q 84 351 61 324 q 142 396 107 378 q 228 428 178 414 l 336 457 q 396 488 379 468 q 413 544 413 507 q 392 612 413 588 q 324 636 372 636 q 257 610 279 636 q 235 539 235 583 l 235 518 l 63 518 m 413 374 q 371 349 393 358 q 331 336 349 340 q 247 294 272 324 q 222 215 222 265 q 239 142 222 172 q 294 111 256 111 q 335 117 314 111 q 373 138 356 124 q 401 173 390 151 q 413 226 413 194 l 413 374 z "},"b":{"ha":694,"x_min":64,"x_max":649,"o":"m 64 992 l 256 992 l 256 678 l 258 678 q 327 744 289 722 q 419 767 365 767 q 593 674 538 767 q 649 374 649 582 q 593 73 649 165 q 419 -19 538 -19 q 322 3 361 -19 q 250 79 282 26 l 247 79 l 247 0 l 64 0 l 64 992 m 256 374 q 274 190 256 251 q 357 128 293 128 q 438 190 419 128 q 457 374 457 251 q 438 558 457 496 q 357 619 419 619 q 274 558 293 619 q 256 374 256 496 z "},"c":{"ha":643,"x_min":36,"x_max":607,"o":"m 424 478 q 420 531 424 504 q 408 580 417 558 q 381 615 399 601 q 338 628 364 628 q 280 612 301 628 q 247 565 258 596 q 232 485 236 533 q 228 372 228 436 q 232 253 228 303 q 247 172 236 204 q 278 126 258 140 q 331 111 299 111 q 401 153 379 111 q 424 286 424 194 l 607 286 q 541 60 607 139 q 322 -19 475 -19 q 197 0 250 -19 q 108 65 143 19 q 54 185 72 110 q 36 374 36 261 q 58 565 36 489 q 121 685 81 640 q 217 749 161 731 q 339 767 272 767 q 540 689 472 767 q 607 478 607 611 l 424 478 z "},"d":{"ha":694,"x_min":46,"x_max":631,"o":"m 447 79 l 444 79 q 373 3 413 26 q 275 -19 333 -19 q 101 73 157 -19 q 46 374 46 165 q 101 674 46 582 q 275 767 157 767 q 367 744 329 767 q 436 678 406 722 l 439 678 l 439 992 l 631 992 l 631 0 l 447 0 l 447 79 m 238 374 q 256 190 238 251 q 338 128 275 128 q 420 190 401 128 q 439 374 439 251 q 420 558 439 496 q 338 619 401 619 q 256 558 275 619 q 238 374 238 496 z "},"e":{"ha":643,"x_min":36,"x_max":607,"o":"m 228 344 l 228 285 q 233 220 228 251 q 249 165 238 189 q 278 126 260 140 q 322 111 296 111 q 393 146 371 111 q 424 251 415 181 l 596 251 q 526 51 590 121 q 325 -19 463 -19 q 163 17 221 -19 q 76 110 104 53 q 42 240 49 168 q 36 381 36 311 q 47 525 36 456 q 88 649 57 594 q 178 735 119 703 q 333 767 236 767 q 470 740 417 767 q 554 663 524 713 q 596 544 585 614 q 607 388 607 474 l 607 344 l 228 344 m 424 458 q 418 534 422 501 q 403 590 414 567 q 374 624 393 613 q 326 636 356 636 q 278 623 297 636 q 249 588 260 610 q 233 540 238 567 q 228 488 228 514 l 228 458 l 424 458 z "},"f":{"ha":411,"x_min":8,"x_max":408,"o":"m 106 617 l 8 617 l 8 747 l 106 747 l 106 832 q 119 917 106 882 q 159 972 133 951 q 222 1002 185 993 q 306 1011 260 1011 q 408 1007 356 1011 l 408 871 q 389 872 401 872 l 371 872 q 314 858 331 872 q 297 813 297 844 l 297 747 l 408 747 l 408 617 l 297 617 l 297 0 l 106 0 l 106 617 z "},"g":{"ha":694,"x_min":49,"x_max":624,"o":"m 240 350 q 244 276 240 311 q 258 215 247 242 q 287 172 268 188 q 336 156 306 156 q 387 172 367 156 q 419 215 407 188 q 435 283 431 243 q 440 369 440 322 q 419 563 440 506 q 340 619 397 619 q 289 606 308 619 q 258 560 269 592 q 244 477 247 529 q 240 350 240 425 m 624 747 l 624 38 q 552 -184 624 -112 q 313 -256 481 -256 q 124 -203 190 -256 q 58 -56 58 -151 l 242 -56 q 271 -112 242 -92 q 301 -128 285 -122 q 335 -133 317 -133 q 417 -95 393 -133 q 440 1 440 -57 l 440 100 l 438 100 q 366 33 408 58 q 278 8 324 8 q 106 95 164 8 q 49 386 49 182 q 56 519 49 451 q 88 642 64 588 q 159 732 113 697 q 283 767 206 767 q 367 744 324 767 q 438 664 410 722 l 440 664 l 440 747 l 624 747 z "},"h":{"ha":694,"x_min":64,"x_max":631,"o":"m 64 992 l 256 992 l 256 671 l 258 671 q 440 767 314 767 q 581 717 532 767 q 631 554 631 667 l 631 0 l 439 0 l 439 515 q 419 597 439 574 q 357 619 400 619 q 256 496 256 619 l 256 0 l 64 0 l 64 992 z "},"i":{"ha":333,"x_min":71,"x_max":263,"o":"m 71 1003 l 263 1003 l 263 839 l 71 839 l 71 1003 m 71 747 l 263 747 l 263 0 l 71 0 l 71 747 z "},"j":{"ha":333,"x_min":-35,"x_max":263,"o":"m 71 1003 l 263 1003 l 263 839 l 71 839 l 71 1003 m 71 747 l 263 747 l 263 -51 q 252 -135 263 -99 q 217 -195 242 -171 q 149 -232 192 -219 q 43 -244 107 -244 q 6 -244 26 -244 q -35 -242 -14 -243 l -35 -103 q -19 -106 -26 -106 l -4 -106 q 36 -99 21 -106 q 59 -77 51 -92 q 69 -40 67 -62 q 71 14 71 -18 l 71 747 z "},"k":{"ha":694,"x_min":71,"x_max":701,"o":"m 263 992 l 263 468 l 265 468 l 458 747 l 669 747 l 454 453 l 701 0 l 490 0 l 331 307 l 263 218 l 263 0 l 71 0 l 71 992 l 263 992 z "},"l":{"ha":333,"x_min":71,"x_max":263,"o":"m 71 992 l 263 992 l 263 0 l 71 0 l 71 992 z "},"m":{"ha":1053,"x_min":64,"x_max":989,"o":"m 64 747 l 247 747 l 247 671 l 250 671 q 331 744 286 722 q 439 767 376 767 q 551 736 506 767 q 611 647 596 706 l 614 647 q 685 737 636 707 q 803 767 735 767 q 944 709 899 767 q 989 543 989 651 l 989 0 l 797 0 l 797 522 q 780 594 797 569 q 722 619 763 619 q 649 589 676 619 q 622 492 622 558 l 622 0 l 431 0 l 431 522 q 413 594 431 569 q 356 619 396 619 q 283 589 310 619 q 256 492 256 558 l 256 0 l 64 0 l 64 747 z "},"n":{"ha":694,"x_min":64,"x_max":631,"o":"m 64 747 l 247 747 l 247 660 l 250 660 q 329 741 281 715 q 440 767 378 767 q 581 717 532 767 q 631 554 631 667 l 631 0 l 439 0 l 439 515 q 419 597 439 574 q 357 619 400 619 q 256 496 256 619 l 256 0 l 64 0 l 64 747 z "},"o":{"ha":667,"x_min":39,"x_max":628,"o":"m 39 374 q 54 543 39 469 q 104 666 69 617 q 195 741 139 715 q 333 767 251 767 q 476 744 419 768 q 567 669 533 719 q 614 545 600 619 q 628 374 628 471 q 613 204 628 278 q 563 81 597 131 q 472 6 528 32 q 333 -19 415 -19 q 190 3 247 -21 q 100 78 133 28 q 53 201 67 128 q 39 374 39 275 m 231 374 q 233 268 231 317 q 247 185 236 219 q 277 131 257 150 q 333 111 297 111 q 414 172 392 111 q 436 374 436 233 q 414 575 436 514 q 333 636 392 636 q 277 617 297 636 q 247 563 257 597 q 233 479 236 528 q 231 374 231 431 z "},"p":{"ha":694,"x_min":64,"x_max":649,"o":"m 64 747 l 247 747 l 247 668 l 250 668 q 322 744 282 721 q 419 767 361 767 q 593 674 538 767 q 649 374 649 582 q 593 73 649 165 q 419 -19 538 -19 q 327 3 365 -19 q 258 69 289 25 l 256 69 l 256 -244 l 64 -244 l 64 747 m 256 374 q 274 190 256 251 q 357 128 293 128 q 438 190 419 128 q 457 374 457 251 q 438 558 457 496 q 357 619 419 619 q 274 558 293 619 q 256 374 256 496 z "},"q":{"ha":694,"x_min":46,"x_max":631,"o":"m 439 69 l 436 69 q 367 3 406 25 q 275 -19 329 -19 q 101 73 157 -19 q 46 374 46 165 q 101 674 46 582 q 275 767 157 767 q 373 744 333 767 q 444 668 413 721 l 447 668 l 447 747 l 631 747 l 631 -244 l 439 -244 l 439 69 m 439 374 q 420 558 439 496 q 338 619 401 619 q 256 558 275 619 q 238 374 238 496 q 256 190 238 251 q 338 128 275 128 q 420 190 401 128 q 439 374 439 251 z "},"r":{"ha":463,"x_min":64,"x_max":457,"o":"m 64 747 l 247 747 l 247 647 l 250 647 q 321 734 279 701 q 422 767 363 767 q 440 766 431 767 q 457 764 449 765 l 457 581 q 427 583 442 582 q 397 583 413 583 q 347 576 372 583 q 301 553 322 569 q 268 512 281 538 q 256 449 256 486 l 256 0 l 64 0 l 64 747 z "},"s":{"ha":617,"x_min":32,"x_max":585,"o":"m 204 244 l 204 219 q 230 141 204 171 q 304 111 256 111 q 375 133 349 111 q 401 200 401 156 q 381 255 401 236 q 332 285 360 274 l 197 333 q 78 412 118 361 q 38 542 38 463 q 53 628 38 588 q 101 700 68 669 q 187 749 135 731 q 313 767 239 767 q 506 711 443 767 q 568 554 568 656 l 568 524 l 396 524 q 377 609 396 582 q 311 636 358 636 q 248 616 275 636 q 221 556 221 596 q 238 506 221 528 q 304 468 256 483 l 419 429 q 547 349 510 399 q 585 215 585 300 q 564 113 585 157 q 506 39 543 68 q 418 -5 469 10 q 307 -19 367 -19 q 172 -3 225 -19 q 88 45 119 14 q 44 120 57 76 q 32 218 32 164 l 32 244 l 204 244 z "},"t":{"ha":411,"x_min":8,"x_max":408,"o":"m 106 961 l 297 961 l 297 747 l 408 747 l 408 617 l 297 617 l 297 213 q 310 149 297 168 q 365 131 324 131 q 388 131 376 131 q 408 133 399 132 l 408 0 q 347 -6 376 -3 q 283 -8 317 -8 q 192 1 226 -8 q 138 34 157 11 q 113 94 119 57 q 106 189 106 132 l 106 617 l 8 617 l 8 747 l 106 747 l 106 961 z "},"u":{"ha":694,"x_min":64,"x_max":631,"o":"m 447 88 l 444 88 q 365 6 414 32 q 254 -19 317 -19 q 113 31 163 -19 q 64 193 64 81 l 64 747 l 256 747 l 256 232 q 275 151 256 174 q 338 128 294 128 q 439 251 439 128 l 439 747 l 631 747 l 631 0 l 447 0 l 447 88 z "},"v":{"ha":617,"x_min":7,"x_max":610,"o":"m 418 747 l 610 747 l 422 0 l 200 0 l 7 747 l 207 747 l 314 213 l 317 213 l 418 747 z "},"w":{"ha":978,"x_min":10,"x_max":968,"o":"m 10 747 l 201 747 l 289 217 l 292 217 l 385 747 l 593 747 l 692 217 l 694 217 l 785 747 l 968 747 l 807 0 l 589 0 l 490 531 l 488 531 l 394 0 l 172 0 l 10 747 z "},"x":{"ha":642,"x_min":10,"x_max":632,"o":"m 424 747 l 624 747 l 429 385 l 632 0 l 432 0 l 321 244 l 210 0 l 10 0 l 213 385 l 18 747 l 218 747 l 321 522 l 424 747 z "},"y":{"ha":617,"x_min":7,"x_max":610,"o":"m 64 -101 q 114 -106 89 -106 q 190 -78 167 -106 q 217 0 213 -50 l 7 747 l 207 747 l 318 231 l 321 231 l 418 747 l 610 747 l 429 50 q 390 -83 421 -3 q 327 -194 358 -162 q 252 -235 296 -225 q 142 -244 208 -244 l 64 -244 l 64 -101 z "},"z":{"ha":592,"x_min":33,"x_max":558,"o":"m 33 147 l 332 592 l 47 592 l 47 747 l 558 747 l 558 600 l 260 156 l 558 156 l 558 0 l 33 0 l 33 147 z "},"{":{"ha":438,"x_min":42,"x_max":401,"o":"m 42 425 q 105 457 76 425 q 133 538 133 489 l 133 806 q 170 943 133 894 q 278 992 207 992 l 401 992 l 401 853 l 360 853 q 316 823 326 853 q 306 753 306 793 l 306 522 q 278 419 306 460 q 206 369 250 378 l 206 367 q 278 317 250 358 q 306 214 306 276 l 306 -17 q 316 -87 306 -57 q 360 -117 326 -117 l 401 -117 l 401 -256 l 278 -256 q 170 -207 207 -256 q 133 -69 133 -158 l 133 199 q 105 279 133 247 q 42 311 76 311 l 42 425 z "},"|":{"ha":308,"x_min":68,"x_max":240,"o":"m 68 1011 l 240 1011 l 240 -19 l 68 -19 l 68 1011 z "},"}":{"ha":438,"x_min":36,"x_max":396,"o":"m 36 -117 l 78 -117 q 122 -87 111 -117 q 132 -17 132 -57 l 132 214 q 160 317 132 276 q 232 367 188 358 l 232 369 q 160 419 188 378 q 132 522 132 460 l 132 753 q 122 823 132 793 q 78 853 111 853 l 36 853 l 36 992 l 160 992 q 267 943 231 992 q 304 806 304 894 l 304 538 q 333 457 304 489 q 396 425 361 425 l 396 311 q 333 279 361 311 q 304 199 304 247 l 304 -69 q 267 -207 304 -158 q 160 -256 231 -256 l 36 -256 l 36 -117 z "},"~":{"ha":833,"x_min":96,"x_max":738,"o":"m 738 338 q 669 251 710 285 q 567 218 629 218 q 481 231 519 218 q 403 265 443 244 q 353 290 374 281 q 319 304 333 299 q 293 311 304 310 q 271 313 282 313 q 231 303 250 313 q 194 278 211 293 q 164 247 176 264 q 146 218 151 231 l 96 365 q 164 451 124 418 q 267 485 204 485 q 418 444 340 485 q 504 402 475 414 q 563 390 533 390 q 603 400 583 390 q 640 424 622 410 q 669 456 657 439 q 688 485 682 472 l 738 338 z "}," ":{"ha":333,"x_min":0,"x_max":0,"o":""},"À":{"ha":772,"x_min":0,"x_max":772,"o":"m 289 374 l 483 374 l 388 819 l 385 819 l 289 374 m 263 992 l 510 992 l 772 0 l 564 0 l 518 210 l 254 210 l 208 0 l 0 0 l 263 992 m 342 1050 l 206 1250 l 397 1250 l 472 1050 l 342 1050 z "},"Á":{"ha":772,"x_min":0,"x_max":772,"o":"m 289 374 l 483 374 l 388 819 l 385 819 l 289 374 m 263 992 l 510 992 l 772 0 l 564 0 l 518 210 l 254 210 l 208 0 l 0 0 l 263 992 m 369 1250 l 561 1250 l 425 1050 l 294 1050 l 369 1250 z "},"Â":{"ha":772,"x_min":0,"x_max":772,"o":"m 289 374 l 483 374 l 388 819 l 385 819 l 289 374 m 263 992 l 510 992 l 772 0 l 564 0 l 518 210 l 254 210 l 208 0 l 0 0 l 263 992 m 285 1250 l 485 1250 l 593 1050 l 446 1050 l 382 1168 l 315 1050 l 176 1050 l 285 1250 z "},"Ã":{"ha":772,"x_min":0,"x_max":772,"o":"m 289 374 l 483 374 l 388 819 l 385 819 l 289 374 m 263 992 l 510 992 l 772 0 l 564 0 l 518 210 l 254 210 l 208 0 l 0 0 l 263 992 m 168 1063 q 212 1190 179 1146 q 297 1235 244 1235 q 357 1225 336 1235 l 424 1196 q 465 1188 444 1188 q 494 1206 485 1188 q 504 1238 504 1224 l 604 1238 q 563 1114 597 1163 q 475 1065 528 1065 q 431 1073 453 1065 q 387 1089 408 1081 q 346 1105 365 1097 q 310 1113 326 1113 q 265 1063 275 1113 l 168 1063 z "},"Ä":{"ha":772,"x_min":0,"x_max":772,"o":"m 289 374 l 483 374 l 388 819 l 385 819 l 289 374 m 263 992 l 510 992 l 772 0 l 564 0 l 518 210 l 254 210 l 208 0 l 0 0 l 263 992 m 428 1235 l 583 1235 l 583 1071 l 428 1071 l 428 1235 m 189 1235 l 344 1235 l 344 1071 l 189 1071 l 189 1235 z "},"Ā":{"ha":772,"x_min":0,"x_max":772,"o":"m 289 374 l 483 374 l 388 819 l 385 819 l 289 374 m 263 992 l 510 992 l 772 0 l 564 0 l 518 210 l 254 210 l 208 0 l 0 0 l 263 992 m 590 1203 l 590 1097 l 182 1097 l 182 1203 l 590 1203 z "},"Ă":{"ha":772,"x_min":0,"x_max":772,"o":"m 289 374 l 483 374 l 388 819 l 385 819 l 289 374 m 263 992 l 510 992 l 772 0 l 564 0 l 518 210 l 254 210 l 208 0 l 0 0 l 263 992 m 283 1249 q 317 1183 288 1208 q 386 1158 346 1158 q 456 1183 426 1158 q 489 1249 485 1208 l 579 1249 q 570 1187 579 1221 q 539 1123 561 1153 q 479 1073 517 1093 q 386 1053 442 1053 q 292 1073 329 1053 q 233 1123 256 1093 q 202 1187 211 1153 q 193 1249 193 1221 l 283 1249 z "},"Å":{"ha":772,"x_min":0,"x_max":772,"o":"m 289 374 l 483 374 l 388 819 l 385 819 l 289 374 m 263 992 l 510 992 l 772 0 l 564 0 l 518 210 l 254 210 l 208 0 l 0 0 l 263 992 m 308 1172 q 331 1116 308 1139 q 388 1093 354 1093 q 444 1116 421 1093 q 467 1172 467 1139 q 444 1228 467 1206 q 388 1251 421 1251 q 331 1228 354 1251 q 308 1172 308 1206 m 231 1172 q 243 1234 231 1206 q 277 1283 256 1263 q 327 1314 299 1303 q 388 1325 356 1325 q 448 1314 419 1325 q 498 1283 476 1303 q 532 1234 519 1263 q 544 1172 544 1206 q 499 1063 544 1103 q 388 1022 453 1022 q 276 1063 321 1022 q 231 1172 231 1103 z "},"Ą":{"ha":772,"x_min":0,"x_max":772,"o":"m 685 -253 q 610 -291 646 -281 q 526 -301 575 -301 q 460 -291 486 -301 q 419 -265 433 -281 q 399 -231 404 -250 q 393 -192 393 -211 q 439 -88 393 -140 q 564 0 485 -36 l 518 210 l 254 210 l 208 0 l 0 0 l 263 992 l 510 992 l 772 0 l 657 0 q 587 -56 614 -32 q 544 -100 560 -81 q 522 -136 528 -119 q 517 -169 517 -153 q 556 -212 517 -212 q 594 -208 575 -212 q 643 -185 613 -203 l 685 -253 m 289 374 l 483 374 l 388 819 l 385 819 l 289 374 z "},"Æ":{"ha":1054,"x_min":-7,"x_max":1024,"o":"m 492 374 l 492 836 l 479 836 l 325 374 l 492 374 m 367 992 l 1010 992 l 1010 828 l 683 828 l 683 594 l 989 594 l 989 431 l 683 431 l 683 164 l 1024 164 l 1024 0 l 492 0 l 492 210 l 271 210 l 201 0 l -7 0 l 367 992 z "},"Ć":{"ha":746,"x_min":49,"x_max":701,"o":"m 493 657 q 467 815 493 765 q 374 864 442 864 q 312 844 336 864 q 274 778 288 824 q 254 660 260 733 q 249 482 249 588 q 256 300 249 369 q 280 192 264 231 q 320 141 296 154 q 376 128 344 128 q 426 137 403 128 q 465 173 449 146 q 492 249 482 200 q 501 379 501 299 l 701 379 q 689 226 701 299 q 642 99 676 154 q 547 13 608 44 q 386 -19 485 -19 q 207 19 274 -19 q 105 125 140 57 q 59 288 69 193 q 49 496 49 383 q 59 703 49 608 q 105 867 69 799 q 207 973 140 935 q 386 1011 274 1011 q 555 976 493 1011 q 647 888 617 942 q 685 773 678 835 q 693 657 693 711 l 493 657 m 383 1250 l 575 1250 l 439 1050 l 308 1050 l 383 1250 z "},"Ĉ":{"ha":746,"x_min":49,"x_max":701,"o":"m 493 657 q 467 815 493 765 q 374 864 442 864 q 312 844 336 864 q 274 778 288 824 q 254 660 260 733 q 249 482 249 588 q 256 300 249 369 q 280 192 264 231 q 320 141 296 154 q 376 128 344 128 q 426 137 403 128 q 465 173 449 146 q 492 249 482 200 q 501 379 501 299 l 701 379 q 689 226 701 299 q 642 99 676 154 q 547 13 608 44 q 386 -19 485 -19 q 207 19 274 -19 q 105 125 140 57 q 59 288 69 193 q 49 496 49 383 q 59 703 49 608 q 105 867 69 799 q 207 973 140 935 q 386 1011 274 1011 q 555 976 493 1011 q 647 888 617 942 q 685 773 678 835 q 693 657 693 711 l 493 657 m 283 1250 l 483 1250 l 592 1050 l 444 1050 l 381 1168 l 314 1050 l 175 1050 l 283 1250 z "},"Č":{"ha":746,"x_min":49,"x_max":701,"o":"m 493 657 q 467 815 493 765 q 374 864 442 864 q 312 844 336 864 q 274 778 288 824 q 254 660 260 733 q 249 482 249 588 q 256 300 249 369 q 280 192 264 231 q 320 141 296 154 q 376 128 344 128 q 426 137 403 128 q 465 173 449 146 q 492 249 482 200 q 501 379 501 299 l 701 379 q 689 226 701 299 q 642 99 676 154 q 547 13 608 44 q 386 -19 485 -19 q 207 19 274 -19 q 105 125 140 57 q 59 288 69 193 q 49 496 49 383 q 59 703 49 608 q 105 867 69 799 q 207 973 140 935 q 386 1011 274 1011 q 555 976 493 1011 q 647 888 617 942 q 685 773 678 835 q 693 657 693 711 l 493 657 m 174 1250 l 321 1250 l 385 1132 l 451 1250 l 590 1250 l 482 1050 l 282 1050 l 174 1250 z "},"Ċ":{"ha":746,"x_min":49,"x_max":701,"o":"m 493 657 q 467 815 493 765 q 374 864 442 864 q 312 844 336 864 q 274 778 288 824 q 254 660 260 733 q 249 482 249 588 q 256 300 249 369 q 280 192 264 231 q 320 141 296 154 q 376 128 344 128 q 426 137 403 128 q 465 173 449 146 q 492 249 482 200 q 501 379 501 299 l 701 379 q 689 226 701 299 q 642 99 676 154 q 547 13 608 44 q 386 -19 485 -19 q 207 19 274 -19 q 105 125 140 57 q 59 288 69 193 q 49 496 49 383 q 59 703 49 608 q 105 867 69 799 q 207 973 140 935 q 386 1011 274 1011 q 555 976 493 1011 q 647 888 617 942 q 685 773 678 835 q 693 657 693 711 l 493 657 m 460 1232 l 460 1068 l 304 1068 l 304 1232 l 460 1232 z "},"Ç":{"ha":746,"x_min":49,"x_max":701,"o":"m 493 657 q 467 815 493 765 q 374 864 442 864 q 312 844 336 864 q 274 778 288 824 q 254 660 260 733 q 249 482 249 588 q 256 300 249 369 q 280 192 264 231 q 320 141 296 154 q 376 128 344 128 q 426 137 403 128 q 465 173 449 146 q 492 249 482 200 q 501 379 501 299 l 701 379 q 695 263 701 318 q 672 159 689 207 q 624 74 654 111 q 546 13 593 36 q 410 -19 490 -15 l 369 -81 q 392 -75 382 -76 q 415 -74 403 -74 q 459 -80 438 -74 q 497 -99 481 -86 q 524 -130 514 -111 q 532 -174 533 -149 q 487 -269 532 -236 q 357 -301 442 -301 q 273 -293 311 -301 q 218 -275 235 -285 l 244 -211 q 287 -226 260 -219 q 340 -232 314 -232 q 390 -219 369 -232 q 410 -186 410 -207 q 393 -154 410 -165 q 349 -142 376 -143 q 323 -144 333 -142 q 301 -150 313 -146 l 271 -122 l 339 -17 q 207 18 258 -11 q 124 94 156 47 q 76 201 93 140 q 54 335 60 261 q 49 496 49 410 q 59 703 49 608 q 105 867 69 799 q 207 973 140 935 q 386 1011 274 1011 q 555 976 493 1011 q 647 888 617 942 q 685 773 678 835 q 693 657 693 711 l 493 657 z "},"Ď":{"ha":797,"x_min":79,"x_max":735,"o":"m 279 147 l 368 147 q 452 165 419 147 q 503 225 485 183 q 528 335 522 267 q 535 504 535 403 q 529 652 535 589 q 506 758 524 715 q 455 823 489 801 q 364 844 421 844 l 279 844 l 279 147 m 79 992 l 407 992 q 575 958 511 992 q 674 860 639 924 q 722 708 710 797 q 735 510 735 619 q 719 282 735 378 q 664 124 703 186 q 560 31 625 61 q 394 0 494 0 l 79 0 l 79 992 m 147 1250 l 294 1250 l 358 1132 l 425 1250 l 564 1250 l 456 1050 l 256 1050 l 147 1250 z "},"Đ":{"ha":797,"x_min":0,"x_max":735,"o":"m 279 585 l 408 585 l 408 438 l 279 438 l 279 147 l 368 147 q 452 165 419 147 q 503 225 485 183 q 528 335 522 267 q 535 504 535 403 q 529 652 535 589 q 506 758 524 715 q 455 823 489 801 q 364 844 421 844 l 279 844 l 279 585 m 79 438 l 0 438 l 0 585 l 79 585 l 79 992 l 407 992 q 575 958 511 992 q 674 860 639 924 q 722 708 710 797 q 735 510 735 619 q 719 282 735 378 q 664 124 703 186 q 560 31 625 61 q 394 0 494 0 l 79 0 l 79 438 z "},"Ð":{"ha":797,"x_min":0,"x_max":735,"o":"m 279 585 l 408 585 l 408 438 l 279 438 l 279 147 l 368 147 q 452 165 419 147 q 503 225 485 183 q 528 335 522 267 q 535 504 535 403 q 529 652 535 589 q 506 758 524 715 q 455 823 489 801 q 364 844 421 844 l 279 844 l 279 585 m 79 438 l 0 438 l 0 585 l 79 585 l 79 992 l 407 992 q 575 958 511 992 q 674 860 639 924 q 722 708 710 797 q 735 510 735 619 q 719 282 735 378 q 664 124 703 186 q 560 31 625 61 q 394 0 494 0 l 79 0 l 79 438 z "},"È":{"ha":668,"x_min":69,"x_max":638,"o":"m 624 992 l 624 828 l 269 828 l 269 594 l 603 594 l 603 431 l 269 431 l 269 164 l 638 164 l 638 0 l 69 0 l 69 992 l 624 992 m 313 1050 l 176 1250 l 368 1250 l 443 1050 l 313 1050 z "},"É":{"ha":668,"x_min":69,"x_max":638,"o":"m 624 992 l 624 828 l 269 828 l 269 594 l 603 594 l 603 431 l 269 431 l 269 164 l 638 164 l 638 0 l 69 0 l 69 992 l 624 992 m 351 1250 l 543 1250 l 407 1050 l 276 1050 l 351 1250 z "},"Ê":{"ha":668,"x_min":69,"x_max":638,"o":"m 624 992 l 624 828 l 269 828 l 269 594 l 603 594 l 603 431 l 269 431 l 269 164 l 638 164 l 638 0 l 69 0 l 69 992 l 624 992 m 249 1250 l 449 1250 l 557 1050 l 410 1050 l 346 1168 l 279 1050 l 140 1050 l 249 1250 z "},"Ě":{"ha":668,"x_min":69,"x_max":638,"o":"m 624 992 l 624 828 l 269 828 l 269 594 l 603 594 l 603 431 l 269 431 l 269 164 l 638 164 l 638 0 l 69 0 l 69 992 l 624 992 m 143 1250 l 290 1250 l 354 1132 l 421 1250 l 560 1250 l 451 1050 l 251 1050 l 143 1250 z "},"Ë":{"ha":668,"x_min":69,"x_max":638,"o":"m 624 992 l 624 828 l 269 828 l 269 594 l 603 594 l 603 431 l 269 431 l 269 164 l 638 164 l 638 0 l 69 0 l 69 992 l 624 992 m 386 1232 l 542 1232 l 542 1068 l 386 1068 l 386 1232 m 147 1232 l 303 1232 l 303 1068 l 147 1068 l 147 1232 z "},"Ē":{"ha":668,"x_min":69,"x_max":638,"o":"m 624 992 l 624 828 l 269 828 l 269 594 l 603 594 l 603 431 l 269 431 l 269 164 l 638 164 l 638 0 l 69 0 l 69 992 l 624 992 m 553 1203 l 553 1097 l 144 1097 l 144 1203 l 553 1203 z "},"Ĕ":{"ha":668,"x_min":69,"x_max":638,"o":"m 624 992 l 624 828 l 269 828 l 269 594 l 603 594 l 603 431 l 269 431 l 269 164 l 638 164 l 638 0 l 69 0 l 69 992 l 624 992 m 240 1249 q 274 1183 244 1208 q 343 1158 303 1158 q 413 1183 383 1158 q 446 1249 442 1208 l 536 1249 q 527 1187 536 1221 q 496 1123 518 1153 q 436 1073 474 1093 q 343 1053 399 1053 q 249 1073 286 1053 q 190 1123 213 1093 q 159 1187 168 1153 q 150 1249 150 1221 l 240 1249 z "},"Ė":{"ha":668,"x_min":69,"x_max":638,"o":"m 624 992 l 624 828 l 269 828 l 269 594 l 603 594 l 603 431 l 269 431 l 269 164 l 638 164 l 638 0 l 69 0 l 69 992 l 624 992 m 428 1232 l 428 1068 l 272 1068 l 272 1232 l 428 1232 z "},"Ę":{"ha":668,"x_min":69,"x_max":638,"o":"m 638 -253 q 563 -291 599 -281 q 479 -301 528 -301 q 413 -291 439 -301 q 372 -265 386 -281 q 351 -231 357 -250 q 346 -192 346 -211 q 392 -88 346 -140 q 517 0 438 -36 l 69 0 l 69 992 l 624 992 l 624 828 l 269 828 l 269 594 l 603 594 l 603 431 l 269 431 l 269 164 l 638 164 l 638 0 l 610 0 q 540 -56 567 -32 q 497 -100 513 -81 q 475 -136 481 -119 q 469 -169 469 -153 q 508 -212 469 -212 q 547 -208 528 -212 q 596 -185 565 -203 l 638 -253 z "},"Ĝ":{"ha":772,"x_min":60,"x_max":713,"o":"m 510 697 q 503 753 510 724 q 483 808 497 783 q 448 848 469 832 q 396 864 426 864 q 292 783 324 864 q 260 517 260 703 q 265 355 260 426 q 285 233 271 283 q 327 155 300 182 q 397 128 354 128 q 437 138 415 128 q 477 167 458 147 q 508 216 496 186 q 521 286 521 246 l 521 388 l 389 388 l 389 535 l 713 535 l 713 0 l 565 0 l 565 92 l 563 92 q 476 7 526 33 q 354 -19 425 -19 q 205 15 263 -19 q 115 115 147 49 q 71 280 82 182 q 60 507 60 378 q 76 726 60 632 q 131 884 92 821 q 233 979 169 947 q 393 1011 297 1011 q 629 930 557 1011 q 701 697 701 849 l 510 697 m 299 1250 l 499 1250 l 607 1050 l 460 1050 l 396 1168 l 329 1050 l 190 1050 l 299 1250 z "},"Ğ":{"ha":772,"x_min":60,"x_max":713,"o":"m 510 697 q 503 753 510 724 q 483 808 497 783 q 448 848 469 832 q 396 864 426 864 q 292 783 324 864 q 260 517 260 703 q 265 355 260 426 q 285 233 271 283 q 327 155 300 182 q 397 128 354 128 q 437 138 415 128 q 477 167 458 147 q 508 216 496 186 q 521 286 521 246 l 521 388 l 389 388 l 389 535 l 713 535 l 713 0 l 565 0 l 565 92 l 563 92 q 476 7 526 33 q 354 -19 425 -19 q 205 15 263 -19 q 115 115 147 49 q 71 280 82 182 q 60 507 60 378 q 76 726 60 632 q 131 884 92 821 q 233 979 169 947 q 393 1011 297 1011 q 629 930 557 1011 q 701 697 701 849 l 510 697 m 292 1249 q 325 1183 296 1208 q 394 1158 354 1158 q 464 1183 435 1158 q 497 1249 493 1208 l 588 1249 q 578 1187 588 1221 q 547 1123 569 1153 q 488 1073 525 1093 q 394 1053 450 1053 q 301 1073 338 1053 q 242 1123 264 1093 q 210 1187 219 1153 q 201 1249 201 1221 l 292 1249 z "},"Ġ":{"ha":772,"x_min":60,"x_max":713,"o":"m 510 697 q 503 753 510 724 q 483 808 497 783 q 448 848 469 832 q 396 864 426 864 q 292 783 324 864 q 260 517 260 703 q 265 355 260 426 q 285 233 271 283 q 327 155 300 182 q 397 128 354 128 q 437 138 415 128 q 477 167 458 147 q 508 216 496 186 q 521 286 521 246 l 521 388 l 389 388 l 389 535 l 713 535 l 713 0 l 565 0 l 565 92 l 563 92 q 476 7 526 33 q 354 -19 425 -19 q 205 15 263 -19 q 115 115 147 49 q 71 280 82 182 q 60 507 60 378 q 76 726 60 632 q 131 884 92 821 q 233 979 169 947 q 393 1011 297 1011 q 629 930 557 1011 q 701 697 701 849 l 510 697 m 475 1232 l 475 1068 l 319 1068 l 319 1232 l 475 1232 z "},"Ģ":{"ha":772,"x_min":60,"x_max":713,"o":"m 510 697 q 503 753 510 724 q 483 808 497 783 q 448 848 469 832 q 396 864 426 864 q 292 783 324 864 q 260 517 260 703 q 265 355 260 426 q 285 233 271 283 q 327 155 300 182 q 397 128 354 128 q 437 138 415 128 q 477 167 458 147 q 508 216 496 186 q 521 286 521 246 l 521 388 l 389 388 l 389 535 l 713 535 l 713 0 l 565 0 l 565 92 l 563 92 q 476 7 526 33 q 354 -19 425 -19 q 205 15 263 -19 q 115 115 147 49 q 71 280 82 182 q 60 507 60 378 q 76 726 60 632 q 131 884 92 821 q 233 979 169 947 q 393 1011 297 1011 q 629 930 557 1011 q 701 697 701 849 l 510 697 m 468 -69 l 468 -204 q 456 -279 468 -251 q 425 -322 444 -307 q 381 -343 406 -337 q 333 -351 357 -349 l 333 -301 q 369 -280 357 -294 q 383 -233 382 -265 l 313 -233 l 313 -69 l 468 -69 z "},"Ĥ":{"ha":772,"x_min":69,"x_max":703,"o":"m 69 992 l 269 992 l 269 613 l 503 613 l 503 992 l 703 992 l 703 0 l 503 0 l 503 440 l 269 440 l 269 0 l 69 0 l 69 992 m 288 1250 l 488 1250 l 596 1050 l 449 1050 l 385 1168 l 318 1050 l 179 1050 l 288 1250 z "},"Ħ":{"ha":772,"x_min":69,"x_max":703,"o":"m 69 992 l 269 992 l 269 789 l 503 789 l 503 992 l 703 992 l 703 0 l 503 0 l 503 417 l 269 417 l 269 0 l 69 0 l 69 992 m 503 583 l 503 704 l 269 704 l 269 583 l 503 583 z "},"Ì":{"ha":358,"x_min":14,"x_max":281,"o":"m 79 0 l 79 992 l 279 992 l 279 0 l 79 0 m 150 1050 l 14 1250 l 206 1250 l 281 1050 l 150 1050 z "},"Í":{"ha":358,"x_min":79,"x_max":347,"o":"m 79 0 l 79 992 l 279 992 l 279 0 l 79 0 m 156 1250 l 347 1250 l 211 1050 l 81 1050 l 156 1250 z "},"Î":{"ha":358,"x_min":-26,"x_max":390,"o":"m 79 0 l 79 992 l 279 992 l 279 0 l 79 0 m 82 1250 l 282 1250 l 390 1050 l 243 1050 l 179 1168 l 113 1050 l -26 1050 l 82 1250 z "},"Ĩ":{"ha":358,"x_min":-37,"x_max":399,"o":"m 79 0 l 79 992 l 279 992 l 279 0 l 79 0 m -37 1063 q 6 1190 -26 1146 q 92 1235 39 1235 q 151 1225 131 1235 l 218 1196 q 260 1188 239 1188 q 289 1206 279 1188 q 299 1238 299 1224 l 399 1238 q 357 1114 392 1163 q 269 1065 322 1065 q 225 1073 247 1065 q 181 1089 203 1081 q 140 1105 160 1097 q 104 1113 121 1113 q 60 1063 69 1113 l -37 1063 z "},"Ï":{"ha":358,"x_min":-17,"x_max":378,"o":"m 79 0 l 79 992 l 279 992 l 279 0 l 79 0 m 222 1232 l 378 1232 l 378 1068 l 222 1068 l 222 1232 m -17 1232 l 139 1232 l 139 1068 l -17 1068 l -17 1232 z "},"Ī":{"ha":358,"x_min":-24,"x_max":385,"o":"m 79 0 l 79 992 l 279 992 l 279 0 l 79 0 m 385 1203 l 385 1097 l -24 1097 l -24 1203 l 385 1203 z "},"İ":{"ha":358,"x_min":79,"x_max":279,"o":"m 79 0 l 79 992 l 279 992 l 279 0 l 79 0 m 257 1232 l 257 1068 l 101 1068 l 101 1232 l 257 1232 z "},"Į":{"ha":358,"x_min":15,"x_max":307,"o":"m 307 -253 q 233 -291 268 -281 q 149 -301 197 -301 q 82 -291 108 -301 q 41 -265 56 -281 q 21 -231 26 -250 q 15 -192 15 -211 q 61 -88 15 -140 q 186 0 107 -36 l 79 0 l 79 992 l 279 992 l 279 0 q 209 -56 236 -32 q 166 -100 182 -81 q 144 -136 150 -119 q 139 -169 139 -153 q 178 -212 139 -212 q 216 -208 197 -212 q 265 -185 235 -203 l 307 -253 z "},"Ĵ":{"ha":643,"x_min":21,"x_max":689,"o":"m 582 992 l 582 278 q 508 50 582 119 q 283 -19 435 -19 q 153 4 204 -19 q 73 67 103 28 q 32 160 43 107 q 21 271 21 213 l 21 314 l 204 314 l 204 283 q 222 166 204 204 q 293 128 239 128 q 365 166 347 128 q 382 283 382 204 l 382 992 l 582 992 m 381 1250 l 581 1250 l 689 1050 l 542 1050 l 478 1168 l 411 1050 l 272 1050 l 381 1250 z "},"Ķ":{"ha":746,"x_min":69,"x_max":772,"o":"m 269 992 l 269 594 l 272 594 l 525 992 l 742 992 l 472 567 l 772 0 l 547 0 l 343 407 l 269 294 l 269 0 l 69 0 l 69 992 l 269 992 m 479 -69 l 479 -204 q 467 -279 479 -251 q 436 -322 456 -307 q 392 -343 417 -337 q 344 -351 368 -349 l 344 -301 q 381 -280 368 -294 q 394 -233 393 -265 l 324 -233 l 324 -69 l 479 -69 z "},"Ĺ":{"ha":643,"x_min":69,"x_max":624,"o":"m 69 0 l 69 992 l 269 992 l 269 164 l 624 164 l 624 0 l 69 0 m 172 1250 l 364 1250 l 228 1050 l 97 1050 l 172 1250 z "},"Ľ":{"ha":643,"x_min":69,"x_max":624,"o":"m 69 0 l 69 992 l 269 992 l 269 164 l 624 164 l 624 0 l 69 0 m 386 992 l 553 992 l 465 792 l 340 792 l 386 992 z "},"Ļ":{"ha":643,"x_min":69,"x_max":624,"o":"m 69 0 l 69 992 l 269 992 l 269 164 l 624 164 l 624 0 l 69 0 m 429 -69 l 429 -204 q 417 -279 429 -251 q 386 -322 406 -307 q 342 -343 367 -337 q 294 -351 318 -349 l 294 -301 q 331 -280 318 -294 q 344 -233 343 -265 l 274 -233 l 274 -69 l 429 -69 z "},"Ł":{"ha":643,"x_min":0,"x_max":624,"o":"m 69 356 l 0 313 l 0 460 l 69 503 l 69 992 l 269 992 l 269 628 l 444 738 l 444 590 l 269 481 l 269 164 l 624 164 l 624 0 l 69 0 l 69 356 z "},"Ŀ":{"ha":643,"x_min":69,"x_max":624,"o":"m 69 0 l 69 992 l 269 992 l 269 164 l 624 164 l 624 0 l 69 0 m 526 749 l 526 585 l 371 585 l 371 749 l 526 749 z "},"Ń":{"ha":797,"x_min":69,"x_max":728,"o":"m 300 992 l 542 313 l 544 313 l 544 992 l 728 992 l 728 0 l 500 0 l 256 694 l 253 694 l 253 0 l 69 0 l 69 992 l 300 992 m 406 1250 l 597 1250 l 461 1050 l 331 1050 l 406 1250 z "},"Ň":{"ha":797,"x_min":69,"x_max":728,"o":"m 300 992 l 542 313 l 544 313 l 544 992 l 728 992 l 728 0 l 500 0 l 256 694 l 253 694 l 253 0 l 69 0 l 69 992 l 300 992 m 190 1250 l 338 1250 l 401 1132 l 468 1250 l 607 1250 l 499 1050 l 299 1050 l 190 1250 z "},"Ñ":{"ha":797,"x_min":69,"x_max":728,"o":"m 300 992 l 542 313 l 544 313 l 544 992 l 728 992 l 728 0 l 500 0 l 256 694 l 253 694 l 253 0 l 69 0 l 69 992 l 300 992 m 183 1063 q 227 1190 194 1146 q 313 1235 260 1235 q 372 1225 351 1235 l 439 1196 q 481 1188 460 1188 q 510 1206 500 1188 q 519 1238 519 1224 l 619 1238 q 578 1114 613 1163 q 490 1065 543 1065 q 446 1073 468 1065 q 402 1089 424 1081 q 361 1105 381 1097 q 325 1113 342 1113 q 281 1063 290 1113 l 183 1063 z "},"Ņ":{"ha":797,"x_min":69,"x_max":728,"o":"m 300 992 l 542 313 l 544 313 l 544 992 l 728 992 l 728 0 l 500 0 l 256 694 l 253 694 l 253 0 l 69 0 l 69 992 l 300 992 m 478 -69 l 478 -204 q 466 -279 478 -251 q 435 -322 454 -307 q 391 -343 415 -337 q 343 -351 367 -349 l 343 -301 q 379 -280 367 -294 q 393 -233 392 -265 l 322 -233 l 322 -69 l 478 -69 z "},"Ò":{"ha":772,"x_min":49,"x_max":724,"o":"m 49 496 q 59 703 49 608 q 105 867 69 799 q 207 973 140 935 q 386 1011 274 1011 q 565 973 499 1011 q 667 867 632 935 q 713 703 703 799 q 724 496 724 608 q 713 288 724 383 q 667 125 703 193 q 565 19 632 57 q 386 -19 499 -19 q 207 19 274 -19 q 105 125 140 57 q 59 288 69 193 q 49 496 49 383 m 249 496 q 253 326 249 396 q 273 212 258 256 q 315 148 288 168 q 386 128 342 128 q 458 148 431 128 q 499 212 485 168 q 519 326 514 256 q 524 496 524 396 q 519 665 524 596 q 499 779 514 735 q 458 844 485 824 q 386 864 431 864 q 315 844 342 864 q 273 779 288 824 q 253 665 258 735 q 249 496 249 596 m 342 1050 l 206 1250 l 397 1250 l 472 1050 l 342 1050 z "},"Ó":{"ha":772,"x_min":49,"x_max":724,"o":"m 49 496 q 59 703 49 608 q 105 867 69 799 q 207 973 140 935 q 386 1011 274 1011 q 565 973 499 1011 q 667 867 632 935 q 713 703 703 799 q 724 496 724 608 q 713 288 724 383 q 667 125 703 193 q 565 19 632 57 q 386 -19 499 -19 q 207 19 274 -19 q 105 125 140 57 q 59 288 69 193 q 49 496 49 383 m 249 496 q 253 326 249 396 q 273 212 258 256 q 315 148 288 168 q 386 128 342 128 q 458 148 431 128 q 499 212 485 168 q 519 326 514 256 q 524 496 524 396 q 519 665 524 596 q 499 779 514 735 q 458 844 485 824 q 386 864 431 864 q 315 844 342 864 q 273 779 288 824 q 253 665 258 735 q 249 496 249 596 m 390 1250 l 582 1250 l 446 1050 l 315 1050 l 390 1250 z "},"Ô":{"ha":772,"x_min":49,"x_max":724,"o":"m 49 496 q 59 703 49 608 q 105 867 69 799 q 207 973 140 935 q 386 1011 274 1011 q 565 973 499 1011 q 667 867 632 935 q 713 703 703 799 q 724 496 724 608 q 713 288 724 383 q 667 125 703 193 q 565 19 632 57 q 386 -19 499 -19 q 207 19 274 -19 q 105 125 140 57 q 59 288 69 193 q 49 496 49 383 m 249 496 q 253 326 249 396 q 273 212 258 256 q 315 148 288 168 q 386 128 342 128 q 458 148 431 128 q 499 212 485 168 q 519 326 514 256 q 524 496 524 396 q 519 665 524 596 q 499 779 514 735 q 458 844 485 824 q 386 864 431 864 q 315 844 342 864 q 273 779 288 824 q 253 665 258 735 q 249 496 249 596 m 289 1250 l 489 1250 l 597 1050 l 450 1050 l 386 1168 l 319 1050 l 181 1050 l 289 1250 z "},"Õ":{"ha":772,"x_min":49,"x_max":724,"o":"m 49 496 q 59 703 49 608 q 105 867 69 799 q 207 973 140 935 q 386 1011 274 1011 q 565 973 499 1011 q 667 867 632 935 q 713 703 703 799 q 724 496 724 608 q 713 288 724 383 q 667 125 703 193 q 565 19 632 57 q 386 -19 499 -19 q 207 19 274 -19 q 105 125 140 57 q 59 288 69 193 q 49 496 49 383 m 249 496 q 253 326 249 396 q 273 212 258 256 q 315 148 288 168 q 386 128 342 128 q 458 148 431 128 q 499 212 485 168 q 519 326 514 256 q 524 496 524 396 q 519 665 524 596 q 499 779 514 735 q 458 844 485 824 q 386 864 431 864 q 315 844 342 864 q 273 779 288 824 q 253 665 258 735 q 249 496 249 596 m 167 1063 q 210 1190 178 1146 q 296 1235 243 1235 q 356 1225 335 1235 l 422 1196 q 464 1188 443 1188 q 493 1206 483 1188 q 503 1238 503 1224 l 603 1238 q 561 1114 596 1163 q 474 1065 526 1065 q 429 1073 451 1065 q 385 1089 407 1081 q 344 1105 364 1097 q 308 1113 325 1113 q 264 1063 274 1113 l 167 1063 z "},"Ö":{"ha":772,"x_min":49,"x_max":724,"o":"m 49 496 q 59 703 49 608 q 105 867 69 799 q 207 973 140 935 q 386 1011 274 1011 q 565 973 499 1011 q 667 867 632 935 q 713 703 703 799 q 724 496 724 608 q 713 288 724 383 q 667 125 703 193 q 565 19 632 57 q 386 -19 499 -19 q 207 19 274 -19 q 105 125 140 57 q 59 288 69 193 q 49 496 49 383 m 249 496 q 253 326 249 396 q 273 212 258 256 q 315 148 288 168 q 386 128 342 128 q 458 148 431 128 q 499 212 485 168 q 519 326 514 256 q 524 496 524 396 q 519 665 524 596 q 499 779 514 735 q 458 844 485 824 q 386 864 431 864 q 315 844 342 864 q 273 779 288 824 q 253 665 258 735 q 249 496 249 596 m 429 1232 l 585 1232 l 585 1068 l 429 1068 l 429 1232 m 190 1232 l 346 1232 l 346 1068 l 190 1068 l 190 1232 z "},"Ō":{"ha":772,"x_min":49,"x_max":724,"o":"m 49 496 q 59 703 49 608 q 105 867 69 799 q 207 973 140 935 q 386 1011 274 1011 q 565 973 499 1011 q 667 867 632 935 q 713 703 703 799 q 724 496 724 608 q 713 288 724 383 q 667 125 703 193 q 565 19 632 57 q 386 -19 499 -19 q 207 19 274 -19 q 105 125 140 57 q 59 288 69 193 q 49 496 49 383 m 249 496 q 253 326 249 396 q 273 212 258 256 q 315 148 288 168 q 386 128 342 128 q 458 148 431 128 q 499 212 485 168 q 519 326 514 256 q 524 496 524 396 q 519 665 524 596 q 499 779 514 735 q 458 844 485 824 q 386 864 431 864 q 315 844 342 864 q 273 779 288 824 q 253 665 258 735 q 249 496 249 596 m 589 1203 l 589 1097 l 181 1097 l 181 1203 l 589 1203 z "},"Ŏ":{"ha":772,"x_min":49,"x_max":724,"o":"m 49 496 q 59 703 49 608 q 105 867 69 799 q 207 973 140 935 q 386 1011 274 1011 q 565 973 499 1011 q 667 867 632 935 q 713 703 703 799 q 724 496 724 608 q 713 288 724 383 q 667 125 703 193 q 565 19 632 57 q 386 -19 499 -19 q 207 19 274 -19 q 105 125 140 57 q 59 288 69 193 q 49 496 49 383 m 249 496 q 253 326 249 396 q 273 212 258 256 q 315 148 288 168 q 386 128 342 128 q 458 148 431 128 q 499 212 485 168 q 519 326 514 256 q 524 496 524 396 q 519 665 524 596 q 499 779 514 735 q 458 844 485 824 q 386 864 431 864 q 315 844 342 864 q 273 779 288 824 q 253 665 258 735 q 249 496 249 596 m 282 1249 q 315 1183 286 1208 q 385 1158 344 1158 q 454 1183 425 1158 q 488 1249 483 1208 l 578 1249 q 569 1187 578 1221 q 538 1123 560 1153 q 478 1073 515 1093 q 385 1053 440 1053 q 291 1073 328 1053 q 232 1123 254 1093 q 201 1187 210 1153 q 192 1249 192 1221 l 282 1249 z "},"Ő":{"ha":772,"x_min":49,"x_max":724,"o":"m 49 496 q 59 703 49 608 q 105 867 69 799 q 207 973 140 935 q 386 1011 274 1011 q 565 973 499 1011 q 667 867 632 935 q 713 703 703 799 q 724 496 724 608 q 713 288 724 383 q 667 125 703 193 q 565 19 632 57 q 386 -19 499 -19 q 207 19 274 -19 q 105 125 140 57 q 59 288 69 193 q 49 496 49 383 m 249 496 q 253 326 249 396 q 273 212 258 256 q 315 148 288 168 q 386 128 342 128 q 458 148 431 128 q 499 212 485 168 q 519 326 514 256 q 524 496 524 396 q 519 665 524 596 q 499 779 514 735 q 458 844 485 824 q 386 864 431 864 q 315 844 342 864 q 273 779 288 824 q 253 665 258 735 q 249 496 249 596 m 506 1250 l 697 1250 l 561 1050 l 431 1050 l 506 1250 m 275 1250 l 467 1250 l 331 1050 l 200 1050 l 275 1250 z "},"Ø":{"ha":772,"x_min":49,"x_max":724,"o":"m 157 56 q 101 133 122 88 q 68 234 79 178 q 53 356 57 290 q 49 496 49 422 q 59 703 49 608 q 105 867 69 799 q 207 973 140 935 q 386 1011 274 1011 q 554 978 488 1011 l 590 1063 l 657 1033 l 615 936 q 672 859 650 904 q 704 758 693 814 q 719 635 715 701 q 724 496 724 569 q 713 288 724 383 q 667 125 703 193 q 565 19 632 57 q 386 -19 499 -19 q 218 14 282 -19 l 182 -71 l 115 -42 l 157 56 m 289 179 q 386 128 315 128 q 458 148 431 128 q 499 212 485 168 q 519 326 514 256 q 524 496 524 396 q 522 610 524 560 q 515 701 521 661 l 513 701 l 289 179 m 483 814 q 386 864 451 864 q 315 844 342 864 q 273 779 288 824 q 253 665 258 735 q 249 496 249 596 q 250 379 249 429 q 257 290 251 329 l 260 290 l 483 814 z "},"Œ":{"ha":1081,"x_min":49,"x_max":1050,"o":"m 249 496 q 253 327 249 397 q 272 213 257 257 q 313 148 286 168 q 386 128 340 128 q 456 146 431 128 q 493 207 481 164 q 508 321 506 250 q 511 496 511 392 q 508 671 511 600 q 493 785 506 742 q 456 846 481 828 q 386 864 431 864 q 313 844 340 864 q 272 779 286 824 q 253 665 257 735 q 249 496 249 594 m 1039 828 l 703 828 l 703 594 l 1018 594 l 1018 431 l 703 431 l 703 164 l 1050 164 l 1050 0 l 532 0 l 532 57 l 529 57 q 503 24 521 39 q 460 0 485 10 q 410 -15 436 -10 q 358 -19 383 -19 q 188 26 250 -19 q 94 144 125 71 q 56 313 64 218 q 49 507 49 408 q 59 694 49 603 q 101 856 69 785 q 192 969 133 926 q 349 1011 251 1011 q 453 996 401 1011 q 529 939 504 981 l 532 939 l 532 992 l 1039 992 l 1039 828 z "},"Ŕ":{"ha":772,"x_min":69,"x_max":742,"o":"m 69 992 l 439 992 q 633 928 564 992 q 703 736 703 865 q 663 573 703 636 q 538 492 622 510 l 538 489 q 619 463 589 482 q 667 409 650 444 q 690 319 683 374 q 697 186 696 265 q 706 65 699 107 q 742 8 714 24 l 742 0 l 525 0 q 506 48 510 21 q 500 104 501 75 l 494 294 q 465 386 492 353 q 376 419 439 419 l 269 419 l 269 0 l 69 0 l 69 992 m 269 558 l 353 558 q 464 592 425 558 q 503 707 503 626 q 364 844 503 844 l 269 844 l 269 558 m 346 1250 l 538 1250 l 401 1050 l 271 1050 l 346 1250 z "},"Ř":{"ha":772,"x_min":69,"x_max":742,"o":"m 69 992 l 439 992 q 633 928 564 992 q 703 736 703 865 q 663 573 703 636 q 538 492 622 510 l 538 489 q 619 463 589 482 q 667 409 650 444 q 690 319 683 374 q 697 186 696 265 q 706 65 699 107 q 742 8 714 24 l 742 0 l 525 0 q 506 48 510 21 q 500 104 501 75 l 494 294 q 465 386 492 353 q 376 419 439 419 l 269 419 l 269 0 l 69 0 l 69 992 m 269 558 l 353 558 q 464 592 425 558 q 503 707 503 626 q 364 844 503 844 l 269 844 l 269 558 m 150 1250 l 297 1250 l 361 1132 l 428 1250 l 567 1250 l 458 1050 l 258 1050 l 150 1250 z "},"Ŗ":{"ha":772,"x_min":69,"x_max":742,"o":"m 69 992 l 439 992 q 633 928 564 992 q 703 736 703 865 q 663 573 703 636 q 538 492 622 510 l 538 489 q 619 463 589 482 q 667 409 650 444 q 690 319 683 374 q 697 186 696 265 q 706 65 699 107 q 742 8 714 24 l 742 0 l 525 0 q 506 48 510 21 q 500 104 501 75 l 494 294 q 465 386 492 353 q 376 419 439 419 l 269 419 l 269 0 l 69 0 l 69 992 m 269 558 l 353 558 q 464 592 425 558 q 503 707 503 626 q 364 844 503 844 l 269 844 l 269 558 m 475 -69 l 475 -204 q 463 -279 475 -251 q 432 -322 451 -307 q 388 -343 413 -337 q 340 -351 364 -349 l 340 -301 q 376 -280 364 -294 q 390 -233 389 -265 l 319 -233 l 319 -69 l 475 -69 z "},"Ś":{"ha":721,"x_min":31,"x_max":690,"o":"m 231 310 l 231 281 q 236 217 231 246 q 257 169 242 189 q 297 139 272 150 q 363 128 322 128 q 445 158 408 128 q 482 250 482 188 q 473 308 482 283 q 443 351 464 332 q 388 387 422 371 q 304 419 354 403 q 189 468 238 442 q 108 530 140 494 q 60 612 75 565 q 44 719 44 658 q 126 939 44 867 q 351 1011 208 1011 q 474 997 418 1011 q 572 949 531 982 q 635 866 613 917 q 658 744 658 815 l 658 717 l 467 717 q 442 826 467 788 q 358 864 417 864 q 303 854 325 864 q 267 828 281 844 q 249 792 254 813 q 244 749 244 771 q 264 672 244 703 q 347 614 283 640 l 501 547 q 594 495 557 522 q 652 437 631 468 q 682 368 674 406 q 690 285 690 331 q 599 54 690 128 q 346 -19 508 -19 q 103 56 176 -19 q 31 269 31 132 l 31 310 l 231 310 m 363 1250 l 554 1250 l 418 1050 l 288 1050 l 363 1250 z "},"Ŝ":{"ha":721,"x_min":31,"x_max":690,"o":"m 231 310 l 231 281 q 236 217 231 246 q 257 169 242 189 q 297 139 272 150 q 363 128 322 128 q 445 158 408 128 q 482 250 482 188 q 473 308 482 283 q 443 351 464 332 q 388 387 422 371 q 304 419 354 403 q 189 468 238 442 q 108 530 140 494 q 60 612 75 565 q 44 719 44 658 q 126 939 44 867 q 351 1011 208 1011 q 474 997 418 1011 q 572 949 531 982 q 635 866 613 917 q 658 744 658 815 l 658 717 l 467 717 q 442 826 467 788 q 358 864 417 864 q 303 854 325 864 q 267 828 281 844 q 249 792 254 813 q 244 749 244 771 q 264 672 244 703 q 347 614 283 640 l 501 547 q 594 495 557 522 q 652 437 631 468 q 682 368 674 406 q 690 285 690 331 q 599 54 690 128 q 346 -19 508 -19 q 103 56 176 -19 q 31 269 31 132 l 31 310 l 231 310 m 260 1250 l 460 1250 l 568 1050 l 421 1050 l 357 1168 l 290 1050 l 151 1050 l 260 1250 z "},"Š":{"ha":721,"x_min":31,"x_max":690,"o":"m 231 310 l 231 281 q 236 217 231 246 q 257 169 242 189 q 297 139 272 150 q 363 128 322 128 q 445 158 408 128 q 482 250 482 188 q 473 308 482 283 q 443 351 464 332 q 388 387 422 371 q 304 419 354 403 q 189 468 238 442 q 108 530 140 494 q 60 612 75 565 q 44 719 44 658 q 126 939 44 867 q 351 1011 208 1011 q 474 997 418 1011 q 572 949 531 982 q 635 866 613 917 q 658 744 658 815 l 658 717 l 467 717 q 442 826 467 788 q 358 864 417 864 q 303 854 325 864 q 267 828 281 844 q 249 792 254 813 q 244 749 244 771 q 264 672 244 703 q 347 614 283 640 l 501 547 q 594 495 557 522 q 652 437 631 468 q 682 368 674 406 q 690 285 690 331 q 599 54 690 128 q 346 -19 508 -19 q 103 56 176 -19 q 31 269 31 132 l 31 310 l 231 310 m 149 1253 l 296 1253 l 360 1135 l 426 1253 l 565 1253 l 457 1053 l 257 1053 l 149 1253 z "},"Ş":{"ha":721,"x_min":31,"x_max":690,"o":"m 231 310 l 231 281 q 236 217 231 246 q 257 169 242 189 q 297 139 272 150 q 363 128 322 128 q 445 158 408 128 q 482 250 482 188 q 473 308 482 283 q 443 351 464 332 q 388 387 422 371 q 304 419 354 403 q 189 468 238 442 q 108 530 140 494 q 60 612 75 565 q 44 719 44 658 q 126 939 44 867 q 351 1011 208 1011 q 474 997 418 1011 q 572 949 531 982 q 635 866 613 917 q 658 744 658 815 l 658 717 l 467 717 q 442 826 467 788 q 358 864 417 864 q 303 854 325 864 q 267 828 281 844 q 249 792 254 813 q 244 749 244 771 q 264 672 244 703 q 347 614 283 640 l 501 547 q 594 495 557 522 q 652 437 631 468 q 682 368 674 406 q 690 285 690 331 q 599 54 690 128 q 368 -19 515 -12 l 328 -81 q 351 -75 340 -76 q 374 -74 361 -74 q 417 -80 396 -74 q 456 -99 439 -86 q 482 -130 472 -111 q 490 -174 492 -149 q 445 -269 490 -236 q 315 -301 400 -301 q 231 -293 269 -301 q 176 -275 193 -285 l 203 -211 q 245 -226 218 -219 q 299 -232 272 -232 q 348 -219 328 -232 q 368 -186 368 -207 q 351 -154 368 -165 q 307 -142 335 -143 q 281 -144 292 -142 q 260 -150 271 -146 l 229 -122 l 296 -18 q 103 56 167 -8 q 31 269 31 132 l 31 310 l 231 310 z "},"Ș":{"ha":721,"x_min":31,"x_max":690,"o":"m 231 310 l 231 281 q 236 217 231 246 q 257 169 242 189 q 297 139 272 150 q 363 128 322 128 q 445 158 408 128 q 482 250 482 188 q 473 308 482 283 q 443 351 464 332 q 388 387 422 371 q 304 419 354 403 q 189 468 238 442 q 108 530 140 494 q 60 612 75 565 q 44 719 44 658 q 126 939 44 867 q 351 1011 208 1011 q 474 997 418 1011 q 572 949 531 982 q 635 866 613 917 q 658 744 658 815 l 658 717 l 467 717 q 442 826 467 788 q 358 864 417 864 q 303 854 325 864 q 267 828 281 844 q 249 792 254 813 q 244 749 244 771 q 264 672 244 703 q 347 614 283 640 l 501 547 q 594 495 557 522 q 652 437 631 468 q 682 368 674 406 q 690 285 690 331 q 599 54 690 128 q 346 -19 508 -19 q 103 56 176 -19 q 31 269 31 132 l 31 310 l 231 310 m 431 -69 l 431 -204 q 419 -279 431 -251 q 388 -322 407 -307 q 344 -343 368 -337 q 296 -351 319 -349 l 296 -301 q 332 -280 319 -294 q 346 -233 344 -265 l 275 -233 l 275 -69 l 431 -69 z "},"Ť":{"ha":667,"x_min":17,"x_max":650,"o":"m 650 992 l 650 828 l 433 828 l 433 0 l 233 0 l 233 828 l 17 828 l 17 992 l 650 992 m 126 1250 l 274 1250 l 338 1132 l 404 1250 l 543 1250 l 435 1050 l 235 1050 l 126 1250 z "},"Ţ":{"ha":667,"x_min":17,"x_max":650,"o":"m 650 992 l 650 828 l 433 828 l 433 0 l 233 0 l 233 828 l 17 828 l 17 992 l 650 992 m 413 -69 l 413 -204 q 401 -279 413 -251 q 369 -322 389 -307 q 326 -343 350 -337 q 278 -351 301 -349 l 278 -301 q 314 -280 301 -294 q 328 -233 326 -265 l 257 -233 l 257 -69 l 413 -69 z "},"Ț":{"ha":667,"x_min":17,"x_max":650,"o":"m 650 992 l 650 828 l 433 828 l 433 0 l 233 0 l 233 828 l 17 828 l 17 992 l 650 992 m 413 -69 l 413 -204 q 401 -279 413 -251 q 369 -322 389 -307 q 326 -343 350 -337 q 278 -351 301 -349 l 278 -301 q 314 -280 301 -294 q 328 -233 326 -265 l 257 -233 l 257 -69 l 413 -69 z "},"Ŧ":{"ha":667,"x_min":17,"x_max":650,"o":"m 650 992 l 650 828 l 433 828 l 433 647 l 583 647 l 583 563 l 433 563 l 433 0 l 233 0 l 233 563 l 83 563 l 83 647 l 233 647 l 233 828 l 17 828 l 17 992 l 650 992 z "},"Þ":{"ha":721,"x_min":69,"x_max":692,"o":"m 269 365 l 358 365 q 455 401 418 365 q 492 514 492 438 q 460 628 492 589 q 353 667 428 667 l 269 667 l 269 365 m 69 992 l 269 992 l 269 814 l 419 814 q 548 788 496 814 q 632 721 600 763 q 678 626 664 679 q 692 517 692 572 q 669 383 692 439 q 605 290 646 326 q 506 236 564 254 q 376 218 447 218 l 269 218 l 269 0 l 69 0 l 69 992 z "},"Ù":{"ha":747,"x_min":57,"x_max":690,"o":"m 257 992 l 257 300 q 262 231 257 263 q 280 177 267 200 q 315 141 293 154 q 374 128 338 128 q 431 141 408 128 q 467 177 454 154 q 485 231 481 200 q 490 300 490 263 l 490 992 l 690 992 l 690 300 q 664 144 690 206 q 593 46 638 82 q 492 -5 549 10 q 374 -19 435 -19 q 256 -7 313 -19 q 154 41 199 6 q 83 138 110 76 q 57 300 57 200 l 57 992 l 257 992 m 332 1050 l 196 1250 l 388 1250 l 463 1050 l 332 1050 z "},"Ú":{"ha":747,"x_min":57,"x_max":690,"o":"m 257 992 l 257 300 q 262 231 257 263 q 280 177 267 200 q 315 141 293 154 q 374 128 338 128 q 431 141 408 128 q 467 177 454 154 q 485 231 481 200 q 490 300 490 263 l 490 992 l 690 992 l 690 300 q 664 144 690 206 q 593 46 638 82 q 492 -5 549 10 q 374 -19 435 -19 q 256 -7 313 -19 q 154 41 199 6 q 83 138 110 76 q 57 300 57 200 l 57 992 l 257 992 m 381 1250 l 572 1250 l 436 1050 l 306 1050 l 381 1250 z "},"Û":{"ha":747,"x_min":57,"x_max":690,"o":"m 257 992 l 257 300 q 262 231 257 263 q 280 177 267 200 q 315 141 293 154 q 374 128 338 128 q 431 141 408 128 q 467 177 454 154 q 485 231 481 200 q 490 300 490 263 l 490 992 l 690 992 l 690 300 q 664 144 690 206 q 593 46 638 82 q 492 -5 549 10 q 374 -19 435 -19 q 256 -7 313 -19 q 154 41 199 6 q 83 138 110 76 q 57 300 57 200 l 57 992 l 257 992 m 275 1250 l 475 1250 l 583 1050 l 436 1050 l 372 1168 l 306 1050 l 167 1050 l 275 1250 z "},"Ũ":{"ha":747,"x_min":57,"x_max":690,"o":"m 257 992 l 257 300 q 262 231 257 263 q 280 177 267 200 q 315 141 293 154 q 374 128 338 128 q 431 141 408 128 q 467 177 454 154 q 485 231 481 200 q 490 300 490 263 l 490 992 l 690 992 l 690 300 q 664 144 690 206 q 593 46 638 82 q 492 -5 549 10 q 374 -19 435 -19 q 256 -7 313 -19 q 154 41 199 6 q 83 138 110 76 q 57 300 57 200 l 57 992 l 257 992 m 160 1063 q 203 1190 171 1146 q 289 1235 236 1235 q 349 1225 328 1235 l 415 1196 q 457 1188 436 1188 q 486 1206 476 1188 q 496 1238 496 1224 l 596 1238 q 554 1114 589 1163 q 467 1065 519 1065 q 422 1073 444 1065 q 378 1089 400 1081 q 338 1105 357 1097 q 301 1113 318 1113 q 257 1063 267 1113 l 160 1063 z "},"Ü":{"ha":747,"x_min":57,"x_max":690,"o":"m 257 992 l 257 300 q 262 231 257 263 q 280 177 267 200 q 315 141 293 154 q 374 128 338 128 q 431 141 408 128 q 467 177 454 154 q 485 231 481 200 q 490 300 490 263 l 490 992 l 690 992 l 690 300 q 664 144 690 206 q 593 46 638 82 q 492 -5 549 10 q 374 -19 435 -19 q 256 -7 313 -19 q 154 41 199 6 q 83 138 110 76 q 57 300 57 200 l 57 992 l 257 992 m 415 1232 l 571 1232 l 571 1068 l 415 1068 l 415 1232 m 176 1232 l 332 1232 l 332 1068 l 176 1068 l 176 1232 z "},"Ū":{"ha":747,"x_min":57,"x_max":690,"o":"m 257 992 l 257 300 q 262 231 257 263 q 280 177 267 200 q 315 141 293 154 q 374 128 338 128 q 431 141 408 128 q 467 177 454 154 q 485 231 481 200 q 490 300 490 263 l 490 992 l 690 992 l 690 300 q 664 144 690 206 q 593 46 638 82 q 492 -5 549 10 q 374 -19 435 -19 q 256 -7 313 -19 q 154 41 199 6 q 83 138 110 76 q 57 300 57 200 l 57 992 l 257 992 m 579 1203 l 579 1097 l 171 1097 l 171 1203 l 579 1203 z "},"Ŭ":{"ha":747,"x_min":57,"x_max":690,"o":"m 257 992 l 257 300 q 262 231 257 263 q 280 177 267 200 q 315 141 293 154 q 374 128 338 128 q 431 141 408 128 q 467 177 454 154 q 485 231 481 200 q 490 300 490 263 l 490 992 l 690 992 l 690 300 q 664 144 690 206 q 593 46 638 82 q 492 -5 549 10 q 374 -19 435 -19 q 256 -7 313 -19 q 154 41 199 6 q 83 138 110 76 q 57 300 57 200 l 57 992 l 257 992 m 272 1249 q 306 1183 276 1208 q 375 1158 335 1158 q 444 1183 415 1158 q 478 1249 474 1208 l 568 1249 q 559 1187 568 1221 q 528 1123 550 1153 q 468 1073 506 1093 q 375 1053 431 1053 q 281 1073 318 1053 q 222 1123 244 1093 q 191 1187 200 1153 q 182 1249 182 1221 l 272 1249 z "},"Ů":{"ha":747,"x_min":57,"x_max":690,"o":"m 257 992 l 257 300 q 262 231 257 263 q 280 177 267 200 q 315 141 293 154 q 374 128 338 128 q 431 141 408 128 q 467 177 454 154 q 485 231 481 200 q 490 300 490 263 l 490 992 l 690 992 l 690 300 q 664 144 690 206 q 593 46 638 82 q 492 -5 549 10 q 374 -19 435 -19 q 256 -7 313 -19 q 154 41 199 6 q 83 138 110 76 q 57 300 57 200 l 57 992 l 257 992 m 296 1172 q 319 1116 296 1139 q 375 1093 342 1093 q 431 1116 408 1093 q 454 1172 454 1139 q 431 1228 454 1206 q 375 1251 408 1251 q 319 1228 342 1251 q 296 1172 296 1206 m 218 1172 q 231 1234 218 1206 q 265 1283 243 1263 q 315 1314 286 1303 q 375 1325 343 1325 q 435 1314 407 1325 q 485 1283 464 1303 q 519 1234 507 1263 q 532 1172 532 1206 q 486 1063 532 1103 q 375 1022 440 1022 q 263 1063 308 1022 q 218 1172 218 1103 z "},"Ű":{"ha":747,"x_min":57,"x_max":690,"o":"m 257 992 l 257 300 q 262 231 257 263 q 280 177 267 200 q 315 141 293 154 q 374 128 338 128 q 431 141 408 128 q 467 177 454 154 q 485 231 481 200 q 490 300 490 263 l 490 992 l 690 992 l 690 300 q 664 144 690 206 q 593 46 638 82 q 492 -5 549 10 q 374 -19 435 -19 q 256 -7 313 -19 q 154 41 199 6 q 83 138 110 76 q 57 300 57 200 l 57 992 l 257 992 m 497 1250 l 689 1250 l 553 1050 l 422 1050 l 497 1250 m 267 1250 l 458 1250 l 322 1050 l 192 1050 l 267 1250 z "},"Ų":{"ha":747,"x_min":57,"x_max":690,"o":"m 511 -253 q 437 -291 472 -281 q 353 -301 401 -301 q 286 -291 313 -301 q 245 -265 260 -281 q 225 -231 231 -250 q 219 -192 219 -211 q 265 -87 219 -140 q 351 -19 297 -50 q 256 -7 301 -18 q 177 24 214 3 q 114 83 140 46 q 72 173 88 119 q 57 300 57 226 l 57 992 l 257 992 l 257 300 q 262 231 257 263 q 280 177 267 200 q 315 141 293 154 q 374 128 338 128 q 431 141 408 128 q 467 177 454 154 q 485 231 481 200 q 490 300 490 263 l 490 992 l 690 992 l 690 300 q 675 177 690 229 q 633 88 660 125 q 570 28 607 51 q 492 -4 533 6 l 468 -10 q 437 -35 450 -24 q 413 -56 424 -46 q 358 -119 372 -93 q 343 -169 343 -144 q 382 -212 343 -212 q 420 -208 401 -212 q 469 -185 439 -203 l 511 -253 z "},"Ŵ":{"ha":1056,"x_min":11,"x_max":1044,"o":"m 11 992 l 203 992 l 313 258 l 315 258 l 432 992 l 624 992 l 740 258 l 743 258 l 853 992 l 1044 992 l 864 0 l 640 0 l 529 719 l 526 719 l 415 0 l 192 0 l 11 992 m 428 1250 l 628 1250 l 736 1050 l 589 1050 l 525 1168 l 458 1050 l 319 1050 l 428 1250 z "},"Ý":{"ha":722,"x_min":4,"x_max":718,"o":"m 229 992 l 360 608 l 363 608 l 501 992 l 718 992 l 461 390 l 461 0 l 261 0 l 261 390 l 4 992 l 229 992 m 375 1253 l 567 1253 l 431 1053 l 300 1053 l 375 1253 z "},"Ŷ":{"ha":722,"x_min":4,"x_max":718,"o":"m 229 992 l 360 608 l 363 608 l 501 992 l 718 992 l 461 390 l 461 0 l 261 0 l 261 390 l 4 992 l 229 992 m 265 1250 l 465 1250 l 574 1050 l 426 1050 l 363 1168 l 296 1050 l 157 1050 l 265 1250 z "},"Ÿ":{"ha":722,"x_min":4,"x_max":718,"o":"m 229 992 l 360 608 l 363 608 l 501 992 l 718 992 l 461 390 l 461 0 l 261 0 l 261 390 l 4 992 l 229 992 m 403 1232 l 558 1232 l 558 1068 l 403 1068 l 403 1232 m 164 1232 l 319 1232 l 319 1068 l 164 1068 l 164 1232 z "},"Ź":{"ha":668,"x_min":33,"x_max":635,"o":"m 33 146 l 399 828 l 58 828 l 58 992 l 629 992 l 629 840 l 258 164 l 635 164 l 635 0 l 33 0 l 33 146 m 342 1250 l 533 1250 l 397 1050 l 267 1050 l 342 1250 z "},"Ž":{"ha":668,"x_min":33,"x_max":635,"o":"m 33 146 l 399 828 l 58 828 l 58 992 l 629 992 l 629 840 l 258 164 l 635 164 l 635 0 l 33 0 l 33 146 m 142 1253 l 289 1253 l 353 1135 l 419 1253 l 558 1253 l 450 1053 l 250 1053 l 142 1253 z "},"Ż":{"ha":668,"x_min":33,"x_max":635,"o":"m 33 146 l 399 828 l 58 828 l 58 992 l 629 992 l 629 840 l 258 164 l 635 164 l 635 0 l 33 0 l 33 146 m 421 1232 l 421 1068 l 265 1068 l 265 1232 l 421 1232 z "},"à":{"ha":668,"x_min":39,"x_max":619,"o":"m 63 518 l 63 536 q 83 644 63 600 q 140 716 104 689 q 223 755 175 743 q 325 767 271 767 q 463 750 410 767 q 546 703 517 733 q 585 630 575 672 q 596 538 596 588 l 596 144 q 601 63 596 92 q 619 0 606 33 l 436 0 q 422 38 426 18 q 413 78 417 58 l 410 78 q 333 0 376 19 q 219 -19 289 -19 q 135 0 169 -19 q 79 50 100 19 q 49 119 58 81 q 39 194 39 157 q 50 285 39 247 q 84 351 61 324 q 142 396 107 378 q 228 428 178 414 l 336 457 q 396 488 379 468 q 413 544 413 507 q 392 612 413 588 q 324 636 372 636 q 257 610 279 636 q 235 539 235 583 l 235 518 l 63 518 m 413 374 q 371 349 393 358 q 331 336 349 340 q 247 294 272 324 q 222 215 222 265 q 239 142 222 172 q 294 111 256 111 q 335 117 314 111 q 373 138 356 124 q 401 173 390 151 q 413 226 413 194 l 413 374 m 297 836 l 161 1036 l 353 1036 l 428 836 l 297 836 z "},"á":{"ha":668,"x_min":39,"x_max":619,"o":"m 63 518 l 63 536 q 83 644 63 600 q 140 716 104 689 q 223 755 175 743 q 325 767 271 767 q 463 750 410 767 q 546 703 517 733 q 585 630 575 672 q 596 538 596 588 l 596 144 q 601 63 596 92 q 619 0 606 33 l 436 0 q 422 38 426 18 q 413 78 417 58 l 410 78 q 333 0 376 19 q 219 -19 289 -19 q 135 0 169 -19 q 79 50 100 19 q 49 119 58 81 q 39 194 39 157 q 50 285 39 247 q 84 351 61 324 q 142 396 107 378 q 228 428 178 414 l 336 457 q 396 488 379 468 q 413 544 413 507 q 392 612 413 588 q 324 636 372 636 q 257 610 279 636 q 235 539 235 583 l 235 518 l 63 518 m 413 374 q 371 349 393 358 q 331 336 349 340 q 247 294 272 324 q 222 215 222 265 q 239 142 222 172 q 294 111 256 111 q 335 117 314 111 q 373 138 356 124 q 401 173 390 151 q 413 226 413 194 l 413 374 m 339 1036 l 531 1036 l 394 836 l 264 836 l 339 1036 z "},"â":{"ha":668,"x_min":39,"x_max":619,"o":"m 63 518 l 63 536 q 83 644 63 600 q 140 716 104 689 q 223 755 175 743 q 325 767 271 767 q 463 750 410 767 q 546 703 517 733 q 585 630 575 672 q 596 538 596 588 l 596 144 q 601 63 596 92 q 619 0 606 33 l 436 0 q 422 38 426 18 q 413 78 417 58 l 410 78 q 333 0 376 19 q 219 -19 289 -19 q 135 0 169 -19 q 79 50 100 19 q 49 119 58 81 q 39 194 39 157 q 50 285 39 247 q 84 351 61 324 q 142 396 107 378 q 228 428 178 414 l 336 457 q 396 488 379 468 q 413 544 413 507 q 392 612 413 588 q 324 636 372 636 q 257 610 279 636 q 235 539 235 583 l 235 518 l 63 518 m 413 374 q 371 349 393 358 q 331 336 349 340 q 247 294 272 324 q 222 215 222 265 q 239 142 222 172 q 294 111 256 111 q 335 117 314 111 q 373 138 356 124 q 401 173 390 151 q 413 226 413 194 l 413 374 m 233 1036 l 433 1036 l 542 836 l 394 836 l 331 954 l 264 836 l 125 836 l 233 1036 z "},"ã":{"ha":668,"x_min":39,"x_max":619,"o":"m 63 518 l 63 536 q 83 644 63 600 q 140 716 104 689 q 223 755 175 743 q 325 767 271 767 q 463 750 410 767 q 546 703 517 733 q 585 630 575 672 q 596 538 596 588 l 596 144 q 601 63 596 92 q 619 0 606 33 l 436 0 q 422 38 426 18 q 413 78 417 58 l 410 78 q 333 0 376 19 q 219 -19 289 -19 q 135 0 169 -19 q 79 50 100 19 q 49 119 58 81 q 39 194 39 157 q 50 285 39 247 q 84 351 61 324 q 142 396 107 378 q 228 428 178 414 l 336 457 q 396 488 379 468 q 413 544 413 507 q 392 612 413 588 q 324 636 372 636 q 257 610 279 636 q 235 539 235 583 l 235 518 l 63 518 m 413 374 q 371 349 393 358 q 331 336 349 340 q 247 294 272 324 q 222 215 222 265 q 239 142 222 172 q 294 111 256 111 q 335 117 314 111 q 373 138 356 124 q 401 173 390 151 q 413 226 413 194 l 413 374 m 118 849 q 162 976 129 932 q 247 1021 194 1021 q 307 1011 286 1021 l 374 982 q 415 974 394 974 q 444 992 435 974 q 454 1024 454 1010 l 554 1024 q 513 900 547 949 q 425 851 478 851 q 381 859 403 851 q 337 875 358 867 q 296 891 315 883 q 260 899 276 899 q 215 849 225 899 l 118 849 z "},"ä":{"ha":668,"x_min":39,"x_max":619,"o":"m 63 518 l 63 536 q 83 644 63 600 q 140 716 104 689 q 223 755 175 743 q 325 767 271 767 q 463 750 410 767 q 546 703 517 733 q 585 630 575 672 q 596 538 596 588 l 596 144 q 601 63 596 92 q 619 0 606 33 l 436 0 q 422 38 426 18 q 413 78 417 58 l 410 78 q 333 0 376 19 q 219 -19 289 -19 q 135 0 169 -19 q 79 50 100 19 q 49 119 58 81 q 39 194 39 157 q 50 285 39 247 q 84 351 61 324 q 142 396 107 378 q 228 428 178 414 l 336 457 q 396 488 379 468 q 413 544 413 507 q 392 612 413 588 q 324 636 372 636 q 257 610 279 636 q 235 539 235 583 l 235 518 l 63 518 m 413 374 q 371 349 393 358 q 331 336 349 340 q 247 294 272 324 q 222 215 222 265 q 239 142 222 172 q 294 111 256 111 q 335 117 314 111 q 373 138 356 124 q 401 173 390 151 q 413 226 413 194 l 413 374 m 376 1018 l 532 1018 l 532 854 l 376 854 l 376 1018 m 138 1018 l 293 1018 l 293 854 l 138 854 l 138 1018 z "},"ā":{"ha":668,"x_min":39,"x_max":619,"o":"m 63 518 l 63 536 q 83 644 63 600 q 140 716 104 689 q 223 755 175 743 q 325 767 271 767 q 463 750 410 767 q 546 703 517 733 q 585 630 575 672 q 596 538 596 588 l 596 144 q 601 63 596 92 q 619 0 606 33 l 436 0 q 422 38 426 18 q 413 78 417 58 l 410 78 q 333 0 376 19 q 219 -19 289 -19 q 135 0 169 -19 q 79 50 100 19 q 49 119 58 81 q 39 194 39 157 q 50 285 39 247 q 84 351 61 324 q 142 396 107 378 q 228 428 178 414 l 336 457 q 396 488 379 468 q 413 544 413 507 q 392 612 413 588 q 324 636 372 636 q 257 610 279 636 q 235 539 235 583 l 235 518 l 63 518 m 413 374 q 371 349 393 358 q 331 336 349 340 q 247 294 272 324 q 222 215 222 265 q 239 142 222 172 q 294 111 256 111 q 335 117 314 111 q 373 138 356 124 q 401 173 390 151 q 413 226 413 194 l 413 374 m 542 989 l 542 883 l 133 883 l 133 989 l 542 989 z "},"ă":{"ha":668,"x_min":39,"x_max":619,"o":"m 63 518 l 63 536 q 83 644 63 600 q 140 716 104 689 q 223 755 175 743 q 325 767 271 767 q 463 750 410 767 q 546 703 517 733 q 585 630 575 672 q 596 538 596 588 l 596 144 q 601 63 596 92 q 619 0 606 33 l 436 0 q 422 38 426 18 q 413 78 417 58 l 410 78 q 333 0 376 19 q 219 -19 289 -19 q 135 0 169 -19 q 79 50 100 19 q 49 119 58 81 q 39 194 39 157 q 50 285 39 247 q 84 351 61 324 q 142 396 107 378 q 228 428 178 414 l 336 457 q 396 488 379 468 q 413 544 413 507 q 392 612 413 588 q 324 636 372 636 q 257 610 279 636 q 235 539 235 583 l 235 518 l 63 518 m 413 374 q 371 349 393 358 q 331 336 349 340 q 247 294 272 324 q 222 215 222 265 q 239 142 222 172 q 294 111 256 111 q 335 117 314 111 q 373 138 356 124 q 401 173 390 151 q 413 226 413 194 l 413 374 m 236 1035 q 269 969 240 994 q 339 944 299 944 q 408 969 379 944 q 442 1035 438 994 l 532 1035 q 523 973 532 1007 q 492 909 514 939 q 432 859 469 879 q 339 839 394 839 q 245 859 282 839 q 186 909 208 879 q 155 973 164 939 q 146 1035 146 1007 l 236 1035 z "},"å":{"ha":668,"x_min":39,"x_max":619,"o":"m 63 518 l 63 536 q 83 644 63 600 q 140 716 104 689 q 223 755 175 743 q 325 767 271 767 q 463 750 410 767 q 546 703 517 733 q 585 630 575 672 q 596 538 596 588 l 596 144 q 601 63 596 92 q 619 0 606 33 l 436 0 q 422 38 426 18 q 413 78 417 58 l 410 78 q 333 0 376 19 q 219 -19 289 -19 q 135 0 169 -19 q 79 50 100 19 q 49 119 58 81 q 39 194 39 157 q 50 285 39 247 q 84 351 61 324 q 142 396 107 378 q 228 428 178 414 l 336 457 q 396 488 379 468 q 413 544 413 507 q 392 612 413 588 q 324 636 372 636 q 257 610 279 636 q 235 539 235 583 l 235 518 l 63 518 m 413 374 q 371 349 393 358 q 331 336 349 340 q 247 294 272 324 q 222 215 222 265 q 239 142 222 172 q 294 111 256 111 q 335 117 314 111 q 373 138 356 124 q 401 173 390 151 q 413 226 413 194 l 413 374 m 250 958 q 273 902 250 925 q 329 879 296 879 q 385 902 363 879 q 408 958 408 925 q 385 1015 408 992 q 329 1038 363 1038 q 273 1015 296 1038 q 250 958 250 992 m 172 958 q 185 1020 172 992 q 219 1069 197 1049 q 269 1100 240 1089 q 329 1111 297 1111 q 390 1100 361 1111 q 440 1069 418 1089 q 474 1020 461 1049 q 486 958 486 992 q 440 849 486 889 q 329 808 394 808 q 217 849 263 808 q 172 958 172 889 z "},"ą":{"ha":668,"x_min":39,"x_max":619,"o":"m 568 -253 q 501 -291 532 -281 q 425 -301 469 -301 q 365 -291 389 -301 q 328 -265 342 -281 q 310 -231 315 -250 q 306 -192 306 -211 q 344 -92 306 -140 q 435 0 382 -43 q 422 38 426 18 q 413 78 417 58 l 410 78 q 333 0 376 19 q 219 -19 289 -19 q 135 0 169 -19 q 79 50 100 19 q 49 119 58 81 q 39 194 39 157 q 50 285 39 247 q 84 351 61 324 q 142 396 107 378 q 228 428 178 414 l 336 457 q 396 488 379 468 q 413 544 413 507 q 392 612 413 588 q 324 636 372 636 q 257 610 279 636 q 235 539 235 583 l 235 518 l 63 518 l 63 536 q 83 644 63 600 q 140 716 104 689 q 223 755 175 743 q 325 767 271 767 q 463 750 410 767 q 546 703 517 733 q 585 630 575 672 q 596 538 596 588 l 596 144 q 601 63 596 92 q 619 0 606 33 l 528 0 l 531 1 l 529 1 q 474 -54 492 -33 q 417 -169 417 -124 q 451 -212 417 -212 q 486 -208 469 -212 q 531 -185 503 -203 l 568 -253 m 413 374 q 371 349 393 358 q 331 336 349 340 q 247 294 272 324 q 222 215 222 265 q 239 142 222 172 q 294 111 256 111 q 335 117 314 111 q 373 138 356 124 q 401 173 390 151 q 413 226 413 194 l 413 374 z "},"æ":{"ha":1003,"x_min":38,"x_max":965,"o":"m 61 518 l 61 536 q 82 644 61 600 q 138 716 103 689 q 222 755 174 743 q 324 767 269 767 q 442 748 399 767 q 517 678 486 729 q 584 744 538 721 q 693 767 631 767 q 829 740 776 767 q 913 663 882 713 q 954 544 943 614 q 965 388 965 474 l 965 344 l 589 344 l 589 285 q 594 220 589 251 q 610 165 599 189 q 638 126 621 140 q 682 111 656 111 q 751 146 729 111 q 782 251 774 181 l 954 251 q 884 51 949 121 q 685 -19 819 -19 q 595 -8 633 -19 q 530 21 557 3 q 486 62 503 39 q 460 110 469 85 q 413 42 438 68 q 360 3 389 17 q 297 -15 332 -10 q 218 -19 263 -19 q 133 0 168 -19 q 78 50 99 19 q 47 119 57 81 q 38 194 38 157 q 49 285 38 247 q 83 351 60 324 q 141 396 106 378 q 226 428 176 414 l 335 457 q 394 488 378 468 q 411 544 411 507 q 391 612 411 588 q 322 636 371 636 q 256 610 278 636 q 233 539 233 583 l 233 518 l 61 518 m 782 458 q 762 591 779 546 q 686 636 744 636 q 640 623 658 636 q 610 588 621 610 q 594 540 599 567 q 589 488 589 514 l 589 458 l 782 458 m 411 374 q 369 349 392 358 q 329 336 347 340 q 246 294 271 324 q 221 215 221 265 q 238 142 221 172 q 293 111 254 111 q 333 117 313 111 q 372 138 354 124 q 400 173 389 151 q 411 226 411 194 l 411 374 z "},"ć":{"ha":643,"x_min":36,"x_max":607,"o":"m 424 478 q 420 531 424 504 q 408 580 417 558 q 381 615 399 601 q 338 628 364 628 q 280 612 301 628 q 247 565 258 596 q 232 485 236 533 q 228 372 228 436 q 232 253 228 303 q 247 172 236 204 q 278 126 258 140 q 331 111 299 111 q 401 153 379 111 q 424 286 424 194 l 607 286 q 541 60 607 139 q 322 -19 475 -19 q 197 0 250 -19 q 108 65 143 19 q 54 185 72 110 q 36 374 36 261 q 58 565 36 489 q 121 685 81 640 q 217 749 161 731 q 339 767 272 767 q 540 689 472 767 q 607 478 607 611 l 424 478 m 340 1036 l 532 1036 l 396 836 l 265 836 l 340 1036 z "},"ĉ":{"ha":643,"x_min":36,"x_max":607,"o":"m 424 478 q 420 531 424 504 q 408 580 417 558 q 381 615 399 601 q 338 628 364 628 q 280 612 301 628 q 247 565 258 596 q 232 485 236 533 q 228 372 228 436 q 232 253 228 303 q 247 172 236 204 q 278 126 258 140 q 331 111 299 111 q 401 153 379 111 q 424 286 424 194 l 607 286 q 541 60 607 139 q 322 -19 475 -19 q 197 0 250 -19 q 108 65 143 19 q 54 185 72 110 q 36 374 36 261 q 58 565 36 489 q 121 685 81 640 q 217 749 161 731 q 339 767 272 767 q 540 689 472 767 q 607 478 607 611 l 424 478 m 236 1036 l 436 1036 l 544 836 l 397 836 l 333 954 l 267 836 l 128 836 l 236 1036 z "},"č":{"ha":643,"x_min":36,"x_max":607,"o":"m 424 478 q 420 531 424 504 q 408 580 417 558 q 381 615 399 601 q 338 628 364 628 q 280 612 301 628 q 247 565 258 596 q 232 485 236 533 q 228 372 228 436 q 232 253 228 303 q 247 172 236 204 q 278 126 258 140 q 331 111 299 111 q 401 153 379 111 q 424 286 424 194 l 607 286 q 541 60 607 139 q 322 -19 475 -19 q 197 0 250 -19 q 108 65 143 19 q 54 185 72 110 q 36 374 36 261 q 58 565 36 489 q 121 685 81 640 q 217 749 161 731 q 339 767 272 767 q 540 689 472 767 q 607 478 607 611 l 424 478 m 129 1036 l 276 1036 l 340 918 l 407 1036 l 546 1036 l 438 836 l 238 836 l 129 1036 z "},"ċ":{"ha":643,"x_min":36,"x_max":607,"o":"m 424 478 q 420 531 424 504 q 408 580 417 558 q 381 615 399 601 q 338 628 364 628 q 280 612 301 628 q 247 565 258 596 q 232 485 236 533 q 228 372 228 436 q 232 253 228 303 q 247 172 236 204 q 278 126 258 140 q 331 111 299 111 q 401 153 379 111 q 424 286 424 194 l 607 286 q 541 60 607 139 q 322 -19 475 -19 q 197 0 250 -19 q 108 65 143 19 q 54 185 72 110 q 36 374 36 261 q 58 565 36 489 q 121 685 81 640 q 217 749 161 731 q 339 767 272 767 q 540 689 472 767 q 607 478 607 611 l 424 478 m 411 1018 l 411 854 l 256 854 l 256 1018 l 411 1018 z "},"ç":{"ha":643,"x_min":36,"x_max":607,"o":"m 424 478 q 420 531 424 504 q 408 580 417 558 q 381 615 399 601 q 338 628 364 628 q 280 612 301 628 q 247 565 258 596 q 232 485 236 533 q 228 372 228 436 q 232 253 228 303 q 247 172 236 204 q 278 126 258 140 q 331 111 299 111 q 401 153 379 111 q 424 286 424 194 l 607 286 q 540 60 607 139 q 363 -18 485 -7 l 322 -81 q 345 -75 335 -76 q 368 -74 356 -74 q 412 -80 390 -74 q 450 -99 433 -86 q 476 -130 467 -111 q 485 -174 486 -149 q 440 -269 485 -236 q 310 -301 394 -301 q 226 -293 264 -301 q 171 -275 188 -285 l 197 -211 q 240 -226 213 -219 q 293 -232 267 -232 q 342 -219 322 -232 q 363 -186 363 -207 q 346 -154 363 -165 q 301 -142 329 -143 q 276 -144 286 -142 q 254 -150 265 -146 l 224 -122 l 290 -18 q 240 -12 264 -17 q 196 0 217 -7 q 76 117 117 29 q 36 374 36 204 q 58 565 36 489 q 121 685 81 640 q 217 749 161 731 q 339 767 272 767 q 540 689 472 767 q 607 478 607 611 l 424 478 z "},"ď":{"ha":843,"x_min":46,"x_max":896,"o":"m 447 79 l 444 79 q 373 3 413 26 q 275 -19 333 -19 q 101 73 157 -19 q 46 374 46 165 q 101 674 46 582 q 275 767 157 767 q 367 744 329 767 q 436 678 406 722 l 439 678 l 439 992 l 631 992 l 631 0 l 447 0 l 447 79 m 238 374 q 256 190 238 251 q 338 128 275 128 q 420 190 401 128 q 439 374 439 251 q 420 558 439 496 q 338 619 401 619 q 256 558 275 619 q 238 374 238 496 m 729 992 l 896 992 l 808 792 l 683 792 l 729 992 z "},"đ":{"ha":750,"x_min":46,"x_max":750,"o":"m 447 79 l 444 79 q 373 3 413 26 q 275 -19 333 -19 q 101 73 157 -19 q 46 374 46 165 q 101 674 46 582 q 275 767 157 767 q 367 744 329 767 q 436 678 406 722 l 439 678 l 439 814 l 286 814 l 286 899 l 439 899 l 439 992 l 631 992 l 631 899 l 750 899 l 750 814 l 631 814 l 631 0 l 447 0 l 447 79 m 238 374 q 256 190 238 251 q 338 128 275 128 q 420 190 401 128 q 439 374 439 251 q 420 558 439 496 q 338 619 401 619 q 256 558 275 619 q 238 374 238 496 z "},"ð":{"ha":667,"x_min":39,"x_max":628,"o":"m 92 868 l 197 931 q 151 976 174 954 q 106 1019 128 999 l 250 1104 q 298 1060 275 1082 q 343 1017 321 1039 l 447 1079 l 507 1021 l 400 958 q 498 834 456 897 q 569 701 540 771 q 613 550 599 631 q 628 374 628 469 q 613 204 628 278 q 563 81 597 131 q 472 6 528 32 q 333 -19 415 -19 q 190 3 247 -21 q 100 78 133 28 q 53 201 67 128 q 39 374 39 275 q 53 524 39 457 q 96 640 67 592 q 171 713 125 688 q 281 739 217 739 q 329 731 304 739 q 378 703 354 722 l 381 706 q 322 788 356 746 q 253 872 289 831 l 146 810 l 92 868 m 231 364 q 233 262 231 308 q 247 182 236 215 q 277 130 257 149 q 333 111 297 111 q 414 170 392 111 q 436 364 436 229 q 414 551 436 493 q 333 608 392 608 q 277 590 297 608 q 247 538 257 571 q 233 460 236 506 q 231 364 231 415 z "},"è":{"ha":643,"x_min":36,"x_max":607,"o":"m 228 344 l 228 285 q 233 220 228 251 q 249 165 238 189 q 278 126 260 140 q 322 111 296 111 q 393 146 371 111 q 424 251 415 181 l 596 251 q 526 51 590 121 q 325 -19 463 -19 q 163 17 221 -19 q 76 110 104 53 q 42 240 49 168 q 36 381 36 311 q 47 525 36 456 q 88 649 57 594 q 178 735 119 703 q 333 767 236 767 q 470 740 417 767 q 554 663 524 713 q 596 544 585 614 q 607 388 607 474 l 607 344 l 228 344 m 424 458 q 418 534 422 501 q 403 590 414 567 q 374 624 393 613 q 326 636 356 636 q 278 623 297 636 q 249 588 260 610 q 233 540 238 567 q 228 488 228 514 l 228 458 l 424 458 m 289 836 l 153 1036 l 344 1036 l 419 836 l 289 836 z "},"é":{"ha":643,"x_min":36,"x_max":607,"o":"m 228 344 l 228 285 q 233 220 228 251 q 249 165 238 189 q 278 126 260 140 q 322 111 296 111 q 393 146 371 111 q 424 251 415 181 l 596 251 q 526 51 590 121 q 325 -19 463 -19 q 163 17 221 -19 q 76 110 104 53 q 42 240 49 168 q 36 381 36 311 q 47 525 36 456 q 88 649 57 594 q 178 735 119 703 q 333 767 236 767 q 470 740 417 767 q 554 663 524 713 q 596 544 585 614 q 607 388 607 474 l 607 344 l 228 344 m 424 458 q 418 534 422 501 q 403 590 414 567 q 374 624 393 613 q 326 636 356 636 q 278 623 297 636 q 249 588 260 610 q 233 540 238 567 q 228 488 228 514 l 228 458 l 424 458 m 339 1036 l 531 1036 l 394 836 l 264 836 l 339 1036 z "},"ê":{"ha":643,"x_min":36,"x_max":607,"o":"m 228 344 l 228 285 q 233 220 228 251 q 249 165 238 189 q 278 126 260 140 q 322 111 296 111 q 393 146 371 111 q 424 251 415 181 l 596 251 q 526 51 590 121 q 325 -19 463 -19 q 163 17 221 -19 q 76 110 104 53 q 42 240 49 168 q 36 381 36 311 q 47 525 36 456 q 88 649 57 594 q 178 735 119 703 q 333 767 236 767 q 470 740 417 767 q 554 663 524 713 q 596 544 585 614 q 607 388 607 474 l 607 344 l 228 344 m 424 458 q 418 534 422 501 q 403 590 414 567 q 374 624 393 613 q 326 636 356 636 q 278 623 297 636 q 249 588 260 610 q 233 540 238 567 q 228 488 228 514 l 228 458 l 424 458 m 233 1036 l 433 1036 l 542 836 l 394 836 l 331 954 l 264 836 l 125 836 l 233 1036 z "},"ě":{"ha":643,"x_min":36,"x_max":607,"o":"m 228 344 l 228 285 q 233 220 228 251 q 249 165 238 189 q 278 126 260 140 q 322 111 296 111 q 393 146 371 111 q 424 251 415 181 l 596 251 q 526 51 590 121 q 325 -19 463 -19 q 163 17 221 -19 q 76 110 104 53 q 42 240 49 168 q 36 381 36 311 q 47 525 36 456 q 88 649 57 594 q 178 735 119 703 q 333 767 236 767 q 470 740 417 767 q 554 663 524 713 q 596 544 585 614 q 607 388 607 474 l 607 344 l 228 344 m 424 458 q 418 534 422 501 q 403 590 414 567 q 374 624 393 613 q 326 636 356 636 q 278 623 297 636 q 249 588 260 610 q 233 540 238 567 q 228 488 228 514 l 228 458 l 424 458 m 119 1036 l 267 1036 l 331 918 l 397 1036 l 536 1036 l 428 836 l 228 836 l 119 1036 z "},"ë":{"ha":643,"x_min":36,"x_max":607,"o":"m 228 344 l 228 285 q 233 220 228 251 q 249 165 238 189 q 278 126 260 140 q 322 111 296 111 q 393 146 371 111 q 424 251 415 181 l 596 251 q 526 51 590 121 q 325 -19 463 -19 q 163 17 221 -19 q 76 110 104 53 q 42 240 49 168 q 36 381 36 311 q 47 525 36 456 q 88 649 57 594 q 178 735 119 703 q 333 767 236 767 q 470 740 417 767 q 554 663 524 713 q 596 544 585 614 q 607 388 607 474 l 607 344 l 228 344 m 424 458 q 418 534 422 501 q 403 590 414 567 q 374 624 393 613 q 326 636 356 636 q 278 623 297 636 q 249 588 260 610 q 233 540 238 567 q 228 488 228 514 l 228 458 l 424 458 m 375 1018 l 531 1018 l 531 854 l 375 854 l 375 1018 m 136 1018 l 292 1018 l 292 854 l 136 854 l 136 1018 z "},"ē":{"ha":643,"x_min":36,"x_max":607,"o":"m 228 344 l 228 285 q 233 220 228 251 q 249 165 238 189 q 278 126 260 140 q 322 111 296 111 q 393 146 371 111 q 424 251 415 181 l 596 251 q 526 51 590 121 q 325 -19 463 -19 q 163 17 221 -19 q 76 110 104 53 q 42 240 49 168 q 36 381 36 311 q 47 525 36 456 q 88 649 57 594 q 178 735 119 703 q 333 767 236 767 q 470 740 417 767 q 554 663 524 713 q 596 544 585 614 q 607 388 607 474 l 607 344 l 228 344 m 424 458 q 418 534 422 501 q 403 590 414 567 q 374 624 393 613 q 326 636 356 636 q 278 623 297 636 q 249 588 260 610 q 233 540 238 567 q 228 488 228 514 l 228 458 l 424 458 m 533 989 l 533 883 l 125 883 l 125 989 l 533 989 z "},"ĕ":{"ha":643,"x_min":36,"x_max":607,"o":"m 228 344 l 228 285 q 233 220 228 251 q 249 165 238 189 q 278 126 260 140 q 322 111 296 111 q 393 146 371 111 q 424 251 415 181 l 596 251 q 526 51 590 121 q 325 -19 463 -19 q 163 17 221 -19 q 76 110 104 53 q 42 240 49 168 q 36 381 36 311 q 47 525 36 456 q 88 649 57 594 q 178 735 119 703 q 333 767 236 767 q 470 740 417 767 q 554 663 524 713 q 596 544 585 614 q 607 388 607 474 l 607 344 l 228 344 m 424 458 q 418 534 422 501 q 403 590 414 567 q 374 624 393 613 q 326 636 356 636 q 278 623 297 636 q 249 588 260 610 q 233 540 238 567 q 228 488 228 514 l 228 458 l 424 458 m 226 1035 q 260 969 231 994 q 329 944 289 944 q 399 969 369 944 q 432 1035 428 994 l 522 1035 q 513 973 522 1007 q 482 909 504 939 q 422 859 460 879 q 329 839 385 839 q 235 859 272 839 q 176 909 199 879 q 145 973 154 939 q 136 1035 136 1007 l 226 1035 z "},"ė":{"ha":643,"x_min":36,"x_max":607,"o":"m 228 344 l 228 285 q 233 220 228 251 q 249 165 238 189 q 278 126 260 140 q 322 111 296 111 q 393 146 371 111 q 424 251 415 181 l 596 251 q 526 51 590 121 q 325 -19 463 -19 q 163 17 221 -19 q 76 110 104 53 q 42 240 49 168 q 36 381 36 311 q 47 525 36 456 q 88 649 57 594 q 178 735 119 703 q 333 767 236 767 q 470 740 417 767 q 554 663 524 713 q 596 544 585 614 q 607 388 607 474 l 607 344 l 228 344 m 424 458 q 418 534 422 501 q 403 590 414 567 q 374 624 393 613 q 326 636 356 636 q 278 623 297 636 q 249 588 260 610 q 233 540 238 567 q 228 488 228 514 l 228 458 l 424 458 m 408 1018 l 408 854 l 253 854 l 253 1018 l 408 1018 z "},"ę":{"ha":643,"x_min":36,"x_max":607,"o":"m 460 -253 q 385 -291 421 -281 q 301 -301 350 -301 q 235 -291 261 -301 q 194 -265 208 -281 q 174 -231 179 -250 q 168 -192 168 -211 q 214 -87 168 -140 q 252 -51 231 -68 q 300 -18 274 -33 q 163 17 217 -17 q 93 85 118 44 q 56 173 68 125 q 40 274 43 221 q 36 381 36 326 q 47 525 36 456 q 88 649 57 594 q 178 735 119 703 q 333 767 236 767 q 470 740 417 767 q 554 663 524 713 q 596 544 585 614 q 607 388 607 474 l 607 344 l 228 344 l 228 285 q 233 220 228 251 q 249 165 238 189 q 278 126 260 140 q 322 111 296 111 q 393 146 371 111 q 424 251 415 181 l 596 251 q 526 50 589 119 q 418 -10 488 7 q 386 -35 400 -24 q 361 -56 372 -46 q 306 -119 321 -93 q 292 -169 292 -144 q 331 -212 292 -212 q 369 -208 350 -212 q 418 -185 388 -203 l 460 -253 m 424 458 q 418 534 422 501 q 403 590 414 567 q 374 624 393 613 q 326 636 356 636 q 278 623 297 636 q 249 588 260 610 q 233 540 238 567 q 228 488 228 514 l 228 458 l 424 458 z "},"ĝ":{"ha":694,"x_min":49,"x_max":624,"o":"m 240 350 q 244 276 240 311 q 258 215 247 242 q 287 172 268 188 q 336 156 306 156 q 387 172 367 156 q 419 215 407 188 q 435 283 431 243 q 440 369 440 322 q 419 563 440 506 q 340 619 397 619 q 289 606 308 619 q 258 560 269 592 q 244 477 247 529 q 240 350 240 425 m 624 747 l 624 38 q 552 -184 624 -112 q 313 -256 481 -256 q 124 -203 190 -256 q 58 -56 58 -151 l 242 -56 q 271 -112 242 -92 q 301 -128 285 -122 q 335 -133 317 -133 q 417 -95 393 -133 q 440 1 440 -57 l 440 100 l 438 100 q 366 33 408 58 q 278 8 324 8 q 106 95 164 8 q 49 386 49 182 q 56 519 49 451 q 88 642 64 588 q 159 732 113 697 q 283 767 206 767 q 367 744 324 767 q 438 664 410 722 l 440 664 l 440 747 l 624 747 m 261 1036 l 461 1036 l 569 836 l 422 836 l 358 954 l 292 836 l 153 836 l 261 1036 z "},"ğ":{"ha":694,"x_min":49,"x_max":624,"o":"m 240 350 q 244 276 240 311 q 258 215 247 242 q 287 172 268 188 q 336 156 306 156 q 387 172 367 156 q 419 215 407 188 q 435 283 431 243 q 440 369 440 322 q 419 563 440 506 q 340 619 397 619 q 289 606 308 619 q 258 560 269 592 q 244 477 247 529 q 240 350 240 425 m 624 747 l 624 38 q 552 -184 624 -112 q 313 -256 481 -256 q 124 -203 190 -256 q 58 -56 58 -151 l 242 -56 q 271 -112 242 -92 q 301 -128 285 -122 q 335 -133 317 -133 q 417 -95 393 -133 q 440 1 440 -57 l 440 100 l 438 100 q 366 33 408 58 q 278 8 324 8 q 106 95 164 8 q 49 386 49 182 q 56 519 49 451 q 88 642 64 588 q 159 732 113 697 q 283 767 206 767 q 367 744 324 767 q 438 664 410 722 l 440 664 l 440 747 l 624 747 m 249 1035 q 282 969 253 994 q 351 944 311 944 q 421 969 392 944 q 454 1035 450 994 l 544 1035 q 535 973 544 1007 q 504 909 526 939 q 444 859 482 879 q 351 839 407 839 q 258 859 294 839 q 199 909 221 879 q 167 973 176 939 q 158 1035 158 1007 l 249 1035 z "},"ġ":{"ha":694,"x_min":49,"x_max":624,"o":"m 240 350 q 244 276 240 311 q 258 215 247 242 q 287 172 268 188 q 336 156 306 156 q 387 172 367 156 q 419 215 407 188 q 435 283 431 243 q 440 369 440 322 q 419 563 440 506 q 340 619 397 619 q 289 606 308 619 q 258 560 269 592 q 244 477 247 529 q 240 350 240 425 m 624 747 l 624 38 q 552 -184 624 -112 q 313 -256 481 -256 q 124 -203 190 -256 q 58 -56 58 -151 l 242 -56 q 271 -112 242 -92 q 301 -128 285 -122 q 335 -133 317 -133 q 417 -95 393 -133 q 440 1 440 -57 l 440 100 l 438 100 q 366 33 408 58 q 278 8 324 8 q 106 95 164 8 q 49 386 49 182 q 56 519 49 451 q 88 642 64 588 q 159 732 113 697 q 283 767 206 767 q 367 744 324 767 q 438 664 410 722 l 440 664 l 440 747 l 624 747 m 431 1018 l 431 854 l 275 854 l 275 1018 l 431 1018 z "},"ģ":{"ha":694,"x_min":49,"x_max":624,"o":"m 240 350 q 244 276 240 311 q 258 215 247 242 q 287 172 268 188 q 336 156 306 156 q 387 172 367 156 q 419 215 407 188 q 435 283 431 243 q 440 369 440 322 q 419 563 440 506 q 340 619 397 619 q 289 606 308 619 q 258 560 269 592 q 244 477 247 529 q 240 350 240 425 m 624 747 l 624 38 q 552 -184 624 -112 q 313 -256 481 -256 q 124 -203 190 -256 q 58 -56 58 -151 l 242 -56 q 271 -112 242 -92 q 301 -128 285 -122 q 335 -133 317 -133 q 417 -95 393 -133 q 440 1 440 -57 l 440 100 l 438 100 q 366 33 408 58 q 278 8 324 8 q 106 95 164 8 q 49 386 49 182 q 56 519 49 451 q 88 642 64 588 q 159 732 113 697 q 283 767 206 767 q 367 744 324 767 q 438 664 410 722 l 440 664 l 440 747 l 624 747 m 281 828 l 281 963 q 292 1038 281 1010 q 324 1081 304 1065 q 367 1101 343 1096 q 415 1110 392 1107 l 415 1060 q 379 1038 392 1053 q 365 992 367 1024 l 436 992 l 436 828 l 281 828 z "},"ĥ":{"ha":694,"x_min":64,"x_max":631,"o":"m 64 992 l 256 992 l 256 671 l 258 671 q 440 767 314 767 q 581 717 532 767 q 631 554 631 667 l 631 0 l 439 0 l 439 515 q 419 597 439 574 q 357 619 400 619 q 256 496 256 619 l 256 0 l 64 0 l 64 992 m 247 1250 l 447 1250 l 556 1050 l 408 1050 l 344 1168 l 278 1050 l 139 1050 l 247 1250 z "},"ħ":{"ha":750,"x_min":0,"x_max":686,"o":"m 119 992 l 311 992 l 311 899 l 465 899 l 465 814 l 311 814 l 311 671 l 314 671 q 496 767 369 767 q 637 717 588 767 q 686 554 686 667 l 686 0 l 494 0 l 494 515 q 475 597 494 574 q 413 619 456 619 q 311 496 311 619 l 311 0 l 119 0 l 119 814 l 0 814 l 0 899 l 119 899 l 119 992 z "},"ı":{"ha":333,"x_min":71,"x_max":263,"o":"m 71 747 l 263 747 l 263 0 l 71 0 l 71 747 z "},"ì":{"ha":333,"x_min":-6,"x_max":263,"o":"m 71 747 l 263 747 l 263 0 l 71 0 l 71 747 m 131 836 l -6 1036 l 186 1036 l 261 836 l 131 836 z "},"í":{"ha":333,"x_min":71,"x_max":338,"o":"m 71 747 l 263 747 l 263 0 l 71 0 l 71 747 m 146 1036 l 338 1036 l 201 836 l 71 836 l 146 1036 z "},"î":{"ha":333,"x_min":-40,"x_max":376,"o":"m 71 747 l 263 747 l 263 0 l 71 0 l 71 747 m 68 1036 l 268 1036 l 376 836 l 229 836 l 165 954 l 99 836 l -40 836 l 68 1036 z "},"ĩ":{"ha":333,"x_min":-51,"x_max":385,"o":"m 71 747 l 263 747 l 263 0 l 71 0 l 71 747 m -51 849 q -8 976 -40 932 q 78 1021 25 1021 q 138 1011 117 1021 l 204 982 q 246 974 225 974 q 275 992 265 974 q 285 1024 285 1010 l 385 1024 q 343 900 378 949 q 256 851 308 851 q 211 859 233 851 q 167 875 189 867 q 126 891 146 883 q 90 899 107 899 q 46 849 56 899 l -51 849 z "},"ï":{"ha":333,"x_min":-31,"x_max":364,"o":"m 71 747 l 263 747 l 263 0 l 71 0 l 71 747 m 208 1018 l 364 1018 l 364 854 l 208 854 l 208 1018 m -31 1018 l 125 1018 l 125 854 l -31 854 l -31 1018 z "},"ī":{"ha":333,"x_min":-37,"x_max":371,"o":"m 71 747 l 263 747 l 263 0 l 71 0 l 71 747 m 371 989 l 371 883 l -37 883 l -37 989 l 371 989 z "},"į":{"ha":333,"x_min":-3,"x_max":289,"o":"m 289 -253 q 215 -291 250 -281 q 131 -301 179 -301 q 64 -291 90 -301 q 23 -265 38 -281 q 3 -231 8 -250 q -3 -192 -3 -211 q 43 -88 -3 -140 q 168 0 89 -36 l 71 0 l 71 747 l 263 747 l 263 0 l 261 0 q 191 -56 218 -32 q 148 -100 164 -81 q 126 -136 132 -119 q 121 -169 121 -153 q 160 -212 121 -212 q 198 -208 179 -212 q 247 -185 217 -203 l 289 -253 m 71 1003 l 263 1003 l 263 839 l 71 839 l 71 1003 z "},"ĵ":{"ha":333,"x_min":-46,"x_max":371,"o":"m 71 747 l 263 747 l 263 -51 q 252 -135 263 -99 q 217 -195 242 -171 q 149 -232 192 -219 q 43 -244 107 -244 q 6 -244 26 -244 q -35 -242 -14 -243 l -35 -103 q -19 -106 -26 -106 l -4 -106 q 36 -99 21 -106 q 59 -77 51 -92 q 69 -40 67 -62 q 71 14 71 -18 l 71 747 m 63 1036 l 263 1036 l 371 836 l 224 836 l 160 954 l 93 836 l -46 836 l 63 1036 z "},"ķ":{"ha":694,"x_min":71,"x_max":701,"o":"m 263 992 l 263 468 l 265 468 l 458 747 l 669 747 l 454 453 l 701 0 l 490 0 l 331 307 l 263 218 l 263 0 l 71 0 l 71 992 l 263 992 m 453 -69 l 453 -204 q 441 -279 453 -251 q 410 -322 429 -307 q 366 -343 390 -337 q 318 -351 342 -349 l 318 -301 q 354 -280 342 -294 q 368 -233 367 -265 l 297 -233 l 297 -69 l 453 -69 z "},"ĺ":{"ha":333,"x_min":71,"x_max":339,"o":"m 71 992 l 263 992 l 263 0 l 71 0 l 71 992 m 147 1250 l 339 1250 l 203 1050 l 72 1050 l 147 1250 z "},"ľ":{"ha":475,"x_min":71,"x_max":528,"o":"m 71 992 l 263 992 l 263 0 l 71 0 l 71 992 m 361 992 l 528 992 l 440 792 l 315 792 l 361 992 z "},"ļ":{"ha":333,"x_min":71,"x_max":263,"o":"m 71 992 l 263 992 l 263 0 l 71 0 l 71 992 m 249 -69 l 249 -204 q 237 -279 249 -251 q 206 -322 225 -307 q 162 -343 186 -337 q 114 -351 138 -349 l 114 -301 q 150 -280 138 -294 q 164 -233 163 -265 l 93 -233 l 93 -69 l 249 -69 z "},"ł":{"ha":333,"x_min":-17,"x_max":350,"o":"m 71 392 l -17 333 l -17 456 l 71 514 l 71 992 l 263 992 l 263 640 l 350 697 l 350 575 l 263 518 l 263 0 l 71 0 l 71 392 z "},"ŀ":{"ha":551,"x_min":71,"x_max":496,"o":"m 71 992 l 263 992 l 263 0 l 71 0 l 71 992 m 496 749 l 496 585 l 340 585 l 340 749 l 496 749 z "},"ń":{"ha":694,"x_min":64,"x_max":631,"o":"m 64 747 l 247 747 l 247 660 l 250 660 q 329 741 281 715 q 440 767 378 767 q 581 717 532 767 q 631 554 631 667 l 631 0 l 439 0 l 439 515 q 419 597 439 574 q 357 619 400 619 q 256 496 256 619 l 256 0 l 64 0 l 64 747 m 346 1036 l 538 1036 l 401 836 l 271 836 l 346 1036 z "},"ň":{"ha":694,"x_min":64,"x_max":631,"o":"m 64 747 l 247 747 l 247 660 l 250 660 q 329 741 281 715 q 440 767 378 767 q 581 717 532 767 q 631 554 631 667 l 631 0 l 439 0 l 439 515 q 419 597 439 574 q 357 619 400 619 q 256 496 256 619 l 256 0 l 64 0 l 64 747 m 136 1036 l 283 1036 l 347 918 l 414 1036 l 553 1036 l 444 836 l 244 836 l 136 1036 z "},"ñ":{"ha":694,"x_min":64,"x_max":631,"o":"m 64 747 l 247 747 l 247 660 l 250 660 q 329 741 281 715 q 440 767 378 767 q 581 717 532 767 q 631 554 631 667 l 631 0 l 439 0 l 439 515 q 419 597 439 574 q 357 619 400 619 q 256 496 256 619 l 256 0 l 64 0 l 64 747 m 119 849 q 163 976 131 932 q 249 1021 196 1021 q 308 1011 288 1021 l 375 982 q 417 974 396 974 q 446 992 436 974 q 456 1024 456 1010 l 556 1024 q 514 900 549 949 q 426 851 479 851 q 382 859 404 851 q 338 875 360 867 q 297 891 317 883 q 261 899 278 899 q 217 849 226 899 l 119 849 z "},"ņ":{"ha":694,"x_min":64,"x_max":631,"o":"m 64 747 l 247 747 l 247 660 l 250 660 q 329 741 281 715 q 440 767 378 767 q 581 717 532 767 q 631 554 631 667 l 631 0 l 439 0 l 439 515 q 419 597 439 574 q 357 619 400 619 q 256 496 256 619 l 256 0 l 64 0 l 64 747 m 428 -69 l 428 -204 q 416 -279 428 -251 q 385 -322 404 -307 q 341 -343 365 -337 q 293 -351 317 -349 l 293 -301 q 329 -280 317 -294 q 343 -233 342 -265 l 272 -233 l 272 -69 l 428 -69 z "},"ŉ":{"ha":736,"x_min":43,"x_max":672,"o":"m 106 747 l 289 747 l 289 660 l 292 660 q 371 741 322 715 q 482 767 419 767 q 623 717 574 767 q 672 554 672 667 l 672 0 l 481 0 l 481 515 q 461 597 481 574 q 399 619 442 619 q 297 496 297 619 l 297 0 l 106 0 l 106 747 m 199 1156 l 199 1021 q 187 946 199 974 q 156 903 175 918 q 112 882 136 888 q 64 874 88 876 l 64 924 q 100 945 88 931 q 114 992 113 960 l 43 992 l 43 1156 l 199 1156 z "},"ò":{"ha":667,"x_min":39,"x_max":628,"o":"m 39 374 q 54 543 39 469 q 104 666 69 617 q 195 741 139 715 q 333 767 251 767 q 476 744 419 768 q 567 669 533 719 q 614 545 600 619 q 628 374 628 471 q 613 204 628 278 q 563 81 597 131 q 472 6 528 32 q 333 -19 415 -19 q 190 3 247 -21 q 100 78 133 28 q 53 201 67 128 q 39 374 39 275 m 231 374 q 233 268 231 317 q 247 185 236 219 q 277 131 257 150 q 333 111 297 111 q 414 172 392 111 q 436 374 436 233 q 414 575 436 514 q 333 636 392 636 q 277 617 297 636 q 247 563 257 597 q 233 479 236 528 q 231 374 231 431 m 285 836 l 149 1036 l 340 1036 l 415 836 l 285 836 z "},"ó":{"ha":667,"x_min":39,"x_max":628,"o":"m 39 374 q 54 543 39 469 q 104 666 69 617 q 195 741 139 715 q 333 767 251 767 q 476 744 419 768 q 567 669 533 719 q 614 545 600 619 q 628 374 628 471 q 613 204 628 278 q 563 81 597 131 q 472 6 528 32 q 333 -19 415 -19 q 190 3 247 -21 q 100 78 133 28 q 53 201 67 128 q 39 374 39 275 m 231 374 q 233 268 231 317 q 247 185 236 219 q 277 131 257 150 q 333 111 297 111 q 414 172 392 111 q 436 374 436 233 q 414 575 436 514 q 333 636 392 636 q 277 617 297 636 q 247 563 257 597 q 233 479 236 528 q 231 374 231 431 m 340 1036 l 532 1036 l 396 836 l 265 836 l 340 1036 z "},"ô":{"ha":667,"x_min":39,"x_max":628,"o":"m 39 374 q 54 543 39 469 q 104 666 69 617 q 195 741 139 715 q 333 767 251 767 q 476 744 419 768 q 567 669 533 719 q 614 545 600 619 q 628 374 628 471 q 613 204 628 278 q 563 81 597 131 q 472 6 528 32 q 333 -19 415 -19 q 190 3 247 -21 q 100 78 133 28 q 53 201 67 128 q 39 374 39 275 m 231 374 q 233 268 231 317 q 247 185 236 219 q 277 131 257 150 q 333 111 297 111 q 414 172 392 111 q 436 374 436 233 q 414 575 436 514 q 333 636 392 636 q 277 617 297 636 q 247 563 257 597 q 233 479 236 528 q 231 374 231 431 m 233 1036 l 433 1036 l 542 836 l 394 836 l 331 954 l 264 836 l 125 836 l 233 1036 z "},"õ":{"ha":667,"x_min":39,"x_max":628,"o":"m 39 374 q 54 543 39 469 q 104 666 69 617 q 195 741 139 715 q 333 767 251 767 q 476 744 419 768 q 567 669 533 719 q 614 545 600 619 q 628 374 628 471 q 613 204 628 278 q 563 81 597 131 q 472 6 528 32 q 333 -19 415 -19 q 190 3 247 -21 q 100 78 133 28 q 53 201 67 128 q 39 374 39 275 m 231 374 q 233 268 231 317 q 247 185 236 219 q 277 131 257 150 q 333 111 297 111 q 414 172 392 111 q 436 374 436 233 q 414 575 436 514 q 333 636 392 636 q 277 617 297 636 q 247 563 257 597 q 233 479 236 528 q 231 374 231 431 m 115 849 q 159 976 126 932 q 244 1021 192 1021 q 304 1011 283 1021 l 371 982 q 413 974 392 974 q 442 992 432 974 q 451 1024 451 1010 l 551 1024 q 510 900 544 949 q 422 851 475 851 q 378 859 400 851 q 334 875 356 867 q 293 891 313 883 q 257 899 274 899 q 213 849 222 899 l 115 849 z "},"ö":{"ha":667,"x_min":39,"x_max":628,"o":"m 39 374 q 54 543 39 469 q 104 666 69 617 q 195 741 139 715 q 333 767 251 767 q 476 744 419 768 q 567 669 533 719 q 614 545 600 619 q 628 374 628 471 q 613 204 628 278 q 563 81 597 131 q 472 6 528 32 q 333 -19 415 -19 q 190 3 247 -21 q 100 78 133 28 q 53 201 67 128 q 39 374 39 275 m 231 374 q 233 268 231 317 q 247 185 236 219 q 277 131 257 150 q 333 111 297 111 q 414 172 392 111 q 436 374 436 233 q 414 575 436 514 q 333 636 392 636 q 277 617 297 636 q 247 563 257 597 q 233 479 236 528 q 231 374 231 431 m 375 1018 l 531 1018 l 531 854 l 375 854 l 375 1018 m 136 1018 l 292 1018 l 292 854 l 136 854 l 136 1018 z "},"ō":{"ha":667,"x_min":39,"x_max":628,"o":"m 39 374 q 54 543 39 469 q 104 666 69 617 q 195 741 139 715 q 333 767 251 767 q 476 744 419 768 q 567 669 533 719 q 614 545 600 619 q 628 374 628 471 q 613 204 628 278 q 563 81 597 131 q 472 6 528 32 q 333 -19 415 -19 q 190 3 247 -21 q 100 78 133 28 q 53 201 67 128 q 39 374 39 275 m 231 374 q 233 268 231 317 q 247 185 236 219 q 277 131 257 150 q 333 111 297 111 q 414 172 392 111 q 436 374 436 233 q 414 575 436 514 q 333 636 392 636 q 277 617 297 636 q 247 563 257 597 q 233 479 236 528 q 231 374 231 431 m 536 989 l 536 883 l 128 883 l 128 989 l 536 989 z "},"ŏ":{"ha":667,"x_min":39,"x_max":628,"o":"m 39 374 q 54 543 39 469 q 104 666 69 617 q 195 741 139 715 q 333 767 251 767 q 476 744 419 768 q 567 669 533 719 q 614 545 600 619 q 628 374 628 471 q 613 204 628 278 q 563 81 597 131 q 472 6 528 32 q 333 -19 415 -19 q 190 3 247 -21 q 100 78 133 28 q 53 201 67 128 q 39 374 39 275 m 231 374 q 233 268 231 317 q 247 185 236 219 q 277 131 257 150 q 333 111 297 111 q 414 172 392 111 q 436 374 436 233 q 414 575 436 514 q 333 636 392 636 q 277 617 297 636 q 247 563 257 597 q 233 479 236 528 q 231 374 231 431 m 231 1035 q 264 969 235 994 q 333 944 293 944 q 403 969 374 944 q 436 1035 432 994 l 526 1035 q 517 973 526 1007 q 486 909 508 939 q 426 859 464 879 q 333 839 389 839 q 240 859 276 839 q 181 909 203 879 q 149 973 158 939 q 140 1035 140 1007 l 231 1035 z "},"ő":{"ha":667,"x_min":39,"x_max":644,"o":"m 39 374 q 54 543 39 469 q 104 666 69 617 q 195 741 139 715 q 333 767 251 767 q 476 744 419 768 q 567 669 533 719 q 614 545 600 619 q 628 374 628 471 q 613 204 628 278 q 563 81 597 131 q 472 6 528 32 q 333 -19 415 -19 q 190 3 247 -21 q 100 78 133 28 q 53 201 67 128 q 39 374 39 275 m 231 374 q 233 268 231 317 q 247 185 236 219 q 277 131 257 150 q 333 111 297 111 q 414 172 392 111 q 436 374 436 233 q 414 575 436 514 q 333 636 392 636 q 277 617 297 636 q 247 563 257 597 q 233 479 236 528 q 231 374 231 431 m 453 1036 l 644 1036 l 508 836 l 378 836 l 453 1036 m 222 1036 l 414 1036 l 278 836 l 147 836 l 222 1036 z "},"ø":{"ha":667,"x_min":39,"x_max":628,"o":"m 125 49 q 58 176 76 96 q 39 374 39 257 q 54 543 39 469 q 104 666 69 617 q 195 741 139 715 q 333 767 251 767 q 485 738 426 768 l 532 828 l 593 796 l 542 699 q 609 571 590 651 q 628 374 628 490 q 613 204 628 278 q 563 81 597 131 q 472 6 528 32 q 333 -19 415 -19 q 182 10 239 -22 l 135 -81 l 74 -49 l 125 49 m 258 157 q 333 111 281 111 q 414 172 392 111 q 436 374 436 233 q 435 435 436 407 q 433 488 435 464 l 431 488 l 258 157 m 407 589 q 333 636 385 636 q 277 617 297 636 q 247 563 257 597 q 233 479 236 528 q 231 374 231 431 l 231 313 q 231 284 231 297 q 233 258 232 271 l 236 258 l 407 589 z "},"œ":{"ha":1029,"x_min":40,"x_max":989,"o":"m 806 458 q 800 534 804 501 q 785 590 796 567 q 756 624 775 613 q 708 636 738 636 q 660 623 679 636 q 631 588 642 610 q 615 540 619 567 q 610 488 610 514 l 610 458 l 806 458 m 338 111 q 416 172 394 111 q 438 374 438 233 q 415 575 438 514 q 335 636 393 636 q 278 617 299 636 q 248 563 258 597 q 235 479 238 528 q 232 374 232 431 q 235 268 232 317 q 248 185 238 219 q 280 131 258 150 q 338 111 301 111 m 610 344 l 610 285 q 615 220 610 251 q 631 165 619 189 q 660 126 642 140 q 704 111 678 111 q 775 146 753 111 q 806 251 797 181 l 978 251 q 910 51 972 121 q 718 -19 847 -19 q 585 15 631 -19 q 524 90 539 49 q 447 9 504 38 q 318 -19 390 -19 q 184 6 238 -19 q 99 80 131 31 q 53 203 67 129 q 40 374 40 276 q 56 543 40 469 q 106 666 71 617 q 197 741 140 715 q 335 767 253 767 q 460 741 414 767 q 533 663 506 715 q 610 740 561 714 q 715 767 660 767 q 852 740 799 767 q 936 663 906 713 q 978 544 967 614 q 989 388 989 474 l 989 344 l 610 344 z "},"ŕ":{"ha":463,"x_min":64,"x_max":457,"o":"m 64 747 l 247 747 l 247 647 l 250 647 q 321 734 279 701 q 422 767 363 767 q 440 766 431 767 q 457 764 449 765 l 457 581 q 427 583 442 582 q 397 583 413 583 q 347 576 372 583 q 301 553 322 569 q 268 512 281 538 q 256 449 256 486 l 256 0 l 64 0 l 64 747 m 188 1036 l 379 1036 l 243 836 l 113 836 l 188 1036 z "},"ŗ":{"ha":463,"x_min":64,"x_max":457,"o":"m 64 747 l 247 747 l 247 647 l 250 647 q 321 734 279 701 q 422 767 363 767 q 440 766 431 767 q 457 764 449 765 l 457 581 q 427 583 442 582 q 397 583 413 583 q 347 576 372 583 q 301 553 322 569 q 268 512 281 538 q 256 449 256 486 l 256 0 l 64 0 l 64 747 m 243 -69 l 243 -204 q 231 -279 243 -251 q 200 -322 219 -307 q 156 -343 181 -337 q 108 -351 132 -349 l 108 -301 q 144 -280 132 -294 q 158 -233 157 -265 l 88 -233 l 88 -69 l 243 -69 z "},"ř":{"ha":463,"x_min":56,"x_max":472,"o":"m 64 747 l 247 747 l 247 647 l 250 647 q 321 734 279 701 q 422 767 363 767 q 440 766 431 767 q 457 764 449 765 l 457 581 q 427 583 442 582 q 397 583 413 583 q 347 576 372 583 q 301 553 322 569 q 268 512 281 538 q 256 449 256 486 l 256 0 l 64 0 l 64 747 m 56 1036 l 203 1036 l 267 918 l 333 1036 l 472 1036 l 364 836 l 164 836 l 56 1036 z "},"ś":{"ha":617,"x_min":32,"x_max":585,"o":"m 204 244 l 204 219 q 230 141 204 171 q 304 111 256 111 q 375 133 349 111 q 401 200 401 156 q 381 255 401 236 q 332 285 360 274 l 197 333 q 78 412 118 361 q 38 542 38 463 q 53 628 38 588 q 101 700 68 669 q 187 749 135 731 q 313 767 239 767 q 506 711 443 767 q 568 554 568 656 l 568 524 l 396 524 q 377 609 396 582 q 311 636 358 636 q 248 616 275 636 q 221 556 221 596 q 238 506 221 528 q 304 468 256 483 l 419 429 q 547 349 510 399 q 585 215 585 300 q 564 113 585 157 q 506 39 543 68 q 418 -5 469 10 q 307 -19 367 -19 q 172 -3 225 -19 q 88 45 119 14 q 44 120 57 76 q 32 218 32 164 l 32 244 l 204 244 m 313 1036 l 504 1036 l 368 836 l 238 836 l 313 1036 z "},"ŝ":{"ha":617,"x_min":32,"x_max":585,"o":"m 204 244 l 204 219 q 230 141 204 171 q 304 111 256 111 q 375 133 349 111 q 401 200 401 156 q 381 255 401 236 q 332 285 360 274 l 197 333 q 78 412 118 361 q 38 542 38 463 q 53 628 38 588 q 101 700 68 669 q 187 749 135 731 q 313 767 239 767 q 506 711 443 767 q 568 554 568 656 l 568 524 l 396 524 q 377 609 396 582 q 311 636 358 636 q 248 616 275 636 q 221 556 221 596 q 238 506 221 528 q 304 468 256 483 l 419 429 q 547 349 510 399 q 585 215 585 300 q 564 113 585 157 q 506 39 543 68 q 418 -5 469 10 q 307 -19 367 -19 q 172 -3 225 -19 q 88 45 119 14 q 44 120 57 76 q 32 218 32 164 l 32 244 l 204 244 m 215 1036 l 415 1036 l 524 836 l 376 836 l 313 954 l 246 836 l 107 836 l 215 1036 z "},"š":{"ha":617,"x_min":32,"x_max":585,"o":"m 204 244 l 204 219 q 230 141 204 171 q 304 111 256 111 q 375 133 349 111 q 401 200 401 156 q 381 255 401 236 q 332 285 360 274 l 197 333 q 78 412 118 361 q 38 542 38 463 q 53 628 38 588 q 101 700 68 669 q 187 749 135 731 q 313 767 239 767 q 506 711 443 767 q 568 554 568 656 l 568 524 l 396 524 q 377 609 396 582 q 311 636 358 636 q 248 616 275 636 q 221 556 221 596 q 238 506 221 528 q 304 468 256 483 l 419 429 q 547 349 510 399 q 585 215 585 300 q 564 113 585 157 q 506 39 543 68 q 418 -5 469 10 q 307 -19 367 -19 q 172 -3 225 -19 q 88 45 119 14 q 44 120 57 76 q 32 218 32 164 l 32 244 l 204 244 m 101 1036 l 249 1036 l 313 918 l 379 1036 l 518 1036 l 410 836 l 210 836 l 101 1036 z "},"ş":{"ha":617,"x_min":32,"x_max":585,"o":"m 204 244 l 204 219 q 230 141 204 171 q 304 111 256 111 q 375 133 349 111 q 401 200 401 156 q 381 255 401 236 q 332 285 360 274 l 197 333 q 78 412 118 361 q 38 542 38 463 q 53 628 38 588 q 101 700 68 669 q 187 749 135 731 q 313 767 239 767 q 506 711 443 767 q 568 554 568 656 l 568 524 l 396 524 q 377 609 396 582 q 311 636 358 636 q 248 616 275 636 q 221 556 221 596 q 238 506 221 528 q 304 468 256 483 l 419 429 q 547 349 510 399 q 585 215 585 300 q 540 72 585 128 q 418 -4 494 17 q 322 -19 371 -18 l 282 -81 q 305 -75 294 -76 q 328 -74 315 -74 q 372 -80 350 -74 q 410 -99 393 -86 q 436 -130 426 -111 q 444 -174 446 -149 q 399 -269 444 -236 q 269 -301 354 -301 q 185 -293 224 -301 q 131 -275 147 -285 l 157 -211 q 199 -226 172 -219 q 253 -232 226 -232 q 302 -219 282 -232 q 322 -186 322 -207 q 306 -154 322 -165 q 261 -142 289 -143 q 235 -144 246 -142 q 214 -150 225 -146 l 183 -122 l 251 -17 q 172 -3 204 -12 q 62 79 92 22 q 32 218 32 136 l 32 244 l 204 244 z "},"ș":{"ha":617,"x_min":32,"x_max":585,"o":"m 204 244 l 204 219 q 230 141 204 171 q 304 111 256 111 q 375 133 349 111 q 401 200 401 156 q 381 255 401 236 q 332 285 360 274 l 197 333 q 78 412 118 361 q 38 542 38 463 q 53 628 38 588 q 101 700 68 669 q 187 749 135 731 q 313 767 239 767 q 506 711 443 767 q 568 554 568 656 l 568 524 l 396 524 q 377 609 396 582 q 311 636 358 636 q 248 616 275 636 q 221 556 221 596 q 238 506 221 528 q 304 468 256 483 l 419 429 q 547 349 510 399 q 585 215 585 300 q 564 113 585 157 q 506 39 543 68 q 418 -5 469 10 q 307 -19 367 -19 q 172 -3 225 -19 q 88 45 119 14 q 44 120 57 76 q 32 218 32 164 l 32 244 l 204 244 m 386 -69 l 386 -204 q 374 -279 386 -251 q 343 -322 363 -307 q 299 -343 324 -337 q 251 -351 275 -349 l 251 -301 q 288 -280 275 -294 q 301 -233 300 -265 l 231 -233 l 231 -69 l 386 -69 z "},"ß":{"ha":694,"x_min":57,"x_max":656,"o":"m 57 0 l 57 732 q 128 945 57 879 q 351 1011 200 1011 q 555 951 485 1011 q 625 774 625 892 q 619 704 625 735 q 600 649 614 674 q 562 604 586 624 q 501 569 538 585 l 501 567 q 620 483 585 553 q 656 300 656 413 q 647 194 656 249 q 610 95 638 140 q 535 21 583 50 q 407 -8 486 -8 q 357 -7 383 -8 q 315 -3 331 -6 l 315 128 q 344 122 328 122 q 406 136 382 122 q 442 176 429 150 q 460 240 456 203 q 464 325 464 278 q 440 447 464 401 q 353 493 417 493 l 318 493 l 318 624 l 342 624 q 413 660 392 624 q 433 756 433 697 q 429 803 433 781 q 415 842 425 825 q 386 870 404 860 q 342 881 368 881 q 267 838 285 881 q 249 728 249 794 l 249 0 l 57 0 z "},"ť":{"ha":569,"x_min":8,"x_max":611,"o":"m 444 992 l 611 992 l 524 792 l 399 792 l 444 992 m 106 961 l 297 961 l 297 747 l 408 747 l 408 617 l 297 617 l 297 213 q 310 149 297 168 q 365 131 324 131 q 388 131 376 131 q 408 133 399 132 l 408 0 q 347 -6 376 -3 q 283 -8 317 -8 q 192 1 226 -8 q 138 34 157 11 q 113 94 119 57 q 106 189 106 132 l 106 617 l 8 617 l 8 747 l 106 747 l 106 961 z "},"ţ":{"ha":411,"x_min":8,"x_max":408,"o":"m 106 961 l 297 961 l 297 747 l 408 747 l 408 617 l 297 617 l 297 213 q 310 149 297 168 q 365 131 324 131 q 388 131 376 131 q 408 133 399 132 l 408 0 q 347 -6 376 -3 q 283 -8 317 -8 q 192 1 226 -8 q 138 34 157 11 q 113 94 119 57 q 106 189 106 132 l 106 617 l 8 617 l 8 747 l 106 747 l 106 961 m 347 -69 l 347 -204 q 335 -279 347 -251 q 304 -322 324 -307 q 260 -343 285 -337 q 213 -351 236 -349 l 213 -301 q 249 -280 236 -294 q 263 -233 261 -265 l 192 -233 l 192 -69 l 347 -69 z "},"ț":{"ha":411,"x_min":8,"x_max":408,"o":"m 106 961 l 297 961 l 297 747 l 408 747 l 408 617 l 297 617 l 297 213 q 310 149 297 168 q 365 131 324 131 q 388 131 376 131 q 408 133 399 132 l 408 0 q 347 -6 376 -3 q 283 -8 317 -8 q 192 1 226 -8 q 138 34 157 11 q 113 94 119 57 q 106 189 106 132 l 106 617 l 8 617 l 8 747 l 106 747 l 106 961 m 347 -69 l 347 -204 q 335 -279 347 -251 q 304 -322 324 -307 q 260 -343 285 -337 q 213 -351 236 -349 l 213 -301 q 249 -280 236 -294 q 263 -233 261 -265 l 192 -233 l 192 -69 l 347 -69 z "},"ŧ":{"ha":411,"x_min":-7,"x_max":421,"o":"m 106 961 l 297 961 l 297 747 l 408 747 l 408 617 l 297 617 l 297 481 l 421 481 l 421 396 l 297 396 l 297 213 q 310 149 297 168 q 365 131 324 131 q 388 131 376 131 q 408 133 399 132 l 408 0 q 347 -6 376 -3 q 283 -8 317 -8 q 192 1 226 -8 q 138 34 157 11 q 113 94 119 57 q 106 189 106 132 l 106 396 l -7 396 l -7 481 l 106 481 l 106 617 l 8 617 l 8 747 l 106 747 l 106 961 z "},"þ":{"ha":694,"x_min":64,"x_max":649,"o":"m 64 992 l 256 992 l 256 668 l 258 668 q 322 744 283 721 q 419 767 361 767 q 593 674 538 767 q 649 374 649 582 q 593 73 649 165 q 419 -19 538 -19 q 327 3 365 -19 q 258 69 289 25 l 256 69 l 256 -244 l 64 -244 l 64 992 m 256 374 q 274 190 256 251 q 357 128 293 128 q 438 190 419 128 q 457 374 457 251 q 438 558 457 496 q 357 619 419 619 q 274 558 293 619 q 256 374 256 496 z "},"ù":{"ha":694,"x_min":64,"x_max":631,"o":"m 447 88 l 444 88 q 365 6 414 32 q 254 -19 317 -19 q 113 31 163 -19 q 64 193 64 81 l 64 747 l 256 747 l 256 232 q 275 151 256 174 q 338 128 294 128 q 439 251 439 128 l 439 747 l 631 747 l 631 0 l 447 0 l 447 88 m 303 836 l 167 1036 l 358 1036 l 433 836 l 303 836 z "},"ú":{"ha":694,"x_min":64,"x_max":631,"o":"m 447 88 l 444 88 q 365 6 414 32 q 254 -19 317 -19 q 113 31 163 -19 q 64 193 64 81 l 64 747 l 256 747 l 256 232 q 275 151 256 174 q 338 128 294 128 q 439 251 439 128 l 439 747 l 631 747 l 631 0 l 447 0 l 447 88 m 353 1036 l 544 1036 l 408 836 l 278 836 l 353 1036 z "},"û":{"ha":694,"x_min":64,"x_max":631,"o":"m 447 88 l 444 88 q 365 6 414 32 q 254 -19 317 -19 q 113 31 163 -19 q 64 193 64 81 l 64 747 l 256 747 l 256 232 q 275 151 256 174 q 338 128 294 128 q 439 251 439 128 l 439 747 l 631 747 l 631 0 l 447 0 l 447 88 m 247 1036 l 447 1036 l 556 836 l 408 836 l 344 954 l 278 836 l 139 836 l 247 1036 z "},"ũ":{"ha":694,"x_min":64,"x_max":631,"o":"m 447 88 l 444 88 q 365 6 414 32 q 254 -19 317 -19 q 113 31 163 -19 q 64 193 64 81 l 64 747 l 256 747 l 256 232 q 275 151 256 174 q 338 128 294 128 q 439 251 439 128 l 439 747 l 631 747 l 631 0 l 447 0 l 447 88 m 129 849 q 173 976 140 932 q 258 1021 206 1021 q 318 1011 297 1021 l 385 982 q 426 974 406 974 q 456 992 446 974 q 465 1024 465 1010 l 565 1024 q 524 900 558 949 q 436 851 489 851 q 392 859 414 851 q 348 875 369 867 q 307 891 326 883 q 271 899 288 899 q 226 849 236 899 l 129 849 z "},"ü":{"ha":694,"x_min":64,"x_max":631,"o":"m 447 88 l 444 88 q 365 6 414 32 q 254 -19 317 -19 q 113 31 163 -19 q 64 193 64 81 l 64 747 l 256 747 l 256 232 q 275 151 256 174 q 338 128 294 128 q 439 251 439 128 l 439 747 l 631 747 l 631 0 l 447 0 l 447 88 m 389 1018 l 544 1018 l 544 854 l 389 854 l 389 1018 m 150 1018 l 306 1018 l 306 854 l 150 854 l 150 1018 z "},"ū":{"ha":694,"x_min":64,"x_max":631,"o":"m 447 88 l 444 88 q 365 6 414 32 q 254 -19 317 -19 q 113 31 163 -19 q 64 193 64 81 l 64 747 l 256 747 l 256 232 q 275 151 256 174 q 338 128 294 128 q 439 251 439 128 l 439 747 l 631 747 l 631 0 l 447 0 l 447 88 m 551 989 l 551 883 l 143 883 l 143 989 l 551 989 z "},"ŭ":{"ha":694,"x_min":64,"x_max":631,"o":"m 447 88 l 444 88 q 365 6 414 32 q 254 -19 317 -19 q 113 31 163 -19 q 64 193 64 81 l 64 747 l 256 747 l 256 232 q 275 151 256 174 q 338 128 294 128 q 439 251 439 128 l 439 747 l 631 747 l 631 0 l 447 0 l 447 88 m 246 1035 q 279 969 250 994 q 349 944 308 944 q 418 969 389 944 q 451 1035 447 994 l 542 1035 q 533 973 542 1007 q 501 909 524 939 q 442 859 479 879 q 349 839 404 839 q 255 859 292 839 q 196 909 218 879 q 165 973 174 939 q 156 1035 156 1007 l 246 1035 z "},"ů":{"ha":694,"x_min":64,"x_max":631,"o":"m 447 88 l 444 88 q 365 6 414 32 q 254 -19 317 -19 q 113 31 163 -19 q 64 193 64 81 l 64 747 l 256 747 l 256 232 q 275 151 256 174 q 338 128 294 128 q 439 251 439 128 l 439 747 l 631 747 l 631 0 l 447 0 l 447 88 m 268 958 q 291 902 268 925 q 347 879 314 879 q 403 902 381 879 q 426 958 426 925 q 403 1015 426 992 q 347 1038 381 1038 q 291 1015 314 1038 q 268 958 268 992 m 190 958 q 203 1020 190 992 q 237 1069 215 1049 q 287 1100 258 1089 q 347 1111 315 1111 q 408 1100 379 1111 q 458 1069 436 1089 q 492 1020 479 1049 q 504 958 504 992 q 458 849 504 889 q 347 808 413 808 q 235 849 281 808 q 190 958 190 889 z "},"ű":{"ha":694,"x_min":64,"x_max":654,"o":"m 447 88 l 444 88 q 365 6 414 32 q 254 -19 317 -19 q 113 31 163 -19 q 64 193 64 81 l 64 747 l 256 747 l 256 232 q 275 151 256 174 q 338 128 294 128 q 439 251 439 128 l 439 747 l 631 747 l 631 0 l 447 0 l 447 88 m 463 1036 l 654 1036 l 518 836 l 388 836 l 463 1036 m 232 1036 l 424 1036 l 288 836 l 157 836 l 232 1036 z "},"ų":{"ha":694,"x_min":64,"x_max":631,"o":"m 447 88 l 444 88 q 365 6 414 32 q 254 -19 317 -19 q 113 31 163 -19 q 64 193 64 81 l 64 747 l 256 747 l 256 232 q 275 151 256 174 q 338 128 294 128 q 439 251 439 128 l 439 747 l 631 747 l 631 0 l 542 0 q 482 -58 503 -35 q 447 -106 461 -82 q 430 -143 433 -129 q 426 -178 426 -157 q 461 -212 426 -212 q 496 -208 479 -212 q 540 -185 513 -203 l 578 -253 q 510 -291 542 -281 q 435 -301 479 -301 q 375 -291 399 -301 q 338 -265 351 -281 q 320 -231 325 -250 q 315 -192 315 -211 q 353 -90 315 -139 q 447 0 392 -40 l 447 88 z "},"ŵ":{"ha":978,"x_min":10,"x_max":968,"o":"m 10 747 l 201 747 l 289 217 l 292 217 l 385 747 l 593 747 l 692 217 l 694 217 l 785 747 l 968 747 l 807 0 l 589 0 l 490 531 l 488 531 l 394 0 l 172 0 l 10 747 m 390 1036 l 590 1036 l 699 836 l 551 836 l 488 954 l 421 836 l 282 836 l 390 1036 z "},"ý":{"ha":617,"x_min":7,"x_max":610,"o":"m 64 -101 q 114 -106 89 -106 q 190 -78 167 -106 q 217 0 213 -50 l 7 747 l 207 747 l 318 231 l 321 231 l 418 747 l 610 747 l 429 50 q 390 -83 421 -3 q 327 -194 358 -162 q 252 -235 296 -225 q 142 -244 208 -244 l 64 -244 l 64 -101 m 322 1036 l 514 1036 l 378 836 l 247 836 l 322 1036 z "},"ŷ":{"ha":617,"x_min":7,"x_max":610,"o":"m 64 -101 q 114 -106 89 -106 q 190 -78 167 -106 q 217 0 213 -50 l 7 747 l 207 747 l 318 231 l 321 231 l 418 747 l 610 747 l 429 50 q 390 -83 421 -3 q 327 -194 358 -162 q 252 -235 296 -225 q 142 -244 208 -244 l 64 -244 l 64 -101 m 219 1036 l 419 1036 l 528 836 l 381 836 l 317 954 l 250 836 l 111 836 l 219 1036 z "},"ÿ":{"ha":617,"x_min":7,"x_max":610,"o":"m 64 -101 q 114 -106 89 -106 q 190 -78 167 -106 q 217 0 213 -50 l 7 747 l 207 747 l 318 231 l 321 231 l 418 747 l 610 747 l 429 50 q 390 -83 421 -3 q 327 -194 358 -162 q 252 -235 296 -225 q 142 -244 208 -244 l 64 -244 l 64 -101 m 363 1018 l 518 1018 l 518 854 l 363 854 l 363 1018 m 124 1018 l 279 1018 l 279 854 l 124 854 l 124 1018 z "},"ź":{"ha":592,"x_min":33,"x_max":558,"o":"m 33 147 l 332 592 l 47 592 l 47 747 l 558 747 l 558 600 l 260 156 l 558 156 l 558 0 l 33 0 l 33 147 m 308 1036 l 500 1036 l 364 836 l 233 836 l 308 1036 z "},"ž":{"ha":592,"x_min":33,"x_max":558,"o":"m 33 147 l 332 592 l 47 592 l 47 747 l 558 747 l 558 600 l 260 156 l 558 156 l 558 0 l 33 0 l 33 147 m 96 1036 l 243 1036 l 307 918 l 374 1036 l 513 1036 l 404 836 l 204 836 l 96 1036 z "},"ż":{"ha":592,"x_min":33,"x_max":558,"o":"m 33 147 l 332 592 l 47 592 l 47 747 l 558 747 l 558 600 l 260 156 l 558 156 l 558 0 l 33 0 l 33 147 m 381 1018 l 381 854 l 225 854 l 225 1018 l 381 1018 z "},"Ĳ":{"ha":999,"x_min":79,"x_max":938,"o":"m 79 0 l 79 992 l 279 992 l 279 0 l 79 0 m 938 992 l 938 278 q 864 50 938 119 q 639 -19 790 -19 q 509 4 560 -19 q 428 67 458 28 q 388 160 399 107 q 376 271 376 213 l 376 314 l 560 314 l 560 283 q 577 166 560 204 q 649 128 594 128 q 720 166 703 128 q 738 283 738 204 l 738 992 l 938 992 z "},"ﬁ":{"ha":746,"x_min":8,"x_max":676,"o":"m 106 617 l 8 617 l 8 747 l 106 747 l 106 832 q 119 917 106 882 q 159 972 133 951 q 222 1002 185 993 q 306 1011 260 1011 q 408 1007 356 1011 l 408 871 q 389 872 401 872 l 371 872 q 314 858 331 872 q 297 813 297 844 l 297 747 l 408 747 l 408 617 l 297 617 l 297 0 l 106 0 l 106 617 m 485 1003 l 676 1003 l 676 839 l 485 839 l 485 1003 m 485 747 l 676 747 l 676 0 l 485 0 l 485 747 z "},"ﬂ":{"ha":746,"x_min":8,"x_max":676,"o":"m 106 617 l 8 617 l 8 747 l 106 747 l 106 832 q 119 917 106 882 q 159 972 133 951 q 222 1002 185 993 q 306 1011 260 1011 q 408 1007 356 1011 l 408 871 q 389 872 401 872 l 371 872 q 314 858 331 872 q 297 813 297 844 l 297 747 l 408 747 l 408 617 l 297 617 l 297 0 l 106 0 l 106 617 m 485 992 l 676 992 l 676 0 l 485 0 l 485 992 z "},"ĳ":{"ha":667,"x_min":71,"x_max":596,"o":"m 71 1003 l 263 1003 l 263 839 l 71 839 l 71 1003 m 71 747 l 263 747 l 263 0 l 71 0 l 71 747 m 404 1003 l 596 1003 l 596 839 l 404 839 l 404 1003 m 404 747 l 596 747 l 596 -51 q 585 -135 596 -99 q 550 -195 575 -171 q 483 -232 525 -219 q 376 -244 440 -244 q 340 -244 360 -244 q 299 -242 319 -243 l 299 -103 q 314 -106 307 -106 l 329 -106 q 369 -99 354 -106 q 392 -77 385 -92 q 402 -40 400 -62 q 404 14 404 -18 l 404 747 z "},"´":{"ha":308,"x_min":64,"x_max":331,"o":"m 139 1036 l 331 1036 l 194 836 l 64 836 l 139 1036 z "},"ˆ":{"ha":308,"x_min":-54,"x_max":363,"o":"m 54 1036 l 254 1036 l 363 836 l 215 836 l 151 954 l 85 836 l -54 836 l 54 1036 z "},"ˇ":{"ha":308,"x_min":-54,"x_max":363,"o":"m -54 1036 l 93 1036 l 157 918 l 224 1036 l 363 1036 l 254 836 l 54 836 l -54 1036 z "},"˜":{"ha":308,"x_min":-64,"x_max":372,"o":"m -64 849 q -20 976 -53 932 q 65 1021 13 1021 q 125 1011 104 1021 l 192 982 q 233 974 213 974 q 263 992 253 974 q 272 1024 272 1010 l 372 1024 q 331 900 365 949 q 243 851 296 851 q 199 859 221 851 q 155 875 176 867 q 114 891 133 883 q 78 899 94 899 q 33 849 43 899 l -64 849 z "},"¨":{"ha":308,"x_min":-43,"x_max":351,"o":"m 196 1018 l 351 1018 l 351 854 l 196 854 l 196 1018 m -43 1018 l 113 1018 l 113 854 l -43 854 l -43 1018 z "},"¯":{"ha":308,"x_min":-50,"x_max":358,"o":"m 358 989 l 358 883 l -50 883 l -50 989 l 358 989 z "},"ˉ":{"ha":308,"x_min":-50,"x_max":358,"o":"m 358 989 l 358 883 l -50 883 l -50 989 l 358 989 z "},"˘":{"ha":308,"x_min":-39,"x_max":347,"o":"m 51 1035 q 85 969 56 994 q 154 944 114 944 q 224 969 194 944 q 257 1035 253 994 l 347 1035 q 338 973 347 1007 q 307 909 329 939 q 247 859 285 879 q 154 839 210 839 q 60 859 97 839 q 1 909 24 879 q -30 973 -21 939 q -39 1035 -39 1007 l 51 1035 z "},"˚":{"ha":308,"x_min":-3,"x_max":311,"o":"m 75 958 q 98 902 75 925 q 154 879 121 879 q 210 902 188 879 q 233 958 233 925 q 210 1015 233 992 q 154 1038 188 1038 q 98 1015 121 1038 q 75 958 75 992 m -3 958 q 10 1020 -3 992 q 44 1069 22 1049 q 94 1100 65 1089 q 154 1111 122 1111 q 215 1100 186 1111 q 265 1069 243 1089 q 299 1020 286 1049 q 311 958 311 992 q 265 849 311 889 q 154 808 219 808 q 42 849 88 808 q -3 958 -3 889 z "},"˝":{"ha":308,"x_min":-51,"x_max":446,"o":"m 254 1036 l 446 1036 l 310 836 l 179 836 l 254 1036 m 24 1036 l 215 1036 l 79 836 l -51 836 l 24 1036 z "},"˙":{"ha":308,"x_min":76,"x_max":232,"o":"m 232 1018 l 232 854 l 76 854 l 76 1018 l 232 1018 z "},"¸":{"ha":308,"x_min":0,"x_max":315,"o":"m 204 0 l 151 -81 q 174 -75 164 -76 q 197 -74 185 -74 q 241 -80 219 -74 q 279 -99 263 -86 q 306 -130 296 -111 q 314 -174 315 -149 q 269 -269 314 -236 q 139 -301 224 -301 q 55 -293 93 -301 q 0 -275 17 -285 l 26 -211 q 69 -226 42 -219 q 122 -232 96 -232 q 172 -219 151 -232 q 192 -186 192 -207 q 175 -154 192 -165 q 131 -142 158 -143 q 105 -144 115 -142 q 83 -150 94 -146 l 53 -122 l 132 0 l 204 0 z "},"˛":{"ha":308,"x_min":33,"x_max":325,"o":"m 325 -253 q 251 -291 286 -281 q 167 -301 215 -301 q 100 -291 126 -301 q 59 -265 74 -281 q 39 -231 44 -250 q 33 -192 33 -211 q 79 -88 33 -140 q 204 0 125 -36 l 297 0 q 227 -56 254 -32 q 184 -100 200 -81 q 163 -136 168 -119 q 157 -169 157 -153 q 196 -212 157 -212 q 234 -208 215 -212 q 283 -185 253 -203 l 325 -253 z "},"…":{"ha":1389,"x_min":140,"x_max":1249,"o":"m 1249 217 l 1249 0 l 1065 0 l 1065 217 l 1249 217 m 786 217 l 786 0 l 603 0 l 603 217 l 786 217 m 324 217 l 324 0 l 140 0 l 140 217 l 324 217 z "},"­":{"ha":514,"x_min":61,"x_max":453,"o":"m 453 483 l 453 319 l 61 319 l 61 483 l 453 483 z "},"¡":{"ha":411,"x_min":110,"x_max":301,"o":"m 110 747 l 301 747 l 301 564 l 110 564 l 110 747 m 110 78 l 136 471 l 275 471 l 301 78 l 301 -244 l 110 -244 l 110 78 z "},"¿":{"ha":668,"x_min":50,"x_max":618,"o":"m 251 564 l 251 747 l 443 747 l 443 564 l 251 564 m 618 63 l 618 31 q 601 -85 618 -32 q 549 -175 583 -137 q 463 -234 515 -212 q 343 -256 411 -256 q 123 -183 196 -256 q 50 13 50 -110 q 69 121 50 71 q 138 229 88 171 l 193 292 q 245 365 229 332 q 261 451 261 399 l 261 472 l 433 472 l 433 418 q 414 301 433 349 q 347 200 394 253 l 294 140 q 253 72 265 108 q 242 -7 242 35 q 265 -92 242 -60 q 336 -125 289 -125 q 412 -83 389 -125 q 435 28 435 -40 l 435 63 l 618 63 z "},"‘":{"ha":361,"x_min":89,"x_max":272,"o":"m 89 726 q 97 828 89 782 q 125 909 104 875 q 181 965 146 943 q 272 992 217 986 l 272 894 q 218 856 236 888 q 200 785 200 824 l 200 763 l 272 763 l 272 546 l 89 546 l 89 726 z "},"’":{"ha":361,"x_min":89,"x_max":272,"o":"m 272 811 q 265 709 272 756 q 236 628 257 663 q 180 573 215 594 q 89 546 144 551 l 89 643 q 143 682 125 650 q 161 753 161 714 l 161 775 l 89 775 l 89 992 l 272 992 l 272 811 z "},"“":{"ha":643,"x_min":94,"x_max":549,"o":"m 94 726 q 102 828 94 782 q 131 909 110 875 q 187 965 151 943 q 278 992 222 986 l 278 894 q 224 856 242 888 q 206 785 206 824 l 206 763 l 278 763 l 278 546 l 94 546 l 94 726 m 365 726 q 373 828 365 782 q 401 909 381 875 q 458 965 422 943 q 549 992 493 986 l 549 894 q 494 856 513 888 q 476 785 476 824 l 476 763 l 549 763 l 549 546 l 365 546 l 365 726 z "},"”":{"ha":643,"x_min":94,"x_max":549,"o":"m 365 992 l 549 992 l 549 811 q 541 709 549 756 q 513 628 533 663 q 456 573 492 594 q 365 546 421 551 l 365 643 q 419 682 401 650 q 438 753 438 714 l 438 775 l 365 775 l 365 992 m 94 992 l 278 992 l 278 811 q 270 709 278 756 q 242 628 263 663 q 185 573 221 594 q 94 546 150 551 l 94 643 q 149 682 131 650 q 167 753 167 714 l 167 775 l 94 775 l 94 992 z "},"‚":{"ha":361,"x_min":89,"x_max":272,"o":"m 272 217 l 272 36 q 265 -66 272 -19 q 236 -147 257 -112 q 180 -202 215 -181 q 89 -229 144 -224 l 89 -132 q 143 -93 125 -125 q 161 -22 161 -61 l 161 0 l 89 0 l 89 217 l 272 217 z "},"„":{"ha":643,"x_min":94,"x_max":549,"o":"m 94 217 l 278 217 l 278 36 q 270 -66 278 -19 q 242 -147 263 -112 q 185 -202 221 -181 q 94 -229 150 -224 l 94 -132 q 149 -93 131 -125 q 167 -22 167 -61 l 167 0 l 94 0 l 94 217 m 365 217 l 549 217 l 549 36 q 541 -66 549 -19 q 513 -147 533 -112 q 456 -202 492 -181 q 365 -229 421 -224 l 365 -132 q 419 -93 401 -125 q 438 -22 438 -61 l 438 0 l 365 0 l 365 217 z "},"‹":{"ha":335,"x_min":64,"x_max":271,"o":"m 64 514 l 271 681 l 271 497 l 161 401 l 271 306 l 271 122 l 64 289 l 64 514 z "},"›":{"ha":335,"x_min":64,"x_max":271,"o":"m 64 306 l 174 401 l 64 497 l 64 681 l 271 514 l 271 289 l 64 122 l 64 306 z "},"«":{"ha":592,"x_min":72,"x_max":519,"o":"m 72 514 l 279 681 l 279 497 l 169 401 l 279 306 l 279 122 l 72 289 l 72 514 m 313 514 l 519 681 l 519 497 l 410 401 l 519 306 l 519 122 l 313 289 l 313 514 z "},"»":{"ha":592,"x_min":72,"x_max":519,"o":"m 313 306 l 422 401 l 313 497 l 313 681 l 519 514 l 519 289 l 313 122 l 313 306 m 72 306 l 182 401 l 72 497 l 72 681 l 279 514 l 279 289 l 72 122 l 72 306 z "},"–":{"ha":694,"x_min":0,"x_max":694,"o":"m 0 479 l 694 479 l 694 324 l 0 324 l 0 479 z "},"—":{"ha":1389,"x_min":0,"x_max":1389,"o":"m 0 479 l 1389 479 l 1389 324 l 0 324 l 0 479 z "},"•":{"ha":694,"x_min":100,"x_max":594,"o":"m 100 496 q 119 592 100 547 q 172 671 139 638 q 251 724 206 704 q 347 743 296 743 q 444 724 399 743 q 522 671 489 704 q 575 592 556 638 q 594 496 594 547 q 575 399 594 444 q 522 321 556 354 q 444 268 489 288 q 347 249 399 249 q 251 268 296 249 q 172 321 206 288 q 119 399 139 354 q 100 496 100 444 z "},"·":{"ha":333,"x_min":32,"x_max":301,"o":"m 32 392 q 70 488 32 450 q 167 526 108 526 q 263 488 225 526 q 301 392 301 450 q 263 295 301 333 q 167 257 225 257 q 70 295 108 257 q 32 392 32 333 z "},"∙":{"ha":333,"x_min":32,"x_max":301,"o":"m 32 392 q 70 488 32 450 q 167 526 108 526 q 263 488 225 526 q 301 392 301 450 q 263 295 301 333 q 167 257 225 257 q 70 295 108 257 q 32 392 32 333 z "},"†":{"ha":667,"x_min":4,"x_max":663,"o":"m 238 992 l 429 992 l 429 717 l 663 717 l 663 561 l 429 561 l 429 -192 l 238 -192 l 238 561 l 4 561 l 4 717 l 238 717 l 238 992 z "},"‡":{"ha":667,"x_min":4,"x_max":663,"o":"m 238 72 l 4 72 l 4 228 l 238 228 l 238 572 l 4 572 l 4 728 l 238 728 l 238 992 l 429 992 l 429 728 l 663 728 l 663 572 l 429 572 l 429 228 l 663 228 l 663 72 l 429 72 l 429 -192 l 238 -192 l 238 72 z "},"§":{"ha":667,"x_min":18,"x_max":650,"o":"m 367 303 q 395 286 382 294 q 421 268 408 278 q 472 324 457 299 q 486 372 486 350 q 465 433 486 408 q 392 486 444 458 l 258 557 q 200 506 218 533 q 182 453 182 479 q 194 412 182 433 q 229 378 206 390 l 367 303 m 236 51 l 236 31 q 264 -51 236 -22 q 333 -81 292 -81 q 403 -51 382 -81 q 425 13 425 -22 q 405 78 425 51 q 336 129 385 106 l 165 211 q 52 303 86 249 q 18 425 18 358 q 51 543 18 492 q 143 624 85 594 q 60 782 60 686 q 82 888 60 844 q 142 958 104 931 q 233 999 181 986 q 344 1011 285 1011 q 465 994 415 1011 q 547 948 515 978 q 594 876 579 918 q 608 786 608 835 l 425 786 q 406 854 425 828 q 329 881 385 881 q 266 858 289 881 q 243 801 243 835 q 263 753 243 778 q 332 706 283 729 l 497 628 q 606 544 561 597 q 650 401 650 492 q 642 347 650 376 q 620 291 635 318 q 586 241 606 264 q 542 204 567 218 q 597 135 576 176 q 617 32 617 94 q 542 -153 617 -94 q 333 -211 468 -211 q 122 -147 190 -211 q 53 31 53 -82 l 53 51 l 236 51 z "},"¶":{"ha":667,"x_min":1,"x_max":649,"o":"m 253 465 q 65 531 128 465 q 1 724 1 597 q 22 855 1 803 q 78 938 42 907 q 165 980 114 968 q 276 992 215 992 l 649 992 l 649 -192 l 501 -192 l 501 861 l 400 861 l 400 -192 l 253 -192 l 253 465 z "},"¦":{"ha":308,"x_min":68,"x_max":240,"o":"m 68 1011 l 240 1011 l 240 635 l 68 635 l 68 1011 m 68 357 l 240 357 l 240 -19 l 68 -19 l 68 357 z "},"©":{"ha":1111,"x_min":40,"x_max":1071,"o":"m 40 496 q 81 697 40 603 q 191 860 121 790 q 355 971 261 931 q 556 1011 449 1011 q 756 971 663 1011 q 920 860 850 931 q 1031 697 990 790 q 1071 496 1071 603 q 1031 295 1071 389 q 920 131 990 201 q 756 21 850 61 q 556 -19 663 -19 q 355 21 449 -19 q 191 131 261 61 q 81 295 121 201 q 40 496 40 389 m 196 496 q 223 353 196 421 q 298 236 250 286 q 412 157 346 186 q 556 128 478 128 q 699 157 633 128 q 813 236 765 186 q 888 353 861 286 q 915 496 915 421 q 888 638 915 571 q 813 756 861 706 q 699 835 765 806 q 556 864 633 864 q 412 835 478 864 q 298 756 346 806 q 223 638 250 706 q 196 496 196 571 m 826 414 q 794 321 818 361 q 738 253 771 281 q 663 212 704 226 q 576 197 621 197 q 457 221 510 197 q 367 285 404 244 q 309 382 329 326 q 289 500 289 438 q 308 619 289 564 q 364 715 328 675 q 453 779 400 756 q 572 803 506 803 q 660 789 618 803 q 736 749 703 775 q 792 682 769 722 q 821 590 814 642 l 688 590 q 647 657 676 631 q 565 683 618 683 q 456 631 493 683 q 419 500 419 579 q 429 429 419 463 q 458 371 439 396 q 503 331 476 346 q 564 317 531 317 q 648 343 615 317 q 688 414 681 369 l 826 414 z "},"®":{"ha":1111,"x_min":40,"x_max":1071,"o":"m 196 496 q 223 353 196 421 q 298 236 250 286 q 412 157 346 186 q 556 128 478 128 q 699 157 633 128 q 813 236 765 186 q 888 353 861 286 q 915 496 915 421 q 888 638 915 571 q 813 756 861 706 q 699 835 765 806 q 556 864 633 864 q 412 835 478 864 q 298 756 346 806 q 223 638 250 706 q 196 496 196 571 m 40 496 q 81 697 40 603 q 191 860 121 790 q 355 971 261 931 q 556 1011 449 1011 q 756 971 663 1011 q 920 860 850 931 q 1031 697 990 790 q 1071 496 1071 603 q 1031 295 1071 389 q 920 131 990 201 q 756 21 850 61 q 556 -19 663 -19 q 355 21 449 -19 q 191 131 261 61 q 81 295 121 201 q 40 496 40 389 m 476 539 l 569 539 q 636 551 610 539 q 663 608 663 564 q 653 644 663 631 q 627 665 643 658 q 592 674 611 672 q 557 676 574 676 l 476 676 l 476 539 m 354 774 l 571 774 q 732 729 679 774 q 785 601 785 685 q 745 492 785 531 q 647 447 706 454 l 785 218 l 651 218 l 521 442 l 476 442 l 476 218 l 354 218 l 354 774 z "},"™":{"ha":1375,"x_min":43,"x_max":1317,"o":"m 199 861 l 43 861 l 43 992 l 510 992 l 510 861 l 354 861 l 354 417 l 199 417 l 199 861 m 1169 811 l 1167 811 l 1035 417 l 896 417 l 764 811 l 761 811 l 761 417 l 614 417 l 614 992 l 849 992 l 964 644 l 967 644 l 1082 992 l 1317 992 l 1317 417 l 1169 417 l 1169 811 z "},"¤":{"ha":667,"x_min":0,"x_max":667,"o":"m 163 482 q 208 351 163 399 q 333 303 254 303 q 458 351 413 303 q 504 482 504 399 q 458 613 504 565 q 333 661 413 661 q 208 613 254 661 q 163 482 163 565 m 0 235 l 69 304 q 30 387 44 342 q 15 482 15 432 q 29 576 15 531 q 69 660 43 621 l 0 729 l 85 815 l 156 746 q 240 786 194 772 q 333 800 285 800 q 428 785 383 800 q 511 746 474 771 l 582 815 l 667 729 l 597 660 q 638 576 624 621 q 651 482 651 531 q 638 388 651 433 q 597 304 624 343 l 667 235 l 582 149 l 511 219 q 428 178 474 193 q 333 164 383 164 q 156 219 233 164 l 85 149 l 0 235 z "},"€":{"ha":667,"x_min":36,"x_max":665,"o":"m 601 779 q 464 850 535 850 q 356 782 385 850 q 340 727 346 761 q 332 646 335 693 l 565 646 l 525 538 l 328 538 l 328 467 l 511 467 l 471 358 l 331 358 q 349 208 335 247 q 454 124 375 124 q 633 217 528 124 l 633 43 q 424 -19 526 -19 q 132 358 143 -19 l 36 358 l 76 467 l 129 467 l 131 538 l 36 538 l 78 646 l 135 646 q 451 988 164 988 q 665 918 575 988 l 601 779 z "},"¢":{"ha":667,"x_min":46,"x_max":621,"o":"m 308 -19 q 205 1 253 -17 q 122 61 157 18 q 66 178 86 104 q 46 368 46 253 q 56 517 46 447 q 94 640 65 586 q 174 726 122 693 q 308 767 225 760 l 308 872 l 381 872 l 381 767 q 468 751 425 764 q 545 706 511 738 q 600 622 579 675 q 621 483 621 568 l 438 483 q 435 527 438 504 q 428 569 433 550 q 410 605 422 589 q 381 628 399 621 l 381 119 q 413 152 401 132 q 429 196 424 172 q 436 244 435 219 q 438 290 438 269 l 621 290 q 565 74 621 151 q 381 -19 510 -4 l 381 -142 l 308 -142 l 308 -19 m 308 628 q 250 548 263 611 q 238 376 238 485 q 239 292 238 335 q 247 215 240 250 q 267 153 253 179 q 308 119 282 128 l 308 628 z "},"£":{"ha":667,"x_min":7,"x_max":660,"o":"m 13 539 l 106 539 q 43 736 43 660 q 61 833 43 788 q 117 911 79 878 q 210 964 154 944 q 340 983 265 983 q 562 915 483 983 q 643 696 640 847 l 460 696 q 454 756 460 728 q 436 806 449 785 q 403 840 424 828 q 351 853 382 853 q 260 819 286 853 q 235 743 235 785 q 243 693 235 728 q 271 618 251 658 l 310 539 l 542 539 l 542 425 l 346 425 q 353 371 353 404 q 325 261 353 310 q 228 154 297 213 l 233 151 q 260 158 240 154 q 296 161 281 161 q 330 155 310 161 q 372 140 350 149 q 415 126 393 132 q 454 119 436 119 q 515 133 476 119 q 599 178 553 147 l 660 47 q 453 -19 557 -19 q 397 -12 428 -19 q 333 6 367 -4 q 265 23 300 15 q 200 31 231 31 q 135 22 165 31 q 64 -8 106 13 l 7 111 q 124 222 79 157 q 169 357 169 286 q 154 425 169 386 l 13 425 l 13 539 z "},"ƒ":{"ha":667,"x_min":-49,"x_max":660,"o":"m 111 594 l 257 594 l 281 718 q 315 844 294 792 q 368 928 336 896 q 446 976 400 961 q 556 992 492 992 q 608 991 581 992 q 660 988 636 990 l 633 857 q 613 860 622 860 q 594 861 604 861 q 540 853 561 861 q 504 827 518 846 q 481 776 490 808 q 461 696 471 744 l 440 594 l 593 594 l 572 481 l 418 481 l 328 6 q 299 -99 317 -53 q 251 -178 282 -146 q 172 -228 219 -211 q 51 -244 124 -244 q -7 -242 19 -244 q -49 -235 -33 -240 l -21 -108 q 28 -114 0 -114 q 78 -106 58 -114 q 110 -83 97 -99 q 131 -41 124 -67 q 146 22 139 -15 l 235 481 l 89 481 l 111 594 z "},"¥":{"ha":667,"x_min":-24,"x_max":690,"o":"m 247 221 l 50 221 l 50 335 l 247 335 l 247 394 l 232 426 l 50 426 l 50 540 l 178 540 l -24 964 l 183 964 l 332 590 l 335 590 l 490 964 l 690 964 l 489 540 l 617 540 l 617 426 l 435 426 l 419 394 l 419 335 l 617 335 l 617 221 l 419 221 l 419 0 l 247 0 l 247 221 z "},"ª":{"ha":436,"x_min":14,"x_max":422,"o":"m 268 746 q 244 733 257 738 q 219 725 231 728 q 168 701 183 718 q 153 657 153 685 q 163 616 153 633 q 197 599 174 599 q 244 613 221 599 q 268 664 268 628 l 268 746 m 407 607 q 410 558 407 575 q 422 519 413 540 l 283 519 q 274 544 276 531 q 268 568 271 557 q 215 521 244 532 q 138 510 186 510 q 79 522 103 510 q 41 551 56 533 q 20 592 26 569 q 14 638 14 615 q 42 735 14 704 q 138 779 71 765 l 218 796 q 257 814 246 803 q 268 843 268 825 q 217 894 268 894 q 174 879 189 894 q 160 840 160 864 l 160 828 l 29 828 l 29 846 q 82 953 29 922 q 219 983 135 983 q 316 973 279 983 q 373 944 353 963 q 400 901 393 926 q 407 846 407 876 l 407 607 z "},"º":{"ha":436,"x_min":17,"x_max":419,"o":"m 156 746 q 166 640 156 682 q 218 599 176 599 q 267 633 253 599 q 281 746 281 667 q 267 860 281 825 q 218 894 253 894 q 166 852 176 894 q 156 746 156 810 m 17 746 q 26 849 17 804 q 60 923 36 893 q 122 968 83 953 q 218 983 161 983 q 317 970 278 985 q 378 926 356 956 q 410 851 401 896 q 419 746 419 806 q 410 644 419 688 q 376 570 400 600 q 314 525 353 540 q 218 510 275 510 q 119 523 158 508 q 58 567 81 538 q 26 642 35 597 q 17 746 17 688 z "},"¹":{"ha":433,"x_min":33,"x_max":315,"o":"m 160 792 l 33 792 l 33 889 l 44 889 q 147 912 108 889 q 196 983 186 935 l 315 983 l 315 389 l 160 389 l 160 792 z "},"²":{"ha":433,"x_min":0,"x_max":433,"o":"m 0 389 q 31 531 0 468 q 140 650 61 594 l 210 700 q 264 755 250 729 q 278 813 278 781 q 262 859 278 840 q 218 878 246 878 q 182 868 196 878 q 160 844 168 858 q 150 811 153 829 q 147 776 147 793 l 0 776 l 0 811 q 51 938 0 893 q 222 983 103 983 q 384 942 335 983 q 433 833 433 901 q 415 735 433 776 q 342 653 396 694 l 263 592 q 210 542 226 564 q 189 503 193 519 l 433 503 l 433 389 l 0 389 z "},"³":{"ha":433,"x_min":0,"x_max":433,"o":"m 147 578 q 163 512 149 539 q 215 485 176 485 q 263 506 249 485 q 278 558 278 528 q 275 588 278 572 q 263 617 272 604 q 238 638 254 629 q 194 646 221 646 l 156 646 l 156 743 l 194 743 q 252 766 235 743 q 269 817 269 789 q 253 860 269 843 q 213 878 238 878 q 161 853 174 878 q 149 794 149 828 l 10 794 q 60 938 10 889 q 123 972 85 961 q 211 983 161 983 q 366 947 315 983 q 417 832 417 911 q 391 744 417 778 q 319 700 365 710 l 319 697 q 408 650 382 686 q 433 558 433 614 q 425 497 433 529 q 391 439 417 465 q 319 396 365 413 q 199 379 274 379 q 47 428 94 379 q 0 564 0 476 l 0 578 l 147 578 z "},"⁄":{"ha":232,"x_min":-228,"x_max":460,"o":"m 336 1007 l 460 1007 l -104 -43 l -228 -43 l 336 1007 z "},"∕":{"ha":232,"x_min":-228,"x_max":460,"o":"m 336 1007 l 460 1007 l -104 -43 l -228 -43 l 336 1007 z "},"¼":{"ha":1001,"x_min":0,"x_max":1001,"o":"m 126 792 l 0 792 l 0 889 l 11 889 q 114 912 75 889 q 163 983 153 935 l 282 983 l 282 389 l 126 389 l 126 792 m 697 1007 l 821 1007 l 257 -43 l 133 -43 l 697 1007 m 557 233 l 768 594 l 940 594 l 940 221 l 1001 221 l 1001 107 l 940 107 l 940 0 l 793 0 l 793 107 l 557 107 l 557 233 m 793 422 l 790 422 l 671 221 l 793 221 l 793 422 z "},"½":{"ha":1001,"x_min":0,"x_max":1001,"o":"m 568 0 q 599 142 568 79 q 708 261 629 206 l 778 311 q 832 366 818 340 q 846 424 846 392 q 830 470 846 451 q 786 489 814 489 q 750 479 764 489 q 728 455 736 469 q 718 422 721 440 q 715 388 715 404 l 568 388 l 568 422 q 619 549 568 504 q 790 594 671 594 q 952 553 903 594 q 1001 444 1001 513 q 983 347 1001 388 q 910 264 964 306 l 831 203 q 778 153 794 175 q 757 114 761 131 l 1001 114 l 1001 0 l 568 0 m 126 792 l 0 792 l 0 889 l 11 889 q 114 912 75 889 q 163 983 153 935 l 282 983 l 282 389 l 126 389 l 126 792 m 664 1007 l 788 1007 l 224 -43 l 100 -43 l 664 1007 z "},"¾":{"ha":1001,"x_min":0,"x_max":1001,"o":"m 147 578 q 163 512 149 539 q 215 485 176 485 q 263 506 249 485 q 278 558 278 528 q 275 588 278 572 q 263 617 272 604 q 238 638 254 629 q 194 646 221 646 l 156 646 l 156 743 l 194 743 q 252 766 235 743 q 269 817 269 789 q 253 860 269 843 q 213 878 238 878 q 161 853 174 878 q 149 794 149 828 l 10 794 q 60 938 10 889 q 123 972 85 961 q 211 983 161 983 q 366 947 315 983 q 417 832 417 911 q 391 744 417 778 q 319 700 365 710 l 319 697 q 408 650 382 686 q 433 558 433 614 q 425 497 433 529 q 391 439 417 465 q 319 396 365 413 q 199 379 274 379 q 47 428 94 379 q 0 564 0 476 l 0 578 l 147 578 m 751 1007 l 875 1007 l 311 -43 l 188 -43 l 751 1007 m 793 221 l 793 422 l 790 422 l 671 221 l 793 221 m 557 233 l 768 594 l 940 594 l 940 221 l 1001 221 l 1001 107 l 940 107 l 940 0 l 793 0 l 793 107 l 557 107 l 557 233 z "},"‰":{"ha":1518,"x_min":38,"x_max":1481,"o":"m 742 1007 l 865 1007 l 301 -43 l 178 -43 l 742 1007 m 742 251 q 751 127 742 168 q 803 86 761 86 q 854 127 844 86 q 864 251 864 168 q 854 366 864 326 q 803 406 844 406 q 751 366 761 406 q 742 251 742 326 m 594 246 q 603 363 594 313 q 634 446 611 413 q 697 495 657 479 q 803 511 738 511 q 908 495 867 511 q 972 446 949 479 q 1003 363 994 413 q 1011 246 1011 313 q 1003 129 1011 179 q 972 46 994 79 q 908 -3 949 13 q 803 -19 867 -19 q 697 -3 738 -19 q 634 46 657 13 q 603 129 611 79 q 594 246 594 179 m 185 724 q 194 599 185 640 q 246 558 204 558 q 297 599 288 558 q 307 724 307 640 q 297 838 307 799 q 246 878 288 878 q 194 838 204 878 q 185 724 185 799 m 38 718 q 46 835 38 785 q 77 918 54 885 q 140 967 100 951 q 246 983 181 983 q 351 967 310 983 q 415 918 392 951 q 446 835 438 885 q 454 718 454 785 q 446 601 454 651 q 415 518 438 551 q 351 469 392 485 q 246 453 310 453 q 140 469 181 453 q 77 518 100 485 q 46 601 54 551 q 38 718 38 651 m 1064 246 q 1072 363 1064 313 q 1103 446 1081 413 q 1167 495 1126 479 q 1272 511 1207 511 q 1377 495 1336 511 q 1441 446 1418 479 q 1472 363 1464 413 q 1481 246 1481 313 q 1472 129 1481 179 q 1441 46 1464 79 q 1377 -3 1418 13 q 1272 -19 1336 -19 q 1167 -3 1207 -19 q 1103 46 1126 13 q 1072 129 1081 79 q 1064 246 1064 179 m 1211 251 q 1221 127 1211 168 q 1272 86 1231 86 q 1324 127 1314 86 q 1333 251 1333 168 q 1324 366 1333 326 q 1272 406 1314 406 q 1221 366 1231 406 q 1211 251 1211 326 z "},"−":{"ha":833,"x_min":65,"x_max":768,"o":"m 65 438 l 768 438 l 768 265 l 65 265 l 65 438 z "},"±":{"ha":833,"x_min":65,"x_max":768,"o":"m 65 172 l 768 172 l 768 0 l 65 0 l 65 172 m 331 703 l 503 703 l 503 553 l 768 553 l 768 381 l 503 381 l 503 231 l 331 231 l 331 381 l 65 381 l 65 553 l 331 553 l 331 703 z "},"×":{"ha":833,"x_min":82,"x_max":751,"o":"m 299 351 l 82 567 l 201 686 l 417 469 l 632 686 l 751 567 l 535 351 l 751 136 l 632 17 l 417 233 l 201 17 l 82 136 l 299 351 z "},"÷":{"ha":833,"x_min":65,"x_max":768,"o":"m 282 57 q 320 153 282 115 q 417 192 358 192 q 513 153 475 192 q 551 57 551 115 q 513 -40 551 -1 q 417 -78 475 -78 q 320 -40 358 -78 q 282 57 282 -1 m 282 646 q 320 742 282 704 q 417 781 358 781 q 513 742 475 781 q 551 646 551 704 q 513 549 551 588 q 417 511 475 511 q 320 549 358 511 q 282 646 282 588 m 65 438 l 768 438 l 768 265 l 65 265 l 65 438 z "},"≠":{"ha":824,"x_min":47,"x_max":776,"o":"m 379 131 l 271 -85 l 135 -15 l 207 131 l 47 131 l 47 288 l 288 288 l 365 443 l 47 443 l 47 600 l 444 600 l 553 813 l 690 744 l 617 600 l 776 600 l 776 443 l 538 443 l 460 288 l 776 288 l 776 131 l 379 131 z "},"≈":{"ha":824,"x_min":35,"x_max":788,"o":"m 788 635 q 769 542 783 586 q 730 464 756 497 q 665 410 704 431 q 571 390 626 390 q 485 405 532 390 q 392 436 439 419 q 303 467 346 453 q 228 482 260 482 q 168 453 189 482 q 142 390 147 425 l 38 390 q 55 480 42 436 q 93 558 68 524 q 156 613 118 592 q 247 633 194 633 q 334 619 289 633 q 425 590 379 606 q 515 560 471 574 q 599 546 560 546 q 658 572 639 546 q 685 635 678 599 l 788 635 l 788 635 m 785 339 q 767 247 781 292 q 729 169 754 203 q 667 115 704 135 q 575 94 629 94 q 486 109 535 94 q 390 141 438 124 q 298 173 342 158 q 225 188 254 188 q 166 158 188 188 q 139 94 144 128 l 35 94 q 52 185 39 140 q 91 263 65 229 q 154 319 117 297 q 244 340 192 340 q 332 326 288 340 q 421 296 376 313 q 510 265 465 279 q 597 251 554 251 q 656 277 636 251 q 682 339 675 303 l 785 339 l 785 339 z "},"≤":{"ha":824,"x_min":47,"x_max":776,"o":"m 47 383 l 47 540 l 776 782 l 776 618 l 263 463 l 776 311 l 776 147 l 47 383 m 47 -53 l 47 104 l 776 104 l 776 -53 l 47 -53 z "},"≥":{"ha":824,"x_min":47,"x_max":776,"o":"m 47 147 l 47 311 l 561 463 l 47 618 l 47 782 l 776 540 l 776 383 l 47 147 m 47 -53 l 47 104 l 776 104 l 776 -53 l 47 -53 z "},"¬":{"ha":833,"x_min":65,"x_max":768,"o":"m 596 417 l 65 417 l 65 589 l 768 589 l 768 136 l 596 136 l 596 417 z "},"∆":{"ha":957,"x_min":13,"x_max":946,"o":"m 13 0 l 383 989 l 553 989 l 946 0 l 13 0 m 467 800 l 233 151 l 717 151 l 467 800 z "},"Δ":{"ha":957,"x_min":13,"x_max":946,"o":"m 13 0 l 383 989 l 553 989 l 946 0 l 13 0 m 467 800 l 233 151 l 717 151 l 467 800 z "},"Ω":{"ha":1057,"x_min":64,"x_max":976,"o":"m 590 0 l 590 267 q 750 368 697 292 q 803 551 803 444 q 783 667 803 613 q 726 761 763 721 q 637 825 689 801 q 522 849 585 849 q 406 825 458 849 q 317 760 354 801 q 259 665 279 719 q 239 550 239 611 q 292 368 239 442 q 450 267 344 294 l 450 0 l 65 0 l 65 142 l 315 142 l 315 196 q 206 250 253 214 q 127 335 158 286 q 80 442 96 383 q 64 563 64 500 q 100 740 64 660 q 198 879 136 821 q 343 969 260 938 q 521 1001 426 1001 q 699 970 617 1001 q 844 882 782 939 q 941 744 906 825 q 976 567 976 664 q 961 444 976 504 q 915 335 946 385 q 835 249 883 286 q 724 196 788 213 l 724 142 l 976 142 l 976 0 l 590 0 z "},"Ω":{"ha":1057,"x_min":64,"x_max":976,"o":"m 590 0 l 590 267 q 750 368 697 292 q 803 551 803 444 q 783 667 803 613 q 726 761 763 721 q 637 825 689 801 q 522 849 585 849 q 406 825 458 849 q 317 760 354 801 q 259 665 279 719 q 239 550 239 611 q 292 368 239 442 q 450 267 344 294 l 450 0 l 65 0 l 65 142 l 315 142 l 315 196 q 206 250 253 214 q 127 335 158 286 q 80 442 96 383 q 64 563 64 500 q 100 740 64 660 q 198 879 136 821 q 343 969 260 938 q 521 1001 426 1001 q 699 970 617 1001 q 844 882 782 939 q 941 744 906 825 q 976 567 976 664 q 961 444 976 504 q 915 335 946 385 q 835 249 883 286 q 724 196 788 213 l 724 142 l 976 142 l 976 0 l 590 0 z "},"µ":{"ha":694,"x_min":64,"x_max":631,"o":"m 439 747 l 631 747 l 631 0 l 447 0 l 447 88 l 444 88 q 373 6 414 32 q 297 -19 332 -19 q 272 -16 282 -19 q 256 -8 263 -12 l 256 -244 l 64 -244 l 64 747 l 256 747 l 256 232 q 275 151 256 174 q 338 128 294 128 q 439 251 439 128 l 439 747 z "},"μ":{"ha":694,"x_min":64,"x_max":631,"o":"m 439 747 l 631 747 l 631 0 l 447 0 l 447 88 l 444 88 q 373 6 414 32 q 297 -19 332 -19 q 272 -16 282 -19 q 256 -8 263 -12 l 256 -244 l 64 -244 l 64 747 l 256 747 l 256 232 q 275 151 256 174 q 338 128 294 128 q 439 251 439 128 l 439 747 z "},"π":{"ha":829,"x_min":1,"x_max":797,"o":"m 797 19 q 738 -3 765 4 q 675 -11 710 -11 q 599 3 628 -11 q 553 42 569 17 q 532 100 538 67 q 526 174 526 133 l 526 526 l 254 526 l 254 0 l 99 0 l 99 526 l 1 526 l 1 674 l 793 674 l 793 526 l 683 526 l 683 210 q 684 178 683 194 q 690 150 685 163 q 705 129 694 138 q 736 121 715 121 q 767 125 751 121 q 797 136 782 129 l 797 19 l 797 19 z "},"°":{"ha":556,"x_min":72,"x_max":483,"o":"m 178 778 q 207 707 178 736 q 278 678 236 678 q 349 707 319 678 q 378 778 378 736 q 349 849 378 819 q 278 878 319 878 q 207 849 236 878 q 178 778 178 819 m 72 778 q 88 858 72 821 q 132 924 104 896 q 197 967 160 951 q 278 983 235 983 q 358 967 321 983 q 424 924 396 951 q 467 858 451 896 q 483 778 483 821 q 467 697 483 735 q 424 632 451 660 q 358 588 396 604 q 278 572 321 572 q 197 588 235 572 q 132 632 160 604 q 88 697 104 660 q 72 778 72 735 z "},"ℓ":{"ha":694,"x_min":32,"x_max":624,"o":"m 624 71 q 394 -19 519 -19 q 233 36 290 -19 q 175 181 175 92 l 175 254 l 97 183 l 94 183 l 32 281 l 174 399 l 174 733 q 192 841 174 792 q 241 926 210 890 q 316 981 272 961 q 413 1001 360 1001 q 495 987 458 1001 q 558 945 532 972 q 599 881 585 918 q 614 797 614 843 q 549 588 614 690 q 351 371 483 486 l 351 208 q 359 162 351 181 q 379 132 367 143 q 408 116 392 121 q 439 111 424 111 q 497 124 465 111 q 561 163 528 136 l 564 163 l 624 71 l 624 71 m 468 788 q 453 856 468 828 q 413 883 438 883 q 369 852 388 883 q 351 767 351 821 l 351 521 q 440 656 413 588 q 468 788 468 724 z "},"℮":{"ha":833,"x_min":61,"x_max":779,"o":"m 218 360 l 218 108 q 419 26 300 26 q 571 66 507 26 q 688 193 635 106 l 736 164 q 672 78 704 114 q 601 20 639 43 q 518 -13 563 -3 q 419 -24 474 -24 q 272 6 338 -24 q 158 88 206 36 q 86 210 111 140 q 61 360 61 279 q 86 510 61 440 q 158 632 111 581 q 272 713 206 683 q 419 743 338 743 q 566 715 500 743 q 679 635 632 686 q 753 515 726 585 q 779 360 779 444 l 218 360 m 622 410 l 622 611 q 418 694 535 694 q 218 611 301 694 l 218 410 l 622 410 z "},"∞":{"ha":1143,"x_min":63,"x_max":1081,"o":"m 1081 368 q 1064 267 1081 314 q 1017 184 1047 219 q 941 128 986 149 q 840 108 896 108 q 760 122 797 108 q 690 156 722 135 q 628 206 657 178 q 572 265 599 235 q 515 206 543 235 q 455 156 486 178 q 388 122 424 135 q 306 110 351 110 q 204 129 249 110 q 128 183 160 149 q 79 265 96 218 q 63 365 63 311 q 78 465 63 419 q 125 546 94 511 q 200 600 156 581 q 300 619 244 619 q 384 606 346 619 q 455 570 422 593 q 516 517 488 547 q 572 454 544 488 q 627 517 599 486 q 688 570 656 547 q 759 607 721 593 q 842 621 797 621 q 942 601 897 621 q 1017 548 986 582 q 1064 468 1047 514 q 1081 368 1081 422 m 950 364 q 920 447 950 413 q 839 482 890 482 q 785 470 811 482 q 737 440 760 458 q 693 401 714 422 q 656 361 672 379 q 694 320 674 340 q 739 284 715 300 q 788 258 763 268 q 843 249 814 249 q 922 282 894 249 q 950 364 950 315 m 489 361 q 450 401 472 379 q 403 440 428 422 q 353 469 379 457 q 300 481 326 481 q 223 444 251 481 q 194 363 194 408 q 224 281 194 313 q 304 250 253 250 q 357 260 331 250 q 407 287 383 271 q 451 322 431 303 q 489 361 472 342 z "},"∂":{"ha":778,"x_min":56,"x_max":719,"o":"m 719 499 q 705 318 719 410 q 651 151 690 226 q 542 29 611 76 q 364 -18 474 -18 q 238 6 294 -18 q 140 72 181 29 q 78 173 100 115 q 56 300 56 231 q 78 423 56 367 q 140 520 100 479 q 235 585 179 561 q 357 608 290 608 q 461 590 414 608 q 553 535 508 571 l 554 571 q 545 673 556 619 q 511 772 535 726 q 447 847 488 817 q 347 876 407 876 q 257 857 297 876 q 179 807 217 838 l 93 907 q 208 976 151 951 q 340 1001 264 1001 q 521 957 449 1001 q 638 841 593 913 q 701 680 682 769 q 719 499 719 590 m 550 401 q 475 465 515 442 q 381 488 435 488 q 306 472 338 488 q 254 428 275 456 q 224 366 233 401 q 214 292 214 331 q 223 222 214 256 q 251 161 232 188 q 299 119 269 135 q 369 104 329 104 q 453 130 418 104 q 510 195 489 156 q 542 281 532 235 q 551 368 553 328 l 550 401 z "},"∫":{"ha":853,"x_min":122,"x_max":685,"o":"m 685 983 q 663 929 685 951 q 610 907 642 907 q 561 924 576 907 q 539 960 546 940 q 526 996 532 979 q 506 1013 519 1013 q 485 999 490 1013 q 481 974 481 986 q 483 873 481 924 q 486 772 486 822 l 488 119 q 488 -12 488 60 q 470 -148 488 -85 q 409 -254 453 -211 q 279 -297 365 -297 q 228 -291 256 -297 q 176 -272 200 -285 q 138 -237 153 -258 q 122 -187 122 -217 q 144 -135 122 -156 q 197 -114 165 -114 q 245 -131 231 -114 q 267 -167 260 -147 q 280 -203 275 -186 q 300 -219 285 -219 q 322 -203 318 -219 q 325 -174 325 -186 q 322 -97 325 -135 q 319 -18 319 -58 l 318 717 q 318 794 318 751 q 323 878 318 836 q 340 958 328 919 q 378 1025 353 997 q 531 1090 438 1090 q 581 1084 554 1090 q 631 1065 608 1078 q 669 1033 654 1053 q 685 983 685 1013 z "},"√":{"ha":757,"x_min":-17,"x_max":774,"o":"m 478 -297 l 325 -297 l 115 138 l 44 104 l -17 233 l 199 332 l 374 -42 l 604 1092 l 774 1092 l 478 -297 z "},"∑":{"ha":908,"x_min":35,"x_max":874,"o":"m 35 -297 l 35 -165 l 453 406 l 53 961 l 53 1092 l 857 1092 l 857 940 l 272 940 l 650 407 l 247 -146 l 874 -146 l 874 -297 l 35 -297 z "},"∏":{"ha":1032,"x_min":83,"x_max":949,"o":"m 783 -297 l 783 940 l 249 940 l 249 -297 l 83 -297 l 83 1092 l 949 1092 l 949 -297 l 783 -297 z "},"◊":{"ha":824,"x_min":90,"x_max":733,"o":"m 483 -49 l 338 -49 l 90 494 l 339 1038 l 483 1038 l 733 494 l 483 -49 m 411 882 l 250 494 l 411 106 l 574 494 l 411 882 z "},"":{"ha":711,"x_min":0,"x_max":711,"o":"m 308 163 l 308 256 l 386 256 l 386 163 l 308 163 m 313 325 l 310 349 q 328 461 310 425 q 392 543 346 497 q 449 609 436 586 q 461 658 461 632 q 430 742 461 708 q 356 776 399 776 q 281 746 313 776 q 242 644 250 715 l 172 656 q 233 800 182 754 q 360 846 285 846 q 483 796 433 846 q 532 664 532 746 q 515 583 532 619 q 444 497 497 546 q 385 425 393 451 q 376 325 376 399 l 313 325 m 642 69 l 642 926 l 69 926 l 69 69 l 642 69 m 711 997 l 711 0 l 0 0 l 0 997 l 711 997 z "}}}
